<?xml version="1.0" encoding="UTF-8" standalone="no"?>
<svg
   width="2658"
   height="772"
   version="1.1"
   id="svg5"
   xmlns="http://www.w3.org/2000/svg"
   xmlns:svg="http://www.w3.org/2000/svg">
  <defs
     id="defs5" />
  <path
     d="M 860.259,551.168 V 238.43 a 23.061998,23.061998 135 0 1 23.062,-23.062 l 202.2702,0 a 13.138798,13.138798 45 0 1 13.1388,13.1388 V 294.049 H 946.664 v -7.063 h 7.063 v 67.425 h -7.063 v -7.062 h 125.4183 a 12.297705,12.297705 45 0 1 12.2977,12.2977 v 51.61705 A 14.876251,14.876251 135 0 1 1069.5037,426.14 H 946.664 v -7.063 h 7.063 V 540.59832 A 17.631684,17.631684 135 0 1 936.09532,558.23 H 860.259 Z m 14.125,0 h -7.062 v -7.062 h 79.342 v 7.062 h -7.062 V 412.015 h 137.718 v 7.062 h -7.06 v -64.666 h 7.06 v 7.063 H 939.602 v -81.55 h 152.068 v 7.062 h -7.07 v -64.555 h 7.07 v 7.062 H 867.322 v -7.062 h 7.062 z m -7.062,0 V 222.431 h 224.348 v 64.555 H 946.664 v 67.425 h 130.656 v 64.666 H 946.664 V 551.168 Z M 1267.96,444.679 V 312.57399 A 14.993994,14.993994 135 0 1 1282.954,297.58 h 59.8153 a 17.770737,17.770737 45 0 1 17.7707,17.77074 l 0,232.26094 A 10.618316,10.618316 135 0 1 1349.9217,558.23 h -67.7034 A 10.618316,10.618316 45 0 1 1271.6,547.61168 V 505.372 h 7.06 v 7.063 h -2.54 v -7.063 l 6.65,2.398 c -5.9733,16.534 -16.1833,29.645 -30.63,39.333 -14.2867,9.552 -31.38,14.328 -51.28,14.328 -18.1533,0 -34.1533,-4.162 -48,-12.486 -13.8867,-8.42867 -24.6633,-20.15367 -32.33,-35.175 -7.5733,-14.90933 -11.4,-32.229 -11.48,-51.959 V 313.05807 A 15.47807,15.47807 135 0 1 1124.5281,297.58 h 58.4125 a 18.699396,18.699396 45 0 1 18.6994,18.6994 V 446.334 c 0.06,11.57867 2.9533,20.56533 8.68,26.96 5.56,6.08333 13.2967,9.125 23.21,9.125 6.58,0 12.4667,-1.435 17.66,-4.305 5.1467,-2.81533 9.23,-6.93767 12.25,-12.367 3.14,-5.604 4.6467,-12.59067 4.52,-20.96 z m 14.12,-0.108 c 0.1667,10.90533 -1.93,20.25067 -6.29,28.036 -4.34,7.812 -10.2633,13.76833 -17.77,17.869 -7.3133,4.04533 -15.4767,6.068 -24.49,6.068 -14.0667,0 -25.31,-4.60933 -33.73,-13.828 -8.1067,-9.05467 -12.2033,-21.182 -12.29,-36.382 V 304.643 h 7.06 v 7.062 h -78.46 v -7.062 h 7.07 v 157.112 c 0.067,17.49533 3.3767,32.69267 9.93,45.592 6.4533,12.64 15.4633,22.47067 27.03,29.492 11.6067,6.978 25.18,10.467 40.72,10.467 17.04,0 31.51,-3.97867 43.41,-11.936 11.8867,-7.968 20.29,-18.76667 25.21,-32.396 l 1.68,-4.664 h 14.56 v 52.858 h -7.06 v -7.062 h 74.82 v 7.062 h -7.06 V 304.643 h 7.06 v 7.062 h -78.46 v -7.062 h 7.06 v 140.036 z m -7.06,0.108 V 304.643 h 78.46 v 246.525 h -74.82 v -45.796 h -2.54 c -5.44,15.08133 -14.7433,27.036 -27.91,35.864 -13.1,8.75467 -28.8833,13.132 -47.35,13.132 -16.8467,0 -31.6333,-3.82533 -44.36,-11.476 -12.7267,-7.72467 -22.62,-18.50233 -29.68,-32.333 -7.0667,-13.90467 -10.6367,-30.16333 -10.71,-48.776 v -157.14 h 78.46 v 141.691 c 0.073,13.38933 3.57,23.94633 10.49,31.671 6.9867,7.65067 16.4767,11.476 28.47,11.476 7.7933,0 14.8167,-1.72867 21.07,-5.186 6.3267,-3.458 11.33,-8.49733 15.01,-15.118 3.7533,-6.69467 5.5567,-14.86067 5.41,-24.498 z M 1488.95,410.58 V 548.01212 A 10.217884,10.217884 135 0 1 1478.7321,558.23 h -68.7756 A 13.58651,13.58651 45 0 1 1396.37,544.64349 V 310.29153 A 12.711535,12.711535 135 0 1 1409.0815,297.58 h 65.9895 a 10.019019,10.019019 45 0 1 10.019,10.01902 V 349.776 h -7.06 v -7.062 h 2.65 v 7.062 l -6.64,-2.408 c 5.98,-16.484 16.21,-29.45933 30.69,-38.926 14.42,-9.37467 31.4133,-14.062 50.98,-14.062 18.6,0 34.8633,4.201 48.79,12.603 13.9533,8.42133 24.7667,20.185 32.44,35.291 7.6533,14.82867 11.44,32.089 11.36,51.781 V 544.17158 A 14.058419,14.058419 135 0 1 1634.2416,558.23 h -63.6452 A 14.8864,14.8864 45 0 1 1555.71,543.3436 V 409.366 c 0.067,-11.79267 -2.81,-20.87133 -8.63,-27.236 -5.6,-6.19333 -13.5733,-9.29 -23.92,-9.29 -6.98,0 -13.05,1.48767 -18.21,4.463 -4.9667,2.83867 -8.8233,6.97433 -11.57,12.407 -2.8867,5.64733 -4.3633,12.62233 -4.43,20.925 z m -14.12,-0.055 c 0.08,-10.53067 2.06,-19.59333 5.94,-27.188 4.0267,-7.95667 9.7333,-14.047 17.12,-18.271 7.3467,-4.234 15.77,-6.351 25.27,-6.351 14.52,0 25.97,4.628 34.35,13.884 8.3,9.08467 12.41,21.34033 12.33,36.767 v 141.802 h -7.06 v -7.062 h 78.46 v 7.062 h -7.07 V 393.999 c 0.073,-17.386 -3.2,-32.49533 -9.82,-45.328 -6.4533,-12.702 -15.5033,-22.567 -27.15,-29.595 -11.68,-7.04733 -25.51,-10.571 -41.49,-10.571 -16.7733,0 -31.19,3.92 -43.25,11.76 -11.8533,7.748 -20.2367,18.388 -25.15,31.92 l -1.68,4.654 h -14.67 v -52.196 h 7.07 v 7.062 h -74.6 v -7.062 h 7.06 v 246.525 h -7.06 v -7.062 h 78.46 v 7.062 h -7.06 V 410.58 Z m 7.06,0.055 v 140.588 h -78.46 V 304.643 h 74.6 v 45.133 h 2.65 c 5.44,-15.00733 14.7433,-26.81467 27.91,-35.422 13.2467,-8.608 28.9533,-12.912 47.12,-12.912 17.2933,0 32.34,3.86233 45.14,11.587 12.8,7.72467 22.73,18.53933 29.79,32.444 7.14,13.83067 10.6733,30.01533 10.6,48.554 v 157.141 h -78.46 V 409.366 c 0.073,-13.61 -3.4233,-24.27733 -10.49,-32.002 -6.9867,-7.72467 -16.6967,-11.587 -29.13,-11.587 -8.24,0 -15.4867,1.80267 -21.74,5.408 -6.18,3.53067 -10.9633,8.64333 -14.35,15.338 -3.38,6.62133 -5.1067,14.64033 -5.18,24.057 z m 201.15,116.2329 V 312.14831 A 14.568306,14.568306 135 0 1 1697.6083,297.58 h 59.3811 a 18.630571,18.630571 45 0 1 18.6306,18.63057 l 0,228.74661 A 13.272816,13.272816 135 0 1 1762.3472,558.23 H 1683.04 Z m 14.12,24.3551 h -7.06 v -7.062 h 78.46 v 7.062 h -7.06 V 304.643 h 7.06 v 7.062 h -78.46 a 7.0610001,7.0610001 134.99189 0 1 7.06,-7.062 z m 32.23,-268.265 c -12.94,0 -24.06,-4.26033 -33.36,-12.781 -9.3933,-8.78333 -14.09,-19.38367 -14.09,-31.801 0,-12.37067 4.7333,-22.89733 14.2,-31.58 9.2867,-8.594 20.37,-12.891 33.25,-12.891 12.9667,0 24.0633,4.31233 33.29,12.937 9.3667,8.66533 14.05,19.17667 14.05,31.534 0,12.41733 -4.6833,23.00233 -14.05,31.755 -9.24,8.55133 -20.3367,12.827 -33.29,12.827 z m 0,-14.125 c 9.26,0 17.1433,-3.00733 23.65,-9.022 6.3733,-5.96067 9.56,-13.10567 9.56,-21.435 0,-8.24133 -3.1867,-15.31267 -9.56,-21.214 -6.52,-6.088 -14.4033,-9.132 -23.65,-9.132 -9.1933,0 -17.0933,3.05933 -23.7,9.178 -6.42,5.884 -9.63,12.94 -9.63,21.168 0,8.32933 3.1733,15.459 9.52,21.389 6.5933,6.04533 14.53,9.068 23.81,9.068 z m -39.29,282.39 V 323.27357 a 18.630571,18.630571 135 0 1 18.6306,-18.63057 h 59.8294 v 246.525 z m 39.29,-275.327 c -11.1133,0 -20.64,-3.64167 -28.58,-10.925 -7.8733,-7.35667 -11.81,-16.22167 -11.81,-26.595 0,-10.29933 3.9733,-19.09067 11.92,-26.374 7.94,-7.35667 17.43,-11.035 28.47,-11.035 11.1067,0 20.5967,3.67833 28.47,11.035 7.8733,7.28333 11.81,16.07467 11.81,26.374 0,10.37333 -3.9367,19.23833 -11.81,26.595 -7.8733,7.28333 -17.3633,10.925 -28.47,10.925 z m 242.9,367.802 V 511.221 h 7.06 v 7.062 h -1.65 v -7.062 l 6.47,2.827 c -3.6267,8.30267 -8.7633,16.05567 -15.41,23.259 -6.76,7.33067 -15.1767,13.25333 -25.25,17.768 -10.0333,4.53133 -21.7767,6.797 -35.23,6.797 -19.4533,0 -37.2233,-5.071 -53.31,-15.213 -16.1,-10.232 -28.8533,-25.346 -38.26,-45.342 -9.28,-19.78933 -13.92,-44.223 -13.92,-73.301 0,-30.08133 4.84,-54.957 14.52,-74.627 9.8067,-19.92867 22.77,-34.73767 38.89,-44.427 16.0467,-9.72133 33.2967,-14.582 51.75,-14.582 14.02,0 26.1133,2.439 36.28,7.317 10.16,4.83933 18.5467,11.13567 25.16,18.889 6.4333,7.46467 11.3733,15.33133 14.82,23.6 l -6.51,2.721 v -7.062 h 2.42 v 7.062 h -7.06 l 0,-34.30949 A 15.017515,15.017515 135 0 1 1988.0775,297.58 h 57.1937 a 19.598807,19.598807 45 0 1 19.5988,19.59881 V 635.16152 A 15.543477,15.543477 135 0 1 2049.3265,650.705 H 1972.29 Z m 14.12,0 h -7.06 v -7.063 h 78.46 v 7.063 h -7.06 v -339 h 7.06 v 7.062 h -77.69 v -7.062 h 7.07 v 49.327 h -14.2 l -1.81,-4.342 c -2.8733,-6.886 -7.0533,-13.512 -12.54,-19.878 -5.3067,-6.22467 -12.15,-11.331 -20.53,-15.319 -8.2267,-3.95067 -18.28,-5.926 -30.16,-5.926 -15.8267,0 -30.65,4.188 -44.47,12.564 -13.7467,8.262 -24.9133,21.11433 -33.5,38.557 -8.7067,17.70333 -13.06,40.5 -13.06,68.39 0,26.98 4.19,49.40867 12.57,67.286 8.24,17.524 19.2433,30.66033 33.01,39.409 13.7867,8.69067 29.0467,13.036 45.78,13.036 11.42,0 21.2367,-1.854 29.45,-5.562 8.3133,-3.72533 15.1967,-8.54333 20.65,-14.454 5.5667,-6.03933 9.8467,-12.48533 12.84,-19.338 l 1.85,-4.235 h 13.34 z m -50.87,-157.141 c 7.9267,0 14.63,-2.17533 20.11,-6.526 5.7267,-4.60667 10.1667,-11.19033 13.32,-19.751 3.3133,-9.06467 4.97,-19.838 4.97,-32.32 0,-12.61667 -1.6533,-23.38433 -4.96,-32.303 -3.14,-8.52333 -7.56,-14.98267 -13.26,-19.378 -5.5133,-4.316 -12.24,-6.474 -20.18,-6.474 -8.0533,0 -14.7833,2.16733 -20.19,6.502 -5.66,4.542 -10.03,11.08233 -13.11,19.621 -3.18,8.926 -4.77,19.60333 -4.77,32.032 0,12.44067 1.5967,23.21167 4.79,32.313 3.08,8.592 7.4567,15.19567 13.13,19.811 5.44,4.31533 12.1567,6.473 20.15,6.473 z m 0,14.125 c -11.28,0 -20.9667,-3.213 -29.06,-9.639 -7.7133,-6.27267 -13.5633,-14.971 -17.55,-26.095 -3.72,-10.61467 -5.58,-22.944 -5.58,-36.988 0,-14.05533 1.8667,-26.331 5.6,-36.827 3.98,-11.03 9.8333,-19.64467 17.56,-25.844 7.9867,-6.406 17.6633,-9.609 29.03,-9.609 11.1867,0 20.79,3.139 28.81,9.417 7.8467,6.05133 13.8033,14.59967 17.87,25.645 3.9,10.50333 5.85,22.90933 5.85,37.218 0,14.15 -1.9467,26.551 -5.84,37.203 -4.06,11.008 -9.9933,19.65233 -17.8,25.933 -8.0533,6.39067 -17.6833,9.586 -28.89,9.586 z m 43.81,143.016 V 511.221 h -1.65 c -3.3133,7.57733 -8.0233,14.67667 -14.13,21.298 -6.1067,6.62067 -13.7567,11.991 -22.95,16.111 -9.1267,4.12 -19.9067,6.18 -32.34,6.18 -18.0933,0 -34.6067,-4.70833 -49.54,-14.125 -14.9333,-9.49067 -26.8167,-23.61567 -35.65,-42.375 -8.8267,-18.83333 -13.24,-42.26467 -13.24,-70.294 0,-28.986 4.6,-52.822 13.8,-71.508 9.1933,-18.686 21.2567,-32.51667 36.19,-41.492 14.9333,-9.04933 30.97,-13.574 48.11,-13.574 12.9533,0 24.0267,2.20733 33.22,6.622 9.2667,4.414 16.88,10.11533 22.84,17.104 5.96,6.91533 10.5233,14.16167 13.69,21.739 h 2.42 v -42.264 h 77.69 v 339 z m -43.81,-150.079 c 9.5667,0 17.7333,-2.685 24.5,-8.055 6.7667,-5.444 11.9533,-13.05833 15.56,-22.843 3.6067,-9.858 5.41,-21.445 5.41,-34.761 0,-13.46267 -1.8033,-25.04933 -5.41,-34.76 -3.6067,-9.78467 -8.7933,-17.28867 -15.56,-22.512 -6.7667,-5.29667 -14.9333,-7.945 -24.5,-7.945 -9.7067,0 -17.91,2.685 -24.61,8.055 -6.6933,5.37067 -11.8067,12.94833 -15.34,22.733 -3.4533,9.71067 -5.18,21.187 -5.18,34.429 0,13.24267 1.7267,24.793 5.18,34.651 3.5333,9.858 8.6467,17.509 15.34,22.953 6.7733,5.37 14.9767,8.055 24.61,8.055 z m 340.28,64.666 h -83.499 a 8.4416853,8.4416853 54.330325 0 1 -7.9979,-11.14271 l 106.7918,-316.21794 a 22.794838,22.794838 144.33033 0 1 21.5966,-15.50135 h 84.9904 a 20.358696,20.358696 35.679426 0 1 19.2906,13.85124 l 107.2697,317.98979 A 8.3515012,8.3515012 125.67943 0 1 2516.3488,558.23 H 2427.55 l -78.69,-250.811 6.74,-2.114 v 7.062 h -2.54 v -7.062 l 6.74,2.117 -78.8,250.808 z m 0,-14.124 v 7.062 l -6.74,-2.117 78.8,-250.809 h 12.91 l 78.68,250.812 -6.73,2.114 v -7.062 h 85.41 v 7.062 l -6.69,2.258 -110.91,-328.738 6.69,-2.257 v 7.062 h -105.82 v -7.062 l 6.69,2.259 -111.02,328.738 -6.69,-2.26 v -7.062 z m -11.26,-129.443 h 185.5 v 74.598 H 2257.5 v -74.598 z m 0,14.125 v -7.062 h 7.06 v 60.472 h -7.06 v -7.062 H 2443 v 7.062 h -7.06 v -60.472 h 7.06 v 7.062 z m 11.26,122.38 h -85.42 l 111.02,-328.737 h 105.82 l 110.91,328.737 h -85.41 L 2355.6,305.305 h -2.54 z M 2264.56,421.726 H 2443 v 60.472 h -178.44 z m 301.7,-206.358 h 55.4338 a 18.36616,18.36616 45 0 1 18.3662,18.36616 v 308.1161 A 16.379744,16.379744 135 0 1 2623.6803,558.23 h -60.7106 A 16.379744,16.379744 45 0 1 2546.59,541.85026 V 235.03801 a 19.670007,19.670007 135 0 1 19.67,-19.67001 z"
     id="path1"
     style="fill:#ffffff" />
  <path
     fill="#161616"
     d="M615.904 620.617L616.298 620.886C615.172 623.867 606.379 629.038 603.588 630.927C549.511 667.52 484.916 687.146 418.567 684.153C401.302 683.375 384.724 680.767 367.729 678.01C366.601 677.831 366.116 677.667 365.25 676.948C367.241 676.39 370.005 677.093 372.066 677.355C386.166 679.135 399.885 680.775 414.129 681.083C488.745 682.697 553.286 657.548 615.904 620.617L615.904 620.617Z"
     id="path2"
     style="fill:#ffffff" />
  <path
     fill="#161616"
     d="M344.186 94.0703C359.943 93.7472 374.872 95.4557 390.297 98.3707C371.921 98.8906 353.635 97.9808 335.248 99.2467C277.46 103.223 218.017 121.687 168.62 150.63C158.507 156.769 148.898 163.649 138.745 169.764C138.908 169.587 139.065 169.405 139.235 169.232C147.857 160.457 160.013 152.85 170.509 146.172C222.719 112.959 281.824 96.9718 344.186 94.0703L344.186 94.0703Z"
     id="path3"
     style="fill:#ffffff" />
  <path
     fill="#161616"
     d="m 390.895,19.0757 c 33.081,-2.6355 86.377,9.4014 117.776,19.1239 q 4.107,1.306 8.178,2.7064 4.072,1.3992 8.106,2.8917 4.035,1.4925 8.031,3.0771 3.996,1.5846 7.949,3.2601 3.954,1.6767 7.865,3.442 3.91,1.7653 7.774,3.6202 3.863,1.8551 7.679,3.7974 3.815,1.9436 7.58,3.9733 3.764,2.0298 7.477,4.1446 3.711,2.1147 7.369,4.3145 3.656,2.1997 7.257,4.4822 3.6,2.2839 7.14,4.6475 3.541,2.3651 7.019,4.8106 3.48,2.4439 6.895,4.9691 3.416,2.5228 6.766,5.1253 3.351,2.6014 6.634,5.2784 3.283,2.678 6.498,5.43 3.213,2.751 6.356,5.576 3.143,2.826 6.213,5.72 3.069,2.897 6.065,5.862 2.995,2.966 5.914,5.998 2.918,3.033 5.759,6.133 2.841,3.099 5.6,6.262 2.76,3.163 5.44,6.389 2.68,3.226 5.275,6.512 2.596,3.286 5.109,6.63 2.512,3.344 4.937,6.746 2.426,3.401 4.762,6.857 2.339,3.455 4.588,6.963 2.249,3.508 4.41,7.067 2.158,3.559 4.227,7.166 2.067,3.607 4.042,7.26 1.972,3.706 3.849,7.455 1.874,3.75 3.652,7.541 1.778,3.793 3.456,7.625 1.678,3.833 3.256,7.703 1.58,3.87 3.058,7.776 1.477,3.906 2.852,7.845 1.375,3.941 2.649,7.911 1.273,3.971 2.443,7.969 1.17,3.999 2.234,8.023 1.067,4.026 2.027,8.074 0.961,4.048 1.815,8.118 0.856,4.069 1.605,8.158 0.75,4.088 1.393,8.193 0.642,4.105 1.18,8.223 0.535,4.118 0.965,8.248 0.429,4.129 0.751,8.268 0.322,4.139 0.537,8.283 0.211,4.144 0.324,8.293 0.105,4.148 0.105,8.298 0,4.15 -0.113,8.298 -0.113,4.148 -0.326,8.292 -0.216,4.145 -0.539,8.284 -0.324,4.138 -0.755,8.268 -0.433,4.129 -0.97,8.247 -0.538,4.118 -1.184,8.222 -0.644,4.104 -1.396,8.192 -0.752,4.088 -1.609,8.158 -0.857,4.069 -1.82,8.117 -0.963,4.048 -2.03,8.072 -1.067,4.025 -2.239,8.023 -1.172,3.998 -2.447,7.968 -1.274,3.969 -2.652,7.908 c -5.111,14.723 -11.328,29.248 -19.303,42.799 -31.408,53.371 -85.233,98.473 -142.492,125.774 -77.576,36.988 -163.172,46.386 -247.381,25.781 -20.993,-5.137 -41.005,-13.23 -61.577,-19.656 16.521,9.972 33.649,18.049 51.892,24.814 q 3.52,1.324 7.075,2.562 3.554,1.24 7.14,2.396 3.586,1.156 7.201,2.226 3.616,1.071 7.256,2.057 3.643,0.985 7.31,1.883 3.668,0.9 7.356,1.712 3.689,0.813 7.398,1.538 3.71,0.725 7.437,1.362 3.727,0.638 7.469,1.187 3.744,0.549 7.5,1.01 3.756,0.461 7.523,0.834 3.767,0.372 7.542,0.655 3.776,0.284 7.559,0.479 3.78,0.194 7.566,0.3 3.786,0.105 7.573,0.121 3.789,0.015 7.575,-0.057 3.787,-0.074 7.571,-0.236 3.782,-0.163 7.561,-0.414 3.777,-0.251 7.548,-0.592 3.77,-0.341 7.531,-0.77 3.759,-0.429 7.507,-0.946 3.749,-0.519 7.481,-1.124 3.734,-0.607 7.45,-1.301 3.716,-0.692 7.412,-1.475 3.698,-0.78 7.372,-1.648 3.676,-0.868 7.326,-1.822 3.652,-0.955 7.277,-1.995 3.625,-1.039 7.221,-2.165 3.597,-1.125 7.162,-2.334 3.567,-1.21 7.1,-2.503 3.533,-1.293 7.032,-2.67 3.498,-1.375 6.958,-2.834 c 77.297,-32.063 138.898,-85.004 169.999,-160.247 -1.223,7.416 -3.678,14.969 -5.872,22.185 q -1.208,3.924 -2.525,7.815 -1.32,3.892 -2.746,7.749 -1.428,3.857 -2.963,7.677 -1.535,3.82 -3.176,7.6 -1.643,3.78 -3.39,7.516 -1.748,3.737 -3.6,7.428 -1.852,3.693 -3.806,7.335 -1.956,3.644 -4.013,7.238 -2.057,3.592 -4.213,7.132 -2.158,3.538 -4.413,7.023 -2.256,3.483 -4.609,6.91 -2.352,3.425 -4.8,6.791 -2.449,3.365 -4.991,6.666 -2.542,3.301 -5.176,6.538 -2.634,3.238 -5.357,6.405 -2.724,3.17 -5.537,6.269 -2.826,3.129 -5.735,6.192 -2.907,3.062 -5.894,6.055 -2.987,2.994 -6.05,5.916 -3.065,2.922 -6.203,5.772 -3.139,2.851 -6.351,5.626 -3.213,2.775 -6.497,5.474 -3.282,2.701 -6.635,5.322 -3.353,2.623 -6.773,5.164 -3.419,2.544 -6.905,5.006 -3.486,2.462 -7.034,4.841 -3.548,2.381 -7.157,4.676 -3.609,2.297 -7.276,4.507 -3.67,2.21 -7.393,4.334 -3.724,2.126 -7.502,4.162 -3.779,2.036 -7.609,3.985 -3.831,1.947 -7.711,3.804 -3.879,1.857 -7.807,3.624 -3.926,1.767 -7.898,3.44 -3.972,1.674 -7.987,3.254 -4.013,1.58 -8.067,3.067 -4.054,1.485 -8.147,2.876 -4.09,1.389 -8.218,2.685 -4.126,1.294 -8.285,2.491 -4.159,1.199 -8.347,2.298 -4.19,1.101 -8.406,2.102 -4.216,1.001 -8.457,1.904 -4.241,0.903 -8.505,1.706 -4.263,0.804 -8.546,1.506 -4.283,0.704 -8.582,1.306 -4.301,0.604 -8.615,1.106 -4.314,0.502 -8.641,0.903 -4.325,0.4 -8.66,0.7 c -9.972,0.263 -19.894,1.104 -29.885,1.009 q -7.341,-0.116 -14.673,-0.492 -7.332,-0.377 -14.643,-1.013 -7.313,-0.635 -14.594,-1.53 -7.28,-0.894 -14.522,-2.047 -7.241,-1.151 -14.432,-2.558 -7.191,-1.408 -14.321,-3.069 -7.13,-1.661 -14.189,-3.575 -7.06,-1.913 -14.039,-4.074 C 169.777,704.419 96.3137,639.365 52.4922,557.814 11.1298,480.839 6.52918,389.514 34.7149,307.717 c 6.6139,-19.192 15.3941,-37.942 26.965,-54.925 9.4591,-13.885 20.7407,-26.05 32.7788,-37.95 31.3423,-30.983 66.7173,-56.944 107.2363,-76.308 72.66,-34.725 160.325,-45.4532 239.567,-27.27 18.896,4.337 36.303,11.786 54.674,17.507 -5.684,-3.417 -11.359,-6.864 -17.257,-9.945 C 412.919,84.4799 331.426,79.3027 259.948,98.8606 q -3.424,0.9293 -6.828,1.9244 -3.404,0.997 -6.785,2.061 -3.38,1.063 -6.736,2.193 -3.356,1.129 -6.688,2.326 -3.331,1.196 -6.635,2.459 -3.304,1.262 -6.579,2.588 -3.276,1.327 -6.522,2.718 -3.245,1.392 -6.459,2.847 -3.214,1.456 -6.396,2.974 -3.181,1.518 -6.328,3.099 -3.148,1.582 -6.259,3.224 -3.112,1.644 -6.187,3.348 -3.075,1.704 -6.111,3.469 -3.038,1.765 -6.035,3.589 -2.998,1.824 -5.954,3.708 -2.956,1.883 -5.87,3.824 -2.915,1.941 -5.785,3.941 -2.871,1.997 -5.697,4.052 -2.827,2.056 -5.608,4.166 -2.78,2.11 -5.513,4.276 -2.734,2.163 -5.418,4.383 -2.686,2.218 -5.321,4.489 -2.636,2.272 -5.221,4.594 -2.585,2.323 -5.119,4.696 -2.533,2.374 -5.013,4.797 -2.481,2.423 -4.908,4.894 -2.426,2.471 -4.7976,4.991 -2.3719,2.519 -4.6882,5.084 -2.3155,2.565 -4.5739,5.176 -2.2591,2.61 -4.4604,5.264 -2.1998,2.656 -4.3411,5.353 -2.1427,2.698 -4.2245,5.438 C 67.261,233.738 59.5981,247.927 51.5255,261.753 65.2253,212.22 94.5511,166.287 130.545,128.474 199.061,56.4934 290.278,24.0138 390.895,19.0757 Z M 380.218,122.286 c -14.276,0.754 -28.281,1.671 -42.361,4.113 q -2.736,0.484 -5.461,1.021 -2.726,0.539 -5.437,1.128 -2.714,0.591 -5.412,1.234 -2.7,0.642 -5.384,1.338 -2.686,0.694 -5.355,1.442 -2.669,0.746 -5.322,1.545 -2.654,0.799 -5.288,1.648 -2.635,0.851 -5.25,1.752 -2.616,0.9 -5.212,1.852 -2.596,0.952 -5.17,1.953 -2.575,1.001 -5.127,2.053 -2.553,1.051 -5.082,2.153 -2.531,1.1 -5.035,2.251 -2.505,1.148 -4.985,2.347 -2.479,1.199 -4.932,2.444 -2.453,1.246 -4.88,2.54 -2.426,1.293 -4.822,2.633 -2.398,1.341 -4.765,2.727 -2.369,1.386 -4.705,2.819 -2.338,1.431 -4.643,2.909 -2.307,1.477 -4.58,2.999 -2.274,1.52 -4.515,3.086 -2.239,1.566 -4.446,3.174 -2.205,1.609 -4.376,3.26 -2.171,1.652 -4.306,3.344 -2.134,1.694 -4.231,3.427 -2.097,1.735 -4.158,3.509 -2.059,1.774 -4.08,3.588 -2.021,1.813 -4.001,3.666 -1.982,1.854 -3.923,3.744 -1.941,1.891 -3.839,3.819 -1.901,1.928 -3.758,3.893 -2.312,2.431 -4.559,4.916 -2.248,2.485 -4.429,5.022 -2.181,2.538 -4.295,5.126 -2.114,2.588 -4.159,5.226 -2.044,2.638 -4.019,5.323 -1.975,2.685 -3.878,5.416 -1.904,2.731 -3.735,5.507 -1.831,2.774 -3.589,5.592 -1.757,2.817 -3.44,5.676 -1.683,2.858 -3.289,5.755 -1.607,2.897 -3.137,5.832 -1.531,2.934 -2.981,5.904 -1.454,2.969 -2.828,5.972 -1.372,3.003 -2.667,6.037 -1.294,3.035 -2.509,6.099 -1.213,3.064 -2.346,6.156 -1.133,3.092 -2.184,6.21 -1.051,3.118 -2.018,6.26 -0.97,3.142 -1.856,6.305 -0.885,3.163 -1.687,6.347 -0.802,3.184 -1.52,6.385 -0.718,3.201 -1.351,6.419 -0.634,3.218 -1.182,6.449 -0.549,3.232 -1.012,6.476 -0.464,3.243 -0.841,6.496 -0.377,3.255 -0.668,6.516 -0.293,3.261 -0.499,6.528 -0.205,3.268 -0.326,6.538 -0.12,3.271 -0.154,6.544 -0.033,3.273 0.02,6.547 0.053,3.271 0.191,6.542 0.139,3.271 0.363,6.537 0.208,3.185 0.498,6.366 0.289,3.179 0.661,6.352 0.373,3.173 0.827,6.335 0.455,3.163 0.992,6.313 0.537,3.152 1.155,6.289 0.618,3.138 1.318,6.259 0.7,3.123 1.481,6.228 0.78,3.106 1.641,6.191 0.862,3.085 1.803,6.151 0.94,3.064 1.961,6.107 1.021,3.041 2.12,6.058 1.098,3.017 2.276,6.008 1.177,2.99 2.432,5.952 1.254,2.963 2.585,5.895 1.331,2.931 2.738,5.831 1.407,2.901 2.889,5.766 1.481,2.867 3.037,5.698 1.556,2.83 3.185,5.623 1.628,2.794 3.33,5.549 1.701,2.755 3.473,5.469 1.772,2.715 3.615,5.386 1.842,2.672 3.752,5.301 1.911,2.628 3.891,5.21 1.978,2.584 4.023,5.12 2.044,2.535 4.155,5.023 2.112,2.487 4.285,4.924 2.174,2.437 4.412,4.824 2.237,2.384 4.535,4.718 2.299,2.333 4.658,4.612 2.358,2.278 4.774,4.501 2.417,2.222 4.891,4.388 2.474,2.166 5.004,4.273 c 51.501,43.251 112.877,64.694 181.416,65.629 75.105,-2.654 141.998,-30.839 193.21,-83.248 q 2.283,-2.342 4.505,-4.737 2.222,-2.393 4.38,-4.837 2.16,-2.446 4.255,-4.939 2.095,-2.495 4.125,-5.036 2.03,-2.543 3.994,-5.131 1.964,-2.588 3.86,-5.221 1.896,-2.634 3.724,-5.311 1.829,-2.677 3.587,-5.395 1.757,-2.717 3.444,-5.474 1.687,-2.759 3.302,-5.556 1.616,-2.797 3.159,-5.629 1.542,-2.834 3.012,-5.702 1.468,-2.868 2.863,-5.769 1.394,-2.901 2.713,-5.835 1.319,-2.933 2.563,-5.894 1.241,-2.963 2.407,-5.954 1.166,-2.99 2.254,-6.007 1.089,-3.017 2.098,-6.058 1.01,-3.041 1.941,-6.104 0.932,-3.065 1.783,-6.149 0.852,-3.084 1.623,-6.187 0.772,-3.103 1.463,-6.223 0.691,-3.12 1.302,-6.255 0.61,-3.135 1.138,-6.285 0.53,-3.148 0.977,-6.307 0.447,-3.16 0.813,-6.329 0.366,-3.17 0.649,-6.347 0.284,-3.176 0.487,-6.359 0.201,-3.183 0.32,-6.368 0.119,-3.187 0.155,-6.374 0.038,-3.188 -0.009,-6.377 -0.044,-3.187 -0.173,-6.373 -0.112,-3.3 -0.312,-6.597 -0.2,-3.296 -0.486,-6.587 -0.287,-3.291 -0.661,-6.573 -0.373,-3.282 -0.833,-6.556 -0.461,-3.272 -1.008,-6.533 -0.547,-3.261 -1.178,-6.509 -0.634,-3.245 -1.352,-6.477 -0.717,-3.231 -1.521,-6.443 -0.803,-3.214 -1.692,-6.406 -0.888,-3.192 -1.861,-6.364 -0.972,-3.17 -2.028,-6.316 -1.055,-3.146 -2.194,-6.267 -1.139,-3.121 -2.36,-6.213 -1.22,-3.093 -2.522,-6.154 -1.302,-3.063 -2.685,-6.093 -1.383,-3.032 -2.844,-6.028 -1.462,-2.997 -3.004,-5.959 -1.541,-2.961 -3.16,-5.884 -1.618,-2.924 -3.314,-5.807 -1.695,-2.885 -3.467,-5.728 -1.772,-2.844 -3.618,-5.643 -1.846,-2.8 -3.764,-5.556 -1.92,-2.756 -3.912,-5.465 -1.991,-2.708 -4.054,-5.369 -2.063,-2.661 -4.194,-5.272 -2.133,-2.61 -4.333,-5.17 -2.201,-2.561 -4.469,-5.067 -2.267,-2.505 -4.601,-4.958 -2.333,-2.451 -4.73,-4.847 -2.396,-2.396 -4.856,-4.734 -2.46,-2.338 -4.981,-4.617 -2.521,-2.278 -5.101,-4.498 c -48.206,-42.147 -116.604,-68.202 -182.582,-65.986 -0.211,0.008 -0.423,0.019 -0.634,0.028 z M 23.2301,410.519 c -1.2408,8.699 -0.4024,18.135 0.2978,26.877 4.5881,57.358 34.087,115.403 70.4349,160.691 20.4582,25.489 62.8992,67.454 92.5542,82.132 -0.217,-0.29 -0.428,-0.586 -0.651,-0.871 -4.8,-6.13 -13.963,-10.972 -20.333,-15.679 -5.094,-3.764 -9.746,-7.729 -14.329,-12.034 C 110.219,613.139 73.739,567.878 52.0936,516.831 44.9141,499.898 38.7837,482.147 34.6875,464.308 c -1.6132,-7.032 -9.0817,-51.444 -10.9628,-53.404 -0.1433,-0.15 -0.3301,-0.256 -0.4946,-0.385 z M 566.688,84.2974 c 12.127,8.6256 24.581,16.7596 36.335,25.8576 q 3.964,3.019 7.841,6.136 3.88,3.115 7.672,6.326 3.792,3.209 7.496,6.512 3.702,3.303 7.315,6.694 3.611,3.392 7.128,6.872 3.518,3.479 6.94,7.044 3.421,3.565 6.744,7.213 3.324,3.647 6.545,7.376 3.222,3.727 6.341,7.533 3.12,3.806 6.133,7.687 3.014,3.881 5.921,7.836 2.907,3.954 5.705,7.978 2.796,4.023 5.484,8.115 2.687,4.091 5.261,8.248 2.573,4.156 5.034,8.374 2.459,4.217 4.802,8.494 c 16.218,29.85 28.668,63.892 34.827,96.963 0.734,3.942 3.839,26.882 6.467,28.695 -1.114,-14.719 -1.96,-29.384 -4.803,-43.92 C 727.547,237.11 683.797,170.975 624.677,122.559 613.002,112.997 580.084,88.0321 566.688,84.2974 Z M 74.0043,523.862 c 26.8387,77.184 97.1257,145.309 172.7507,181.428 11.347,5.418 37.289,18.183 49.469,18.317 l -0.694,-0.421 C 280.058,713.965 262.376,708.145 246.438,699.587 192.725,670.749 144.154,631.159 108.833,582.94 99.4391,570.117 91.6421,556.803 84.5122,542.75 82.1156,538.026 77.7678,526.783 74.0043,523.862 Z M 468.992,50.6497 c 14.119,6.6879 28.878,12.0381 42.963,18.8535 q 7.151,3.5282 14.156,7.3112 7.005,3.7821 13.855,7.8135 6.849,4.0323 13.532,8.3064 6.683,4.2749 13.19,8.7847 6.507,4.513 12.83,9.254 6.322,4.741 12.452,9.708 6.127,4.965 12.053,10.146 5.926,5.182 11.64,10.573 c 24.686,23.306 47.505,49.761 64.798,78.484 3.003,4.988 16.206,32.126 18.634,33.417 -6.53,-18.46 -16.284,-35.117 -27.045,-51.629 C 636.093,146.496 585.36,99.1739 523.736,70.1031 510.276,63.7528 483.4,51.2826 468.992,50.6497 Z"
     id="path4"
     style="fill:#ffffff" />
  <path
     fill="#161616"
     d="M376.977 195.382C424.979 192.621 473.669 211.151 510.122 240.446C551.671 273.837 576.092 322.231 580.626 373.625C585.069 424.006 565.942 473.1 532.153 511.354Q529.591 514.263 526.905 517.069Q524.22 519.876 521.417 522.574Q518.613 525.272 515.697 527.859Q512.78 530.445 509.756 532.914Q506.731 535.385 503.602 537.735Q500.475 540.084 497.249 542.308Q494.024 544.533 490.705 546.629Q487.386 548.725 483.981 550.69Q480.574 552.655 477.087 554.483Q473.601 556.313 470.039 558.004Q466.477 559.695 462.844 561.244Q459.213 562.795 455.518 564.201Q451.823 565.607 448.071 566.868Q444.319 568.128 440.515 569.24Q436.713 570.352 432.864 571.313Q429.018 572.276 425.132 573.086C414.578 575.248 403.964 576.152 393.233 577.014C342.795 578.333 298.244 564.825 259.388 533.525Q257.471 531.977 255.595 530.385Q253.721 528.793 251.885 527.158Q250.051 525.522 248.259 523.845Q246.468 522.166 244.719 520.447Q242.97 518.728 241.266 516.967Q239.563 515.207 237.904 513.408Q236.246 511.608 234.634 509.771Q233.022 507.933 231.458 506.058Q229.894 504.183 228.379 502.271Q226.863 500.361 225.397 498.414Q223.93 496.468 222.515 494.488Q221.099 492.509 219.734 490.495Q218.369 488.482 217.056 486.44Q215.744 484.395 214.483 482.32Q213.224 480.246 212.017 478.144Q210.811 476.04 209.659 473.91Q208.506 471.779 207.408 469.622Q206.311 467.465 205.269 465.282Q204.228 463.101 203.242 460.895Q202.257 458.689 201.328 456.46Q200.4 454.232 199.529 451.982Q198.657 449.733 197.844 447.464Q197.03 445.194 196.275 442.907Q195.52 440.619 194.823 438.314Q194.128 436.009 193.491 433.689Q192.854 431.369 192.276 429.034Q191.699 426.699 191.183 424.353Q190.664 422.005 190.208 419.646Q189.751 417.287 189.353 414.919Q188.957 412.549 188.622 410.173Q188.286 407.795 188.012 405.41Q187.736 403.025 187.524 400.635C183.063 348.084 202.697 297.056 238.2 257.307Q240.557 254.672 243.021 252.127Q245.484 249.583 248.05 247.133Q250.616 244.684 253.282 242.334Q255.948 239.983 258.707 237.735Q261.468 235.487 264.319 233.345Q267.17 231.203 270.107 229.17Q273.043 227.138 276.062 225.217Q279.082 223.297 282.176 221.492Q285.272 219.687 288.441 218Q291.608 216.314 294.842 214.749Q298.078 213.183 301.374 211.74Q304.67 210.299 308.024 208.982Q311.378 207.665 314.783 206.477Q318.19 205.287 321.641 204.229Q325.092 203.17 328.586 202.241Q332.078 201.312 335.606 200.517C349.278 197.556 363.034 196.438 376.977 195.382L376.977 195.382ZM379.46 299.175C353.836 301.46 330.196 310.702 313.568 330.064C296.884 349.492 290.356 372.547 292.999 397.444Q293.218 399.568 293.547 401.682Q293.877 403.794 294.316 405.888Q294.754 407.982 295.301 410.053Q295.848 412.124 296.502 414.166Q297.156 416.207 297.916 418.217Q298.675 420.225 299.538 422.195Q300.401 424.164 301.364 426.091Q302.328 428.018 303.392 429.895Q304.455 431.774 305.615 433.599Q306.773 435.424 308.026 437.192Q309.279 438.959 310.621 440.666Q311.965 442.371 313.396 444.012Q314.825 445.652 316.339 447.222Q317.852 448.792 319.445 450.289Q321.039 451.784 322.708 453.202Q324.378 454.621 326.118 455.958C343.156 469.236 364.169 476.996 386.297 476.088Q388.595 475.984 390.885 475.774Q393.176 475.565 395.451 475.248Q397.729 474.931 399.986 474.508Q402.245 474.085 404.479 473.556Q406.712 473.028 408.916 472.396Q411.12 471.765 413.29 471.032Q415.459 470.298 417.588 469.463Q419.717 468.63 421.801 467.697Q423.885 466.765 425.919 465.736Q427.954 464.708 429.934 463.585Q431.912 462.462 433.831 461.249Q435.751 460.035 437.606 458.734Q439.462 457.431 441.249 456.045Q443.036 454.657 444.749 453.189Q446.464 451.721 448.101 450.174Q449.738 448.627 451.294 447.006Q452.074 446.196 452.833 445.366Q453.591 444.536 454.328 443.69Q455.065 442.842 455.778 441.977Q456.492 441.113 457.184 440.231Q457.875 439.349 458.543 438.452Q459.21 437.553 459.853 436.639Q460.497 435.726 461.116 434.796Q461.737 433.867 462.331 432.924Q462.926 431.979 463.496 431.022Q464.065 430.064 464.61 429.093Q465.155 428.122 465.672 427.137Q466.191 426.152 466.684 425.158Q467.176 424.161 467.642 423.152Q468.108 422.146 468.547 421.127Q468.988 420.107 469.4 419.079Q469.812 418.049 470.197 417.011Q470.582 415.973 470.94 414.925Q471.297 413.878 471.627 412.821Q471.958 411.766 472.259 410.703Q472.562 409.638 472.836 408.567Q473.11 407.498 473.355 406.421Q473.601 405.344 473.817 404.261Q474.036 403.179 474.224 402.092Q474.411 401.005 474.572 399.913Q474.732 398.823 474.863 397.728Q474.994 396.632 475.097 395.535Q475.199 394.438 475.272 393.338Q475.344 392.237 475.39 391.137Q475.433 390.035 475.448 388.934Q475.465 387.831 475.45 386.729Q475.435 385.627 475.393 384.526Q475.351 383.424 475.278 382.325Q475.157 380.104 474.924 377.892Q474.689 375.68 474.342 373.482Q473.994 371.283 473.535 369.104Q473.075 366.924 472.503 364.77Q471.932 362.614 471.251 360.488Q470.571 358.363 469.781 356.271Q468.992 354.179 468.097 352.128Q467.201 350.077 466.202 348.07Q465.201 346.062 464.101 344.104Q462.999 342.146 461.799 340.243Q460.599 338.339 459.303 336.493Q458.006 334.648 456.615 332.866Q455.227 331.084 453.747 329.369Q452.268 327.655 450.702 326.012Q449.136 324.369 447.489 322.801Q445.841 321.233 444.114 319.744C427.479 305.6 405.273 297.539 382.947 298.916Q381.201 299.026 379.459 299.175L379.46 299.175Z"
     id="path5"
     style="fill:#ffffff" />
</svg>
