<?xml version="1.0" encoding="UTF-8" standalone="no"?>
<svg
   width="1028"
   height="1028"
   version="1.1"
   id="svg4"
   sodipodi:docname="logo.svg"
   inkscape:version="1.3.2 (091e20e, 2023-11-25)"
   xmlns:inkscape="http://www.inkscape.org/namespaces/inkscape"
   xmlns:sodipodi="http://sodipodi.sourceforge.net/DTD/sodipodi-0.dtd"
   xmlns="http://www.w3.org/2000/svg"
   xmlns:svg="http://www.w3.org/2000/svg">
  <defs
     id="defs4" />
  <sodipodi:namedview
     id="namedview4"
     pagecolor="#ffffff"
     bordercolor="#000000"
     borderopacity="0.25"
     inkscape:showpageshadow="2"
     inkscape:pageopacity="0.0"
     inkscape:pagecheckerboard="0"
     inkscape:deskcolor="#d1d1d1"
     showguides="true"
     inkscape:zoom="0.41456546"
     inkscape:cx="439.01391"
     inkscape:cy="202.6218"
     inkscape:window-width="1512"
     inkscape:window-height="945"
     inkscape:window-x="0"
     inkscape:window-y="37"
     inkscape:window-maximized="0"
     inkscape:current-layer="svg4">
    <sodipodi:guide
       position="24.121643,1387.4125"
       orientation="1,0"
       id="guide4"
       inkscape:locked="false" />
    <sodipodi:guide
       position="998.63603,892.9188"
       orientation="1,0"
       id="guide5"
       inkscape:locked="false" />
    <sodipodi:guide
       position="-250.86509,1001.4662"
       orientation="0,-1"
       id="guide6"
       inkscape:locked="false" />
    <sodipodi:guide
       position="-168.8515,29.363974"
       orientation="0,-1"
       id="guide7"
       inkscape:locked="false" />
  </sodipodi:namedview>
  <path
     fill="#161616"
     d="m 819.7854,826.05782 0.52399,0.35853 c -1.49899,3.96768 -13.20231,10.84962 -16.91827,13.36412 -71.97764,48.70505 -157.95518,74.82885 -246.26739,70.8453 -22.98051,-1.03595 -45.04571,-4.50705 -67.66642,-8.17646 -1.50229,-0.23797 -2.14732,-0.4569 -3.29975,-1.41352 2.64976,-0.74245 6.32921,0.19355 9.07183,0.54098 18.7671,2.37012 37.02848,4.55306 55.98794,4.96236 99.31582,2.14802 185.22039,-31.32569 268.56807,-80.48131 z"
     id="path1"
     style="stroke-width:1.62191" />
  <path
     fill="#161616"
     d="m 458.12131,125.21009 c 20.97247,-0.42992 40.84393,1.84343 61.37366,5.72385 -24.45793,0.69168 -48.79813,-0.51877 -73.27102,1.16603 -76.9173,5.29233 -156.03832,29.86936 -221.78624,68.39269 -13.46099,8.17171 -26.2504,17.32859 -39.76446,25.46857 0.21722,-0.23636 0.42614,-0.47909 0.65168,-0.70914 11.47615,-11.6793 27.65652,-21.8055 41.62655,-30.69269 69.49373,-44.20753 148.16373,-65.48792 231.16983,-69.34931 z"
     id="path2"
     style="stroke-width:1.62191" />
  <path
     fill="#161616"
     d="m 520.2909,25.390328 c 44.03258,-3.507914 114.97055,12.513446 156.7646,25.454382 q 5.46533,1.738241 10.88421,3.602213 5.42054,1.862401 10.78968,3.848963 5.37079,1.986559 10.68852,4.095707 5.31941,2.109151 10.58076,4.339316 5.26301,2.231738 10.46801,4.58135 5.20497,2.34961 10.34693,4.818667 5.14364,2.469055 10.22093,5.054413 5.07897,2.58693 10.08995,5.288589 5.01097,2.701662 9.95231,5.516478 4.93966,2.814819 9.80804,5.742798 4.86672,2.927976 9.65882,5.965966 4.79209,3.03957 9.5046,6.186 4.71251,3.148 9.3421,6.40288 4.63125,3.2533 9.17795,6.6135 4.54669,3.35861 9.0055,6.82251 4.46046,3.46233 8.82973,7.02527 4.37091,3.56448 8.64899,7.22798 4.27641,3.66195 8.45996,7.42133 4.18355,3.76094 8.26926,7.61461 4.08571,3.85526 8.07362,7.80166 3.98622,3.94798 7.8713,7.98397 3.88343,4.03755 7.66569,8.16314 3.78064,4.12399 7.45348,8.33441 3.67447,4.21046 7.24118,8.5042 3.56675,4.29372 7.02069,8.66761 3.45561,4.37391 6.80013,8.82482 3.34286,4.45089 6.57131,8.97879 3.22845,4.52636 6.33917,9.12656 3.11238,4.59863 6.10702,9.268 2.993,4.66936 5.86826,9.4063 2.8736,4.73693 5.62614,9.53832 2.7509,4.80137 5.38075,9.66405 2.62488,4.93183 5.12208,9.92182 2.49553,4.99153 4.86173,10.0381 2.3662,5.04813 4.59976,10.14811 2.23355,5.10156 4.33444,10.2534 2.10256,5.15187 4.06912,10.35089 1.96655,5.199 3.79719,10.442 1.83064,5.24459 3.52527,10.52846 1.69463,5.28545 3.25169,10.60703 1.55697,5.32318 2.97471,10.67934 1.4194,5.35775 2.69782,10.74692 1.27852,5.38761 2.41596,10.80507 1.1392,5.4159 2.13577,10.85851 0.99812,5.44104 1.85381,10.90407 0.85569,5.46463 1.5703,10.94653 0.71296,5.48033 1.28504,10.97795 0.57043,5.49604 0.99988,11.00468 0.4278,5.5086 0.71294,11.02507 0.2853,5.51649 0.4279,11.03768 0.1409,5.52119 0.1409,11.04553 0,5.52276 -0.1477,11.04396 -0.1442,5.52118 -0.43276,11.03767 -0.28692,5.51646 -0.71802,11.0251 -0.43111,5.50861 -1.00485,11.00467 -0.57539,5.49605 -1.29166,10.97795 -0.71627,5.48031 -1.57527,10.94336 -0.85724,5.46304 -1.85878,10.90408 -0.99987,5.44105 -2.14072,10.85851 -1.14086,5.41588 -2.42259,10.80348 -1.28173,5.38919 -2.70113,10.74536 -1.42105,5.35618 -2.98142,10.67777 -1.55862,5.32159 -3.25656,10.60546 -1.69639,5.28388 -3.53024,10.52688 c -6.8035,19.59688 -15.07775,38.92811 -25.6933,56.96589 C 909.01777,744.7548 837.3751,804.78697 761.16249,841.125 657.90687,890.3568 543.97601,902.86555 431.8923,875.44031 c -27.94338,-6.83822 -54.58015,-17.61029 -81.96146,-26.16318 21.99061,13.27254 44.78706,24.02418 69.06923,33.02814 q 4.68599,1.76181 9.41671,3.41046 4.73076,1.65023 9.50463,3.18888 4.77218,1.53866 9.58419,2.96256 4.81199,1.42548 9.6588,2.7378 4.84848,1.31076 9.72846,2.50677 4.88163,1.1976 9.79147,2.27889 4.90983,1.0813 9.84784,2.0463 4.93637,0.96498 9.89759,1.81368 4.96124,0.84868 9.94236,1.57949 4.98278,0.73082 9.98216,1.34533 4.99936,0.61294 10.01367,1.10958 5.01263,0.49508 10.03853,0.87226 5.02589,0.37719 10.06009,0.63653 5.03252,0.25931 10.0717,0.39918 5.03915,0.13997 10.07998,0.16188 5.04248,0.0206 10.08164,-0.077 5.04083,-0.0974 10.07667,-0.31276 5.03586,-0.21689 10.06505,-0.55164 5.02757,-0.33476 10.04684,-0.7874 5.01761,-0.4542 10.02361,-1.02472 5.00434,-0.57206 9.9921,-1.26044 4.98942,-0.68997 9.95728,-1.4962 4.96952,-0.80626 9.91583,-1.7304 4.94631,-0.92255 9.8661,-1.96297 4.92142,-1.03889 9.81301,-2.19402 4.89158,-1.15515 9.75001,-2.42506 4.86009,-1.27147 9.68535,-2.65609 4.82524,-1.38304 9.61238,-2.88082 4.78713,-1.49778 9.5328,-3.10715 4.74733,-1.61093 9.44987,-3.33189 4.70256,-1.72095 9.3587,-3.55349 4.65612,-1.83096 9.2625,-3.77194 c 102.88419,-42.6765 184.87715,-113.1428 226.27325,-213.29284 -1.62833,9.86994 -4.89655,19.92377 -7.81494,29.5281 q -1.60843,5.22257 -3.36275,10.40272 -1.75601,5.18016 -3.65459,10.31472 -1.90027,5.133 -3.94313,10.21726 -2.04287,5.08427 -4.22832,10.1167 -2.18545,5.03086 -4.51187,10.00353 -2.32641,4.97425 -4.79044,9.88722 -2.4657,4.91453 -5.06735,9.76307 -2.60332,4.85009 -5.34095,9.63262 -2.73762,4.78095 -5.60791,9.49273 -2.87195,4.71023 -5.87323,9.34816 -3.00293,4.63636 -6.13522,9.19727 -3.1306,4.55935 -6.3889,9.03855 -3.25996,4.47917 -6.64262,8.8735 -3.38265,4.39433 -6.88967,8.7022 -3.50536,4.30947 -7.13011,8.5262 -3.62641,4.21829 -7.36888,8.34386 -3.76237,4.16487 -7.63419,8.24172 -3.87017,4.07528 -7.84479,8.05939 -3.97628,3.98413 -8.0537,7.87395 -4.0791,3.88982 -8.25601,7.68221 -4.17858,3.79397 -8.45332,7.48889 -4.27643,3.69336 -8.64736,7.28616 -4.36926,3.59435 -8.83137,7.0834 -4.46379,3.49063 -9.01546,6.87439 -4.55165,3.3853 -9.19119,6.6622 -4.63956,3.27689 -9.36202,6.44375 -4.72243,3.16845 -9.52615,6.22371 -4.8037,3.05686 -9.68535,5.99899 -4.88329,2.94213 -9.83955,5.76951 -4.95625,2.82897 -9.98548,5.53848 -5.02921,2.71109 -10.12806,5.30431 -5.09885,2.59163 -10.26239,5.06384 -5.16352,2.47219 -10.39171,4.82338 -5.22656,2.35118 -10.51277,4.57821 -5.28624,2.22859 -10.63051,4.33146 -5.34261,2.10282 -10.73827,4.08153 -5.39568,1.9771 -10.84275,3.8285 -5.44542,1.84988 -10.93892,3.57389 -5.49183,1.72256 -11.0268,3.31614 -5.53661,1.59534 -11.11136,3.0584 -5.57641,1.4649 -11.18764,2.79773 -5.61288,1.33263 -11.25729,2.53494 -5.6444,1.20074 -11.32029,2.26961 -5.67424,1.07032 -11.37503,2.00536 -5.70076,0.93678 -11.42308,1.73819 -5.724,0.80315 -11.46622,1.47112 -5.74223,0.66797 -11.50104,1.2024 -5.75714,0.53269 -11.52757,0.93183 c -13.27196,0.3505 -26.47924,1.46948 -39.77772,1.34371 q -9.77157,-0.15548 -19.52988,-0.65534 -9.7583,-0.50122 -19.49007,-1.34847 -9.73343,-0.84549 -19.4254,-2.03682 -9.69031,-1.18968 -19.32923,-2.72373 -9.63727,-1.53211 -19.2082,-3.40559 -9.57091,-1.87347 -19.06228,-4.08491 -9.48966,-2.21115 -18.88648,-4.75726 -9.39683,-2.54601 -18.68586,-5.42367 C 225.97815,937.60048 128.19614,851.01222 69.868518,742.4649 14.814112,640.0093 8.6905066,518.45346 46.206499,409.57924 c 8.8032,-25.54396 20.489948,-50.50171 35.890988,-73.10668 12.590449,-18.481 27.606803,-34.67211 43.629653,-50.51115 41.71778,-41.24001 88.80305,-75.79421 142.73487,-101.5692 96.7125,-46.22055 213.39593,-60.49896 318.86852,-36.29718 25.1527,5.77266 48.32059,15.68817 72.77355,23.3028 -7.56621,-4.54835 -15.11915,-9.13599 -22.97057,-13.2364 -87.5279,-45.71604 -195.99679,-52.60772 -291.1357,-26.57498 q -4.55829,1.23689 -9.08839,2.5618 -4.53013,1.32646 -9.03038,2.74253 -4.49861,1.41447 -8.96735,2.91853 -4.4671,1.50408 -8.90104,3.09615 -4.43393,1.59209 -8.83138,3.27217 -4.39746,1.68008 -8.75679,3.44504 -4.36095,1.76654 -8.68048,3.61794 -4.31953,1.85297 -8.59759,3.78922 -4.27807,1.93786 -8.51301,3.95899 -4.23496,2.02113 -8.42348,4.12557 -4.18852,2.10443 -8.33063,4.2906 -4.14209,2.18772 -8.23444,4.45561 -4.09402,2.26944 -8.13497,4.61749 -4.04261,2.34963 -8.03216,4.77782 -3.98953,2.42819 -7.92436,4.93497 -3.93483,2.50676 -7.81327,5.09056 -3.88013,2.58377 -7.70054,5.24458 -3.82206,2.65922 -7.58279,5.39389 -3.76238,2.73622 -7.46339,5.54477 -3.70103,2.80853 -7.33904,5.69092 -3.63801,2.88084 -7.21136,5.83395 -3.57501,2.95312 -7.08203,5.97539 -3.50868,3.02386 -6.94936,6.11528 -3.44069,3.09144 -6.81341,6.25044 -3.37106,3.15901 -6.67246,6.38404 -3.30306,3.22502 -6.53317,6.51447 -3.22844,3.28945 -6.38559,6.64334 -3.15715,3.35232 -6.23967,6.76752 -3.08254,3.41362 -6.08878,6.88852 -3.00628,3.4749 -5.93625,7.00798 -2.92831,3.53462 -5.7787,7.12425 -2.85204,3.59123 -5.62284,7.23744 C 89.526069,311.11089 79.326692,329.99737 68.581781,348.39978 86.816626,282.47079 125.84984,221.33217 173.75922,171.00178 264.95499,75.194224 386.36751,31.962953 520.2909,25.390328 Z M 506.08043,162.76635 c -19.00258,1.00271 -37.64201,2.22388 -56.38427,5.47404 q -3.64133,0.64437 -7.26774,1.35948 -3.62806,0.71667 -7.23788,1.50093 -3.6115,0.78581 -7.20307,1.64235 -3.59325,0.855 -7.1666,1.78068 -3.57501,0.92413 -7.12679,1.91899 -3.55344,0.99328 -7.0837,2.0573 -3.53188,1.06241 -7.03889,2.19399 -3.50703,1.13159 -6.98751,2.33075 -3.48214,1.19919 -6.93778,2.46593 -3.45561,1.26674 -6.88138,2.5995 -3.42743,1.33275 -6.825,2.73307 -3.39759,1.39879 -6.76366,2.86512 -3.36773,1.46479 -6.70064,2.99557 -3.33457,1.52922 -6.63598,3.12444 -3.29975,1.59521 -6.56469,3.25329 -3.26492,1.6581 -6.49502,3.38061 -3.22846,1.72095 -6.41877,3.50477 -3.19197,1.78382 -6.34246,3.62895 -3.15219,1.8451 -6.2629,3.7515 -3.11072,1.90643 -6.17999,3.87254 -3.06925,1.96614 -6.09542,3.992 -3.02614,2.02427 -6.00919,4.10827 -2.98137,2.08399 -5.91798,4.22458 -2.93495,2.14058 -5.82515,4.33931 -2.88851,2.19718 -5.73061,4.4509 -2.84045,2.25377 -5.63278,4.56092 -2.79069,2.30877 -5.53331,4.66936 -2.74094,2.36219 -5.43049,4.77624 -2.68954,2.41405 -5.32604,4.87996 -2.63813,2.46749 -5.22155,4.98368 -2.58343,2.51621 -5.11046,5.08272 -2.5287,2.56649 -5.00103,5.18171 -3.07756,3.23602 -6.06888,6.54434 -2.99134,3.30675 -5.89478,6.68422 -2.90345,3.37746 -5.71571,6.8225 -2.81391,3.44505 -5.53661,6.95611 -2.72104,3.51106 -5.34923,7.08499 -2.6282,3.57392 -5.16187,7.20757 -2.53368,3.63521 -4.97117,7.33014 -2.43751,3.69338 -4.7772,7.44333 -2.33799,3.74994 -4.57817,7.55491 -2.24021,3.80494 -4.37757,7.66018 -2.13904,3.85683 -4.17525,7.76236 -2.0379,3.90556 -3.96965,7.85824 -1.93343,3.9527 -3.76238,7.9494 -1.82731,3.99668 -3.55014,8.03583 -1.72283,4.03911 -3.33954,8.11755 -1.61505,4.07841 -3.12233,8.19457 -1.50893,4.11454 -2.90676,8.26529 -1.39949,4.14912 -2.68788,8.33126 -1.29006,4.18217 -2.46901,8.3926 -1.17896,4.21045 -2.24515,8.44762 -1.06787,4.23874 -2.02297,8.49946 -0.95676,4.26073 -1.79913,8.54345 -0.84399,4.28276 -1.57358,8.58436 -0.7296,4.30158 -1.34643,8.61889 -0.61684,4.31731 -1.11926,8.64719 -0.50243,4.33147 -0.89043,8.67236 -0.38968,4.34088 -0.66328,8.68962 -0.2736,4.34874 -0.43278,8.70222 -0.16084,4.35345 -0.2056,8.71004 -0.0447,4.35661 0.0266,8.71321 0.0696,4.35505 0.25371,8.70851 0.18571,4.35344 0.48418,8.70062 0.27526,4.2403 0.66161,8.47274 0.38469,4.23245 0.88048,8.45546 0.4958,4.22303 1.10102,8.43187 0.60524,4.21044 1.31991,8.4036 0.71466,4.19473 1.53711,8.3706 0.82245,4.17585 1.75435,8.3313 0.93188,4.15698 1.97155,8.28885 1.03802,4.13343 2.1838,8.24014 1.14746,4.10672 2.39937,8.18671 1.25192,4.07842 2.60995,8.12855 1.35971,4.04856 2.8222,8.06413 1.4625,4.01556 3.02947,7.99653 1.56697,3.97939 3.23674,7.92267 1.66977,3.94326 3.44069,7.84565 1.7726,3.90241 3.64464,7.76237 1.87375,3.85995 3.8453,7.67434 1.97157,3.81597 4.0426,7.5832 2.07104,3.76722 4.23994,7.48574 2.16722,3.71851 4.43227,7.38518 2.2634,3.66665 4.62296,7.27986 2.35791,3.61321 4.81034,7.16827 2.45244,3.55663 4.99441,7.05512 2.54362,3.49849 5.17843,6.93569 2.63318,3.43875 5.35588,6.81465 2.72106,3.37433 5.52999,6.68577 2.81059,3.3099 5.70408,6.55377 2.89349,3.24388 5.87157,6.42017 2.97807,3.17473 6.03737,6.28031 3.05933,3.10557 6.19823,6.13885 3.13891,3.0317 6.35575,5.9911 3.21683,2.95785 6.50997,5.84024 3.29311,2.88241 6.65918,5.6878 c 68.55021,57.56783 150.24305,86.1105 241.47032,87.35366 99.96748,-3.53307 189.00267,-41.04667 257.16817,-110.80577 q 3.03778,-3.11657 5.99593,-6.30388 2.95652,-3.18572 5.83012,-6.43902 2.87359,-3.25488 5.66263,-6.57422 2.78904,-3.31929 5.4902,-6.70307 2.70281,-3.38373 5.31607,-6.82879 2.61493,-3.44505 5.13866,-6.94983 2.52373,-3.50474 4.95626,-7.06769 2.43419,-3.56291 4.77384,-7.18082 2.33968,-3.61794 4.58483,-7.28774 2.24515,-3.67137 4.39581,-7.39459 2.15063,-3.72166 4.20345,-7.49205 2.05279,-3.77194 4.00944,-7.58946 1.95498,-3.81755 3.81045,-7.67909 1.8555,-3.86153 3.61149,-7.76547 1.75599,-3.90399 3.41085,-7.84567 1.65319,-3.94485 3.20523,-7.92426 1.55205,-3.98097 2.99963,-7.99652 1.44922,-4.01557 2.79235,-8.06255 1.34477,-4.04856 2.58342,-8.12541 1.24029,-4.07842 2.37282,-8.18356 1.1342,-4.10515 2.16059,-8.23543 1.02641,-4.13029 1.9467,-8.28415 0.92028,-4.15228 1.73276,-8.325 0.81251,-4.17272 1.51558,-8.36431 0.70472,-4.19002 1.3,-8.39573 0.59528,-4.20572 1.0828,-8.42404 0.48749,-4.21987 0.86388,-8.44759 0.37806,-4.22772 0.6467,-8.46488 0.26862,-4.23559 0.42614,-8.47589 0.15922,-4.24187 0.20727,-8.48374 0.0496,-4.24344 -0.0116,-8.48689 -0.0596,-4.24345 -0.23049,-8.48375 -0.14914,-4.39274 -0.4162,-8.78079 -0.2653,-4.38646 -0.64668,-8.76664 -0.38136,-4.38018 -0.87883,-8.74935 -0.49744,-4.36917 -1.10929,-8.7258 -0.61354,-4.35658 -1.34147,-8.69589 -0.72794,-4.3409 -1.56863,-8.66292 -0.84234,-4.32046 -1.79911,-8.62206 -0.9551,-4.30002 -2.02461,-8.57648 -1.06952,-4.27643 -2.25178,-8.52616 -1.18229,-4.24817 -2.47731,-8.4696 -1.29337,-4.21988 -2.69949,-8.40676 -1.40447,-4.18842 -2.92003,-8.34228 -1.51558,-4.15385 -3.14057,-8.27002 -1.625,-4.11614 -3.35779,-8.19139 -1.73278,-4.07688 -3.57333,-8.10971 -1.84056,-4.03441 -3.7856,-8.02324 -1.94668,-3.98885 -3.99785,-7.93055 -2.05113,-3.94169 -4.20675,-7.83308 -2.15397,-3.89139 -4.41073,-7.72937 -2.25676,-3.83951 -4.61467,-7.62404 -2.35791,-3.78452 -4.8153,-7.51089 -2.45741,-3.72638 -5.01098,-7.39459 -2.55523,-3.66823 -5.20664,-7.27359 -2.64976,-3.60536 -5.39568,-7.14627 -2.74592,-3.54249 -5.58304,-7.01741 -2.83878,-3.47489 -5.76709,-6.88224 -2.92998,-3.40733 -5.94785,-6.74394 -3.01786,-3.33503 -6.1236,-6.59933 -3.10575,-3.26273 -6.29607,-6.45161 -3.19029,-3.18886 -6.46351,-6.30071 -3.27488,-3.11187 -6.62935,-6.14515 -3.35612,-3.03329 -6.79018,-5.9864 C 685.78416,194.4586 594.74426,159.77865 506.92616,162.72862 c -0.28189,0.01 -0.56377,0.0252 -0.84565,0.0378 z M 30.919871,546.41147 c -1.651532,11.57834 -0.535587,24.13891 0.396303,35.77382 6.107022,76.34428 45.370719,153.60483 93.751016,213.88375 27.23038,33.92712 83.72076,89.78342 123.19174,109.32057 -0.28852,-0.38663 -0.56876,-0.77954 -0.86557,-1.15988 -6.39056,-8.15841 -18.58637,-14.60374 -27.06457,-20.86831 -6.78025,-5.01043 -12.97184,-10.28799 -19.07224,-16.01822 C 146.70458,816.10439 98.148531,755.86003 69.337904,687.91464 59.781897,665.37723 51.622066,641.75068 46.170019,618.00626 44.022694,608.6471 34.081994,549.53276 31.578163,546.92381 c -0.190688,-0.19957 -0.439414,-0.34102 -0.658292,-0.51234 z M 754.27627,112.20178 c 16.14223,11.48086 32.71726,22.30794 48.36371,34.41747 q 5.27462,4.01869 10.43649,8.16629 5.16352,4.14757 10.21098,8.42088 5.04745,4.27173 9.97719,8.66762 4.92807,4.3959 9.73675,8.90966 4.80701,4.51534 9.48801,9.14697 4.68266,4.63166 9.23765,9.37645 4.55331,4.7448 8.97564,9.5996 4.42398,4.85485 8.712,9.8181 4.28803,4.96167 8.44006,10.02709 4.15205,5.06543 8.16315,10.23143 4.01111,5.16599 7.88125,10.42944 3.86852,5.26344 7.59274,10.61962 3.72259,5.35458 7.29925,10.80035 3.57666,5.44574 7.00243,10.97795 3.42577,5.5322 6.70065,11.14611 3.27322,5.61392 6.39222,11.3064 c 21.58601,39.73125 38.15771,85.04178 46.35563,129.06046 0.9768,5.24616 5.11047,35.78009 8.60761,38.19415 -1.48239,-19.59216 -2.60825,-39.112 -6.39386,-58.45896 C 968.38355,315.59952 910.1521,227.57161 831.4622,163.12939 815.92189,150.4022 772.10652,117.17288 754.27627,112.20178 Z M 98.501721,697.27379 c 35.723509,102.7338 129.277199,193.40992 229.936119,241.48501 15.10256,7.21229 49.6322,24.20335 65.8441,24.38094 l -0.92362,-0.5595 C 372.76391,950.30568 349.22959,942.55903 328.015,931.16933 256.52156,892.785 191.87301,840.08927 144.85905,775.90796 c -12.50258,-17.06651 -22.88103,-34.78838 -32.37071,-53.49411 -3.19031,-6.28657 -8.9773,-21.25182 -13.986619,-25.14006 z M 624.24128,67.416149 c 18.79198,8.901802 38.43627,16.022931 57.18348,25.094474 q 9.51954,4.69608 18.84341,9.731627 9.32385,5.03399 18.44045,10.39959 9.11659,5.36717 18.011,11.05653 8.89605,5.68937 17.55665,11.69304 8.66224,6.00526 17.07744,12.317 8.41519,6.31016 16.57337,12.92049 8.1565,6.60878 16.0444,13.50517 7.88623,6.89796 15.49223,14.0725 c 32.85821,31.02116 63.23083,66.2339 86.24783,104.46576 3.99782,6.63864 21.57106,42.7598 24.80282,44.47758 C 921.82227,312.5788 908.83883,290.40918 894.51561,268.43128 846.65596,194.98982 779.13051,132.00295 697.10604,93.30902 679.19124,84.856706 643.41796,68.258548 624.24128,67.416149 Z"
     id="path3"
     style="stroke-width:1.61432" />
  <path
     fill="#161616"
     d="m 501.76587,260.05843 c 63.89243,-3.67419 128.70015,20.9885 177.21973,59.98142 55.30315,44.44389 87.80816,108.85782 93.84221,177.26478 5.91468,67.05849 -19.54478,132.40363 -64.51755,183.32019 q -3.41085,3.87247 -6.98584,7.60693 -3.57337,3.73605 -7.30423,7.32774 -3.73254,3.59169 -7.61429,7.03424 -3.88176,3.44256 -7.9078,6.72965 -4.02601,3.28867 -8.18967,6.41553 -4.162,3.12686 -8.45664,6.08714 -4.29298,2.96187 -8.71034,5.7524 -4.41737,2.78894 -8.95079,5.40498 -4.53342,2.61445 -9.17461,5.04803 -4.63956,2.43517 -9.3819,4.68631 -4.74071,2.25115 -9.57592,4.31352 -4.83355,2.06394 -9.75167,3.93434 -4.91811,1.872 -9.91252,3.55045 -4.99438,1.67686 -10.05676,3.15699 -5.06072,1.48015 -10.1828,2.7604 -5.12041,1.28024 -10.29224,2.35902 c -14.04796,2.87777 -28.17554,4.08188 -42.45897,5.22888 -67.13414,1.75459 -126.43344,-16.22444 -178.15163,-57.88574 q -2.55026,-2.05919 -5.04745,-4.17867 -2.49554,-2.11946 -4.93802,-4.29606 -2.44248,-2.17658 -4.82691,-4.41028 -2.38445,-2.23369 -4.71251,-4.5229 -2.32642,-2.28765 -4.59479,-4.63081 -2.26835,-2.34315 -4.47538,-4.73709 -2.20701,-2.39552 -4.35267,-4.84179 -2.14567,-2.44628 -4.22668,-4.94175 -2.08265,-2.49545 -4.09898,-5.04008 -2.01798,-2.54306 -3.96966,-5.1337 -1.95164,-2.59065 -3.83532,-5.2257 -1.88534,-2.63507 -3.70103,-5.31455 -1.81734,-2.67949 -3.56505,-5.39862 -1.74606,-2.72074 -3.42412,-5.48273 -1.67641,-2.76038 -3.28316,-5.55885 -1.60512,-2.80006 -3.13891,-5.63501 -1.53381,-2.83654 -2.99465,-5.70798 -1.46085,-2.87144 -2.84707,-5.7762 -1.38622,-2.90318 -2.69784,-5.83966 -1.3116,-2.93649 -2.54859,-5.90312 -1.23534,-2.96504 -2.39438,-5.96022 -1.16072,-2.99359 -2.2435,-6.01418 -1.0828,-3.02056 -2.08764,-6.06491 -1.00485,-3.04595 -1.93176,-6.11253 -0.92693,-3.06816 -1.77425,-6.15694 -0.8473,-3.08719 -1.61672,-6.19502 -0.76771,-3.10782 -1.45584,-6.23151 -0.68982,-3.12527 -1.2967,-6.26481 -0.60854,-3.13957 -1.13749,-6.2918 -0.52729,-3.15382 -0.97335,-6.31717 -0.4477,-3.16494 -0.8125,-6.33939 -0.36646,-3.17445 -0.65,-6.35525 c -5.93624,-69.94738 20.19645,-137.86732 67.45251,-190.77324 q 3.13726,-3.50761 6.41544,-6.89465 3.27819,-3.38703 6.694,-6.64714 3.41584,-3.26013 6.9643,-6.38858 3.54847,-3.12843 7.22132,-6.12045 3.67449,-2.99359 7.47003,-5.84441 3.79388,-2.85081 7.70383,-5.55726 3.9083,-2.70488 7.92603,-5.26062 4.01939,-2.55575 8.13828,-4.95919 4.12054,-2.40186 8.33725,-4.64666 4.21673,-2.24481 8.52132,-4.32778 4.30625,-2.08458 8.69377,-4.00416 4.38749,-1.91958 8.85129,-3.67101 4.46376,-1.753 8.99719,-3.33467 4.53342,-1.58326 9.12654,-2.99202 4.59479,-1.41032 9.24427,-2.64617 4.64951,-1.23583 9.34542,-2.29397 c 18.19671,-3.94229 36.50617,-5.43037 55.06436,-6.83594 z m 3.30473,138.15128 c -34.10516,3.0412 -65.5705,15.3424 -87.70369,41.11398 -22.20615,25.85886 -30.89493,56.54679 -27.37797,89.68419 q 0.29185,2.82863 0.7296,5.64136 0.43941,2.81118 1.02309,5.59853 0.58367,2.78736 1.31162,5.54298 0.72792,2.75722 1.59845,5.47478 0.87054,2.71756 1.88203,5.39228 1.0098,2.67314 2.15891,5.29393 1.14911,2.62237 2.4309,5.18605 1.28341,2.56526 2.69947,5.06389 1.41444,2.5002 2.95818,4.93063 1.54209,2.42884 3.21021,4.78152 1.66645,2.35267 3.45395,4.62444 1.78916,2.27019 3.69274,4.45312 1.90191,2.18292 3.91658,4.27226 2.01466,2.09091 4.13545,4.0819 2.12082,1.99096 4.34276,3.87881 2.22193,1.88785 4.5384,3.66784 c 22.67872,17.67286 50.64699,28.00212 80.09932,26.79325 q 3.05933,-0.13794 6.10702,-0.41722 3.04937,-0.27923 6.07884,-0.70121 3.03114,-0.42199 6.03572,-0.98517 3.00627,-0.5632 5.97935,-1.26598 2.9731,-0.70279 5.90639,-1.54359 2.93329,-0.84082 5.82182,-1.81648 2.88685,-0.97724 5.72065,-2.08773 2.83382,-1.10893 5.60794,-2.35111 2.7741,-1.2406 5.48188,-2.60967 2.70779,-1.36911 5.34261,-2.86352 2.63316,-1.49441 5.1884,-3.1094 2.55523,-1.615 5.02423,-3.34737 2.47068,-1.73399 4.8485,-3.57899 2.37779,-1.8466 4.65942,-3.80109 2.28163,-1.9545 4.46048,-4.01367 2.17882,-2.0592 4.24987,-4.21675 1.03802,-1.07877 2.04783,-2.18293 1.00982,-1.10416 1.99147,-2.23053 0.97997,-1.12794 1.9301,-2.27969 0.95014,-1.15017 1.87042,-2.32412 0.92027,-1.17397 1.80906,-2.36855 0.88876,-1.19618 1.74438,-2.41297 0.85727,-1.2152 1.68137,-2.45263 0.82578,-1.2374 1.61672,-2.49227 0.79094,-1.25646 1.55038,-2.53195 0.7578,-1.27389 1.48241,-2.56685 0.72461,-1.29295 1.41441,-2.60335 0.6898,-1.31038 1.34644,-2.63504 0.65496,-1.32627 1.27512,-2.66839 0.62016,-1.34053 1.20549,-2.69693 0.58533,-1.35641 1.13417,-2.72548 0.54887,-1.37068 1.06123,-2.75248 0.51238,-1.38176 0.98827,-2.77625 0.47591,-1.39449 0.91531,-2.80005 0.43942,-1.40557 0.84068,-2.82068 0.40294,-1.41667 0.76775,-2.8413 0.3648,-1.42462 0.69146,-2.85716 0.32665,-1.43413 0.61517,-2.87462 0.29017,-1.44048 0.54056,-2.88731 0.25039,-1.44681 0.46429,-2.89999 0.21225,-1.45159 0.38635,-2.90952 0.1741,-1.45793 0.31172,-2.91903 0.13594,-1.45953 0.23215,-2.9238 0.0978,-1.46429 0.15759,-2.93015 0.0579,-1.46585 0.078,-2.93171 0.0216,-1.46746 0.003,-2.93492 -0.0199,-1.46586 -0.0763,-2.93171 -0.0563,-1.46587 -0.15261,-2.93014 -0.16087,-2.95553 -0.47257,-5.89995 -0.31174,-2.94441 -0.77437,-5.8698 -0.46263,-2.92697 -1.07449,-5.82695 -0.61185,-2.90161 -1.37295,-5.76986 -0.75946,-2.86827 -1.66647,-5.69848 -0.90534,-2.8286 -1.95662,-5.61278 -1.04963,-2.78421 -2.24185,-5.51443 -1.19222,-2.73027 -2.52208,-5.40183 -1.3315,-2.67313 -2.79731,-5.27805 -1.46582,-2.60651 -3.06263,-5.14004 -1.59848,-2.53354 -3.32296,-4.99093 -1.72616,-2.45579 -3.57666,-4.8275 -1.84887,-2.37172 -3.81877,-4.6546 -1.96824,-2.28128 -4.05255,-4.46898 -2.08432,-2.1861 -4.27641,-4.27383 -2.19375,-2.08617 -4.49197,-4.06762 C 568.986,406.76218 539.4292,396.03154 509.71157,397.86546 q -2.3231,0.14601 -4.64121,0.34425 z"
     id="path4"
     style="stroke-width:1.62191" />
</svg>
