<?xml version="1.0" encoding="UTF-8" standalone="no"?>
<svg
   width="998"
   height="998"
   version="1.1"
   id="svg2"
   xmlns="http://www.w3.org/2000/svg"
   xmlns:svg="http://www.w3.org/2000/svg">
  <defs
     id="defs2" />
  <path
     fill="currentColor"
     d="m 487.33686,24.789398 q 5.54063,-0.04851 11.0797,0.02728 5.54063,0.0758 11.07659,0.277411 5.53594,0.200099 11.06724,0.526019 5.52974,0.325919 11.05011,0.776143 5.52195,0.450224 11.02988,1.024751 5.5095,0.574527 11.00341,1.273359 5.49394,0.698832 10.96917,1.521969 5.47526,0.821619 10.93026,1.767543 5.455,0.945925 10.88508,2.01312 5.4301,1.068713 10.83373,2.258698 5.40363,1.191501 10.77768,2.502757 5.37404,1.311257 10.71542,2.745302 5.34134,1.43253 10.64845,2.984815 5.30555,1.552286 10.57218,3.224329 5.2682,1.672041 10.49434,3.462325 5.22616,1.790282 10.40873,3.698806 5.18256,1.907007 10.31842,3.930739 5.13585,2.023732 10.22191,4.162672 5.08604,2.13894 10.1207,4.39309 5.03312,2.252633 10.0133,4.61896 4.97863,2.366325 9.89966,4.844829 4.92102,2.476987 9.78287,5.064636 4.86031,2.589164 9.65991,5.285956 4.79803,2.696794 9.53068,5.501216 4.73266,2.804423 9.39837,5.714958 4.66415,2.909019 9.2598,5.924149 4.59409,3.01514 9.11503,6.13184 4.52248,3.11821 8.96868,6.33648 4.4462,3.21826 8.81457,6.53657 4.36835,3.31832 8.65733,6.73365 4.28897,3.41534 8.49541,6.92617 4.2049,3.51234 8.32729,7.11716 c 94.90678,82.28479 149.01001,199.38535 156.12455,322.26302 7.48663,129.30661 -26.83133,250.68352 -116.42322,348.27895 q -3.07622,3.33044 -6.21626,6.60327 -3.14161,3.27133 -6.34705,6.48353 -3.20544,3.21372 -6.47316,6.36528 -3.26926,3.15156 -6.59924,6.24097 -3.32997,3.09093 -6.72067,6.11668 -3.3907,3.02727 -6.84055,5.99086 -3.44986,2.96206 -6.9573,5.85896 -3.50747,2.89841 -7.07252,5.72861 -3.56349,2.83171 -7.1846,5.59519 -3.61955,2.76349 -7.29357,5.45878 -3.67404,2.69527 -7.40101,5.32081 -3.72539,2.62556 -7.50373,5.17985 -3.77835,2.55581 -7.60649,5.04039 -3.8266,2.48305 -7.70303,4.89485 -3.87641,2.41179 -7.79953,4.74932 -3.92311,2.33904 -7.89293,4.60381 -3.96827,2.26324 -7.98168,4.45372 -4.01186,2.18896 -8.0673,4.30214 -4.05544,2.11468 -8.15295,4.15205 -4.09589,2.03739 -8.23231,3.99745 -4.13638,1.95854 -8.31015,3.8413 -4.17378,1.88124 -8.38489,3.68516 -4.21112,1.80393 -8.4565,3.52751 -4.24538,1.72359 -8.52346,3.36682 -4.27962,1.64475 -8.59037,3.20766 -4.31076,1.5629 -8.6511,3.04544 -4.34034,1.48256 -8.71027,2.88325 -4.36836,1.4007 -8.76474,2.71801 -4.39638,1.31884 -8.81767,2.55431 -4.4213,1.23546 -8.86594,2.38755 -4.44619,1.15208 -8.91264,2.22079 -4.468,1.06872 -8.95468,2.05254 c -30.21424,6.37893 -60.99203,9.1697 -91.81654,10.85084 q -5.5671,0.0849 -11.13573,0.044 -5.56711,-0.0409 -11.13264,-0.20616 -5.56553,-0.16676 -11.1264,-0.45933 -5.5593,-0.29104 -11.11083,-0.70792 -5.55152,-0.41839 -11.09216,-0.95957 -5.54062,-0.5427 -11.06568,-1.20968 -5.52662,-0.667 -11.03455,-1.45982 -5.50792,-0.79131 -10.99719,-1.70691 -5.48769,-0.91561 -10.95204,-1.954 -5.46589,-1.0399 -10.90378,-2.20261 -5.43942,-1.16269 -10.84774,-2.44667 -5.40984,-1.28397 -10.787,-2.69073 -5.37874,-1.40676 -10.72164,-2.93328 -5.34137,-1.52802 -10.64692,-3.17581 -5.30399,-1.64778 -10.56907,-3.41381 -5.26351,-1.76603 -10.485,-3.65183 -5.21992,-1.88427 -10.3947,-3.88676 -5.17478,-2.00251 -10.29974,-4.12023 -5.12652,-2.11923 -10.20011,-4.35216 -5.07359,-2.23445 -10.09268,-4.58107 -5.01911,-2.34813 -9.98218,-4.80693 -4.96149,-2.46032 -9.86383,-5.03128 -4.90234,-2.5725 -9.74087,-5.25261 -4.84007,-2.68164 -9.61474,-5.4709 -4.77469,-2.78927 -9.48087,-5.68616 -4.70775,-2.89688 -9.34387,-5.89838 -4.63768,-3.003 -9.20065,-6.10758 -4.56453,-3.10608 -9.05275,-6.31374 -4.48981,-3.20916 -8.90175,-6.51687 -4.41039,-3.30771 -8.7414,-6.71546 -4.33255,-3.40622 -8.58103,-6.911 -4.25006,-3.50325 -8.41447,-7.102 -4.37303,-3.87011 -8.64643,-7.8433 -4.27495,-3.97318 -8.44716,-8.04793 -4.1722,-4.07475 -8.2401,-8.24804 -4.06791,-4.17329 -8.02839,-8.44207 -3.96048,-4.2703 -7.81198,-8.63459 -3.85151,-4.36276 -7.59248,-8.81801 -3.73941,-4.45373 -7.36674,-8.99689 -3.62578,-4.54317 -7.13635,-9.17122 -3.51057,-4.62957 -6.90281,-9.33948 -3.3907,-4.71144 -6.66309,-9.50321 -3.27237,-4.79178 -6.421758,-9.65934 -3.1494,-4.86908 -6.174246,-9.81094 -3.026406,-4.94336 -5.925155,-9.95645 -2.900305,-5.01309 -5.671397,-10.0944 -2.772649,-5.08131 -5.414525,-10.22781 -2.64188,-5.14649 -5.152986,-10.35514 -2.512665,-5.20865 -4.891446,-10.4749 -2.378779,-5.26775 -4.623674,-10.5901 -2.244897,-5.32234 -4.354351,-10.69773 -2.109456,-5.37388 -4.081913,-10.79779 -1.972456,-5.4239 -3.807915,-10.89328 -1.833904,-5.46938 -3.530806,-10.98121 -1.69535,-5.51183 -3.252142,-11.06308 -1.556793,-5.54972 -2.971919,-11.13582 -1.415124,-5.58762 -2.688581,-11.20556 -1.2719,-5.61946 -2.40369,-11.26621 -1.130231,-5.64674 -2.118794,-11.32077 -0.987008,-5.6725 -1.83079,-11.36776 -0.843782,-5.69373 -1.542781,-11.40717 -0.700557,-5.71344 -1.254776,-11.44205 -0.554218,-5.7286 -0.963655,-11.46933 -0.409436,-5.73921 -0.674092,-11.48752 C 19.648185,399.13128 65.972123,267.52504 153.34714,173.66329 q 2.94389,-3.16368 5.9485,-6.27281 3.00461,-3.10911 6.06837,-6.16366 3.06377,-3.05303 6.18671,-6.04997 3.12292,-2.99694 6.30344,-5.93628 3.17898,-2.93934 6.41554,-5.81957 3.23658,-2.87869 6.52919,-5.69979 3.29108,-2.81958 6.63662,-5.58003 3.34556,-2.75895 6.74404,-5.45575 3.39848,-2.6983 6.84832,-5.33294 3.44986,-2.63465 6.94953,-5.20562 3.50122,-2.57097 7.05071,-5.07676 3.54949,-2.50731 7.14568,-4.94791 3.59775,-2.44061 7.2422,-4.81451 3.6429,-2.373909 7.3325,-4.681116 3.6896,-2.307206 7.42279,-4.546195 3.73318,-2.238991 7.50841,-4.408249 3.77523,-2.170775 7.59249,-4.271818 3.81725,-2.099527 7.67498,-4.129322 3.85618,-2.029797 7.75283,-3.98986 3.89509,-1.958548 7.82756,-3.845848 3.93402,-1.885786 7.90227,-3.700323 3.96827,-1.814537 7.97236,-3.55631 4.0025,-1.741774 8.03928,-3.409268 4.0352,-1.667495 8.1031,-3.26071 4.0679,-1.593215 8.16538,-3.112151 4.09748,-1.518935 8.22454,-2.962076 4.12549,-1.443141 8.27902,-2.808971 4.15354,-1.367345 8.33351,-2.658896 4.18,-1.290034 8.38334,-2.504273 4.20334,-1.212723 8.42847,-2.349651 4.22671,-1.135412 8.4752,-2.19503 4.24692,-1.058101 8.51408,-2.03889 c 31.76481,-7.123234 63.48916,-10.517342 95.98876,-12.089335 z m -5.74144,149.327152 q -4.14887,0.26376 -8.28994,0.62759 -4.14262,0.36229 -8.27279,0.82313 -4.13173,0.46083 -8.24945,1.0202 -4.11771,0.55938 -8.22142,1.21728 -4.10371,0.65638 -8.18875,1.41131 -4.08501,0.75491 -8.1498,1.60685 -4.06479,0.85043 -8.10778,1.79937 -4.04299,0.94744 -8.05952,1.99191 -4.01807,1.04294 -8.00815,2.18291 -3.99005,1.13995 -7.95053,2.37238 -3.96048,1.23394 -7.88828,2.56188 -3.92779,1.32793 -7.82288,2.74832 -3.89354,1.42193 -7.7497,2.9348 -3.85775,1.51288 -7.675,3.11669 -3.81727,1.60384 -7.59404,3.29861 -3.77678,1.69479 -7.50841,3.47901 -3.7332,1.78422 -7.41968,3.65636 -3.68804,1.87214 -7.32626,3.8322 -3.63822,1.95854 -7.22665,4.00503 -3.5884,2.04494 -7.12543,4.17479 -3.53548,2.12985 -7.01803,4.34458 -3.481,2.21323 -6.90594,4.50982 -3.42494,2.29508 -6.79072,4.67202 -3.36736,2.37693 -6.67241,4.8327 -3.30663,2.45577 -6.54943,4.99035 -3.24282,2.5346 -6.42178,5.14497 -3.17741,2.61039 -6.28945,5.29506 -3.11203,2.68467 -6.15711,5.44361 -3.04354,2.75894 -6.01701,5.58914 -2.97347,2.83019 -5.87533,5.73012 -2.90187,2.89993 -5.72902,5.86806 -2.82867,2.96815 -5.58109,6.00298 c -59.52087,66.37234 -86.93756,152.52573 -80.8318,240.0904 q 0.30355,3.89739 0.70522,7.7872 0.4001,3.8898 0.89983,7.76901 0.49816,3.87919 1.09443,7.74476 0.59469,3.86706 1.28746,7.71746 0.69277,3.8504 1.48207,7.68411 0.78929,3.83222 1.67511,7.64623 0.88425,3.81249 1.86503,7.60377 0.98078,3.78976 2.05497,7.55679 1.07575,3.76702 2.2449,7.50675 1.16915,3.73974 2.43326,7.45067 1.26256,3.71094 2.61853,7.39003 1.35597,3.6791 2.80378,7.32637 1.44625,3.64574 2.98593,7.25663 1.53811,3.61088 3.16651,7.18386 1.62997,3.573 3.34712,7.10657 1.71868,3.53356 3.52457,7.0247 1.80589,3.49112 3.69893,6.93828 1.89308,3.44717 3.87331,6.84887 1.97868,3.40168 4.043,6.75485 2.0643,3.35319 4.21113,6.65634 2.14681,3.30164 4.3777,6.55326 2.22932,3.25161 4.53961,6.44865 2.31028,3.19553 4.70152,6.33799 2.38967,3.14096 4.85718,6.22279 2.46909,3.08336 5.01443,6.10758 2.5438,3.02271 5.16389,5.9863 2.62009,2.96058 5.31333,5.86049 2.69325,2.89842 5.45967,5.73315 2.76487,2.83323 5.60135,5.60126 2.83492,2.76654 5.73989,5.46635 2.90497,2.69832 5.87532,5.32689 2.97194,2.6301 6.00768,5.18742 c 63.24628,53.03542 151.84338,85.99877 235.90244,79.5213 l 0.7706,-0.0636 q 4.17377,-0.26983 8.33817,-0.64122 4.16599,-0.3714 8.31951,-0.84284 4.1551,-0.47297 8.29616,-1.04598 4.14108,-0.57302 8.26502,-1.24607 4.12549,-0.67458 8.23232,-1.44769 4.10525,-0.77463 8.19184,-1.64778 4.08502,-0.87317 8.1467,-1.84486 4.06167,-0.9717 8.09688,-2.04345 4.03521,-1.07022 8.0424,-2.23898 4.00717,-1.16725 7.98167,-2.43303 3.97605,-1.26578 7.91786,-2.62706 3.94179,-1.36129 7.84779,-2.81807 3.90599,-1.4583 7.77307,-3.00907 3.86708,-1.55229 7.69367,-3.19705 3.8266,-1.64475 7.60962,-3.38197 3.78144,-1.73723 7.5193,-3.56692 3.73785,-1.82818 7.42589,-3.74732 3.68961,-1.91913 7.32784,-3.92771 3.63977,-2.00857 7.22508,-4.10355 3.58685,-2.09649 7.11765,-4.2794 3.53237,-2.18138 7.00557,-4.44917 3.47477,-2.2678 6.89036,-4.61897 3.41406,-2.35117 6.76895,-4.7857 3.35332,-2.43303 6.64439,-4.94791 3.2895,-2.51337 6.51518,-5.10708 3.2241,-2.59372 6.38129,-5.26474 3.15718,-2.67102 6.24585,-5.41784 3.08712,-2.74834 6.10419,-5.56943 3.01707,-2.8211 5.95941,-5.71496 2.94389,-2.89234 5.8115,-5.85746 2.86917,-2.96359 5.6605,-5.99691 2.79134,-3.03332 5.50326,-6.13335 2.66213,-2.99239 5.24796,-6.04845 2.58584,-3.05456 5.09382,-6.17125 2.508,-3.11821 4.93504,-6.29403 2.42704,-3.17583 4.77312,-6.41076 2.3461,-3.23342 4.60811,-6.52293 2.26358,-3.28951 4.44154,-6.6336 2.17794,-3.34258 4.27183,-6.73667 2.09234,-3.39564 4.09748,-6.83977 2.0067,-3.44413 3.92467,-6.93527 1.91798,-3.49112 3.74566,-7.02771 1.82766,-3.53662 3.56661,-7.11567 1.73738,-3.57904 3.38291,-7.19903 1.64709,-3.62149 3.20077,-7.27937 1.55367,-3.65939 3.01395,-7.35516 1.46028,-3.69425 2.82558,-7.42338 1.36687,-3.72913 2.63721,-7.4916 1.27035,-3.76097 2.44417,-7.55072 1.17538,-3.79127 2.25266,-7.60832 1.07887,-3.81705 2.05809,-7.65987 0.98078,-3.84281 1.86347,-7.70837 0.88271,-3.86403 1.66578,-7.7493 0.78462,-3.88526 1.46961,-7.78872 0.68499,-3.90193 1.27035,-7.82055 0.58535,-3.91709 1.06951,-7.84934 0.48572,-3.93074 0.87181,-7.8721 0.38609,-3.94134 0.67097,-7.89028 0.28491,-3.95044 0.4686,-7.90543 0.18526,-3.955 0.26933,-7.91302 0.0841,-3.95954 0.0669,-7.91909 -0.0171,-3.95802 -0.13386,-7.91605 -0.11677,-3.95802 -0.33471,-7.9115 -0.21795,-3.95347 -0.53709,-7.90089 -0.28957,-3.99441 -0.68344,-7.98124 -0.39075,-3.98835 -0.88582,-7.96304 -0.4935,-3.97622 -1.0882,-7.9403 -0.59469,-3.96258 -1.29213,-7.90999 -0.69589,-3.94741 -1.4914,-7.87664 -0.79709,-3.92923 -1.69381,-7.83722 -0.8967,-3.90953 -1.89305,-7.79478 -0.9948,-3.88679 -2.09077,-7.7478 -1.09443,-3.85948 -2.28693,-7.69321 -1.19407,-3.8322 -2.48464,-7.6356 -1.29058,-3.80341 -2.67768,-7.57346 -1.38711,-3.77005 -2.86919,-7.50675 -1.48361,-3.73519 -3.06219,-7.43399 -1.57704,-3.69881 -3.24903,-7.35821 -1.672,-3.65938 -3.43586,-7.27633 -1.76538,-3.61846 -3.6211,-7.19297 -1.85724,-3.57298 -3.80324,-7.10201 -1.94754,-3.52751 -3.98382,-7.00651 -2.03629,-3.48052 -4.16131,-6.90948 -2.12347,-3.43049 -4.33568,-6.80642 -2.21063,-3.37744 -4.50847,-6.70029 -2.29626,-3.32286 -4.67661,-6.58812 -2.38189,-3.26526 -4.84473,-6.47291 -2.46441,-3.20765 -5.00821,-6.35467 -2.54536,-3.14551 -5.16855,-6.23036 -2.62475,-3.08336 -5.32734,-6.10304 -2.70105,-3.01968 -5.47993,-5.97417 -2.77886,-2.95298 -5.63092,-5.83775 -2.8536,-2.88628 -5.77882,-5.70132 -2.9252,-2.81504 -5.92203,-5.55882 -2.99528,-2.74378 -6.06216,-5.41329 -3.06531,-2.67102 -6.19759,-5.26625 C 650.47321,199.05621 565.06912,168.6593 481.59542,174.11655 Z M 464.1671,39.313274 c -3.69892,0.07276 -13.97533,-0.585138 -16.81179,1.55835 22.74318,1.036879 46.10287,2.349651 68.55494,6.122737 99.29693,16.693134 188.66464,68.138369 256.12826,140.333299 76.92118,82.31662 110.89818,185.74675 105.41048,296.11972 -4.04143,81.2661 -32.98843,163.04762 -84.2334,227.58268 -11.51872,14.50871 -24.58022,27.77743 -37.86276,40.7475 8.58258,-0.88832 46.06394,-43.32756 53.06639,-51.77419 q 11.69153,-13.92205 21.8745,-28.92647 10.18144,-15.00442 18.75158,-30.93506 c 36.21723,-68.47642 51.74314,-155.38926 43.28819,-231.80902 q -0.61338,-5.08585 -1.3544,-10.15505 -0.73949,-5.06918 -1.60507,-10.11865 -0.86557,-5.05099 -1.85724,-10.07925 -0.99012,-5.02824 -2.1048,-10.03225 -1.11621,-5.00399 -2.35542,-9.9807 -1.23921,-4.97521 -2.6014,-9.92009 -1.36375,-4.94638 -2.84893,-9.85792 -1.48518,-4.91153 -3.09024,-9.78667 -1.60661,-4.87516 -3.33466,-9.7124 -1.72647,-4.83574 -3.57439,-9.63054 -1.84634,-4.79329 -3.81258,-9.54262 -1.96468,-4.74933 -4.04766,-9.45014 -2.083,-4.70234 -4.28118,-9.35314 -2.19975,-4.65079 -4.51315,-9.24853 -2.31338,-4.59773 -4.74043,-9.14089 -2.42705,-4.54166 -4.96774,-9.02569 -2.53911,-4.48253 -5.18878,-8.90594 -2.64966,-4.42189 -5.40986,-8.78164 -2.75863,-4.35822 -5.62469,-8.65125 -2.86605,-4.29153 -5.83955,-8.51636 -2.97189,-4.22331 -6.04813,-8.37537 -3.07622,-4.15358 -6.25519,-8.23136 -3.17896,-4.07929 -6.45758,-8.08279 -3.27861,-4.00199 -6.65685,-7.92666 -3.37667,-3.92469 -6.84989,-7.7675 -3.47475,-3.84434 -7.04292,-7.60529 -3.56817,-3.76096 -7.22975,-7.43702 -3.66003,-3.67456 -7.41034,-7.26422 -3.75187,-3.58814 -7.59092,-7.08685 -3.83906,-3.49871 -7.76373,-6.90646 -3.92467,-3.40775 -7.93343,-6.72151 -4.00717,-3.31528 -8.09688,-6.53355 C 662.96026,73.166443 555.84199,33.442179 464.1671,39.313274 Z M 235.91322,252.65099 q -3.68027,3.06062 -7.28268,6.20762 -3.60243,3.14702 -7.12234,6.38044 -3.52147,3.23343 -6.95885,6.55023 -3.43896,3.31679 -6.79075,6.71546 -3.35333,3.39865 -6.61947,6.87613 -3.26459,3.47901 -6.44203,7.0338 -3.17585,3.55631 -6.26141,7.1869 -3.08556,3.63059 -6.07772,7.33546 -2.99214,3.70335 -5.88934,7.47796 -2.89719,3.7746 -5.69787,7.61892 -2.80067,3.84283 -5.50325,7.75234 -2.7026,3.90952 -5.30557,7.8827 -2.60296,3.97319 -5.10316,8.00702 -2.50178,4.03533 -4.89923,8.12827 -2.39745,4.09293 -4.69216,8.24348 -2.29316,4.15054 -4.48047,8.35415 -2.1873,4.2036 -4.26716,8.45874 -2.07988,4.25515 -4.05233,8.55879 -1.9709,4.30366 -3.83439,8.65279 -1.86191,4.35064 -3.61175,8.74374 -1.7514,4.39308 -3.3907,8.82711 -1.63931,4.43402 -3.16496,8.90593 -1.52721,4.47343 -2.93923,8.98022 -1.41201,4.50678 -2.71038,9.04691 -1.2968,4.54014 -2.47841,9.11058 -1.18317,4.57046 -2.248,9.16667 -1.06641,4.59623 -2.01606,9.21822 -0.94808,4.62047 -1.77942,9.26369 -0.83131,4.6417 -1.54589,9.3031 -0.71301,4.66141 -1.3077,9.33796 -0.59625,4.67657 -1.07263,9.36678 -0.476378,4.6902 -0.832878,9.38951 c -7.455488,104.07895 27.829228,211.80515 98.496738,290.70946 73.5429,82.11805 177.53047,140.2469 290.42598,147.95831 q 14.02983,0.87013 28.07678,0.33955 c 5.29309,-0.22131 10.51924,-0.47447 15.77653,-1.13086 -32.21783,-2.25415 -64.02,-6.50929 -95.28352,-14.59208 q -3.98852,-1.06872 -7.95521,-2.21019 -3.96673,-1.13997 -7.91162,-2.35117 -3.94492,-1.21273 -7.86648,-2.49519 -3.92156,-1.28245 -7.81823,-2.63464 -3.89508,-1.35218 -7.76527,-2.77562 -3.87019,-1.42191 -7.71236,-2.91508 -3.84217,-1.49164 -7.6563,-3.05152 -3.8126,-1.56136 -7.59561,-3.19097 -3.783,-1.62808 -7.53487,-3.32589 -3.75187,-1.6963 -7.4695,-3.46081 -3.71918,-1.76299 -7.4041,-3.59421 -3.68337,-1.8297 -7.33405,-3.72762 -3.64913,-1.89638 -7.26089,-3.85797 -3.61332,-1.96157 -7.18771,-3.98834 -3.5744,-2.02676 -7.11143,-4.11719 -3.53548,-2.09044 -7.03049,-4.24302 -3.49655,-2.1541 -6.94952,-4.37035 -3.45453,-2.21626 -6.86546,-4.49314 -3.41248,-2.27841 -6.77983,-4.61745 -3.36734,-2.33903 -6.68954,-4.73719 -3.32375,-2.39968 -6.60081,-4.85696 -3.27548,-2.45879 -6.50584,-4.9752 -3.22879,-2.51791 -6.41087,-5.09192 -3.18052,-2.574 -6.31279,-5.20561 -3.13227,-2.63162 -6.21316,-5.31931 -3.08089,-2.68618 -6.11199,-5.42845 -3.02951,-2.74227 -6.0061,-5.5376 -2.97813,-2.79684 -5.90179,-5.64522 -2.92367,-2.84991 -5.79284,-5.75135 -2.86915,-2.90144 -5.68384,-5.8529 -2.81314,-2.95298 -5.57176,-5.95448 -2.75709,-3.003 -5.45657,-6.05452 -3.33621,-3.69576 -6.57745,-7.47037 -3.23968,-3.77611 -6.3844,-7.62802 -3.14317,-3.85191 -6.18825,-7.77963 -3.04353,-3.92771 -5.98743,-7.92667 -2.94391,-3.99895 -5.78505,-8.06915 -2.84115,-4.06868 -5.57798,-8.20559 -2.73529,-4.1369 -5.36628,-8.33747 -2.62941,-4.20208 -5.15298,-8.4648 -2.52201,-4.26424 -4.93503,-8.5876 -2.41304,-4.32336 -4.71552,-8.70282 -2.30094,-4.38096 -4.49136,-8.81498 -2.1904,-4.43401 -4.26715,-8.91958 -2.07523,-4.48707 -4.03676,-9.02113 -1.96157,-4.53407 -3.80794,-9.11514 -1.84479,-4.58106 -3.57283,-9.20456 -1.72804,-4.62351 -3.33776,-9.28794 -1.60972,-4.66444 -3.10114,-9.36527 -1.48984,-4.70232 -2.85982,-9.43801 -1.37154,-4.73568 -2.62008,-9.50472 -1.25011,-4.76752 -2.37723,-9.56384 -1.12712,-4.79632 -2.13281,-9.6184 -1.00412,-4.82211 -1.88684,-9.66694 -0.88114,-4.84483 -1.63929,-9.70936 -0.75816,-4.86454 -1.39333,-9.74726 -0.63362,-4.88121 -1.14269,-9.77607 -0.50908,-4.89636 -0.89516,-9.80183 -0.38453,-4.90699 -0.64451,-9.82002 -0.25842,-4.91457 -0.39387,-9.83367 -0.13389,-4.91759 -0.14321,-9.83823 -0.009,-4.92062 0.10741,-9.83972 0.1152,-4.91912 0.35651,-9.83367 0.24286,-4.91609 0.6087,-9.82307 0.47172,-6.31829 1.14581,-12.61838 0.67253,-6.30161 1.54589,-12.57897 0.87336,-6.27735 1.946,-12.5244 1.07418,-6.24856 2.34453,-12.46073 1.27189,-6.21217 2.73995,-12.38341 1.46805,-6.17126 3.13227,-12.29551 1.66421,-6.12425 3.52146,-12.19545 1.85882,-6.06967 3.90912,-12.08175 2.05029,-6.01208 4.29207,-11.95897 2.24023,-5.94689 4.67038,-11.82405 2.42859,-5.87565 5.044,-11.677 2.61386,-5.79986 5.41297,-11.51784 2.79912,-5.71951 5.77726,-11.3511 2.97971,-5.63158 6.13687,-11.1707 3.15562,-5.5376 6.48871,-10.97968 3.33156,-5.44058 6.83435,-10.77808 9.65521,-14.53752 20.43913,-28.30042 10.78546,-13.76138 22.63577,-26.66778 c 1.6938,-1.85093 12.29556,-12.09995 11.67751,-13.45517 z m 729.80128,253.63955 -0.25375,0.81859 c -3.82817,12.66234 -6.09175,25.94772 -9.06055,38.82534 q -5.32579,22.47934 -13.05061,44.28864 c -35.0901,97.65303 -110.77983,178.4113 -203.34987,227.93133 q -4.62056,2.42849 -9.30184,4.7463 -4.68128,2.31631 -9.41859,4.52194 -4.73733,2.20414 -9.52913,4.29609 -4.79181,2.09042 -9.635,4.06716 -4.84318,1.97523 -9.73463,3.83523 -4.89144,1.86002 -9.82804,3.60331 -4.93659,1.74177 -9.91675,3.36682 -4.97863,1.62354 -9.99774,3.12883 -5.01754,1.50378 -10.07244,2.88931 -5.05491,1.38402 -10.14251,2.64828 -5.08917,1.26275 -10.2079,2.40422 -5.11874,1.14148 -10.26395,2.16169 -5.14518,1.01868 -10.3153,1.91459 -5.17012,0.89589 -10.36045,1.66749 -5.19036,0.77311 -10.39938,1.42041 -5.20903,0.6488 -10.43209,1.17179 -5.22458,0.52449 -10.45853,0.92319 -5.23549,0.39868 -10.47877,0.67154 -5.24327,0.27437 -10.49279,0.42293 -5.24794,0.14698 -10.499,0.1713 -5.25108,0.0227 -10.50213,-0.0803 -5.2495,-0.10157 -10.49591,-0.32895 -5.24483,-0.22891 -10.48343,-0.5806 -5.23862,-0.3532 -10.46788,-0.83071 -5.22771,-0.47751 -10.44142,-1.08084 -5.21526,-0.60182 -10.4134,-1.32945 -5.19656,-0.72612 -10.37445,-1.57653 -5.1779,-0.85043 -10.334,-1.82515 -5.15453,-0.97322 -10.28262,-2.07074 -5.12963,-1.09599 -10.22968,-2.31478 -5.09851,-1.21878 -10.16587,-2.55885 -5.06892,-1.34005 -10.10046,-2.80138 c -42.90367,-12.23942 -82.79027,-30.38327 -120.74645,-53.30677 -12.38429,-7.47947 -23.99951,-16.62794 -36.52703,-23.72087 3.52458,3.09244 7.00557,6.24097 10.69204,9.15151 12.97121,10.22174 25.91127,20.40407 39.86326,29.34488 81.77368,52.40025 183.08821,78.5314 280.82058,68.4658 q 5.26507,-0.52602 10.51613,-1.17938 5.24951,-0.65183 10.4819,-1.42949 5.23238,-0.77917 10.44295,-1.68266 5.21215,-0.90195 10.39783,-1.92973 5.18723,-1.02779 10.34645,-2.17987 5.1592,-1.1521 10.28728,-2.42697 5.12809,-1.27488 10.22347,-2.67102 5.09382,-1.39766 10.15185,-2.9166 5.05802,-1.51894 10.07711,-3.15915 5.01756,-1.63869 9.99307,-3.39865 4.97394,-1.75997 9.90274,-3.63666 4.93038,-1.87821 9.80937,-3.87313 4.88055,-1.99644 9.70816,-4.1081 4.82917,-2.11165 9.60231,-4.33851 4.77313,-2.22687 9.48865,-4.56743 4.71708,-2.34056 9.37188,-4.79328 4.65482,-2.45274 9.24736,-5.01613 4.59098,-2.5634 9.11658,-5.23593 4.52561,-2.67254 8.98271,-5.45271 4.45708,-2.78018 8.84256,-5.66645 4.38394,-2.88629 8.69626,-5.87716 4.31075,-2.98937 8.54367,-6.08333 4.23448,-3.09244 8.38957,-6.28494 4.15508,-3.19401 8.22765,-6.48503 4.07258,-3.29254 8.06109,-6.68058 3.98848,-3.38806 7.88982,-6.87161 3.90133,-3.48202 7.7139,-7.05805 3.8126,-3.57449 7.53333,-7.23995 3.72073,-3.66545 7.34806,-7.41884 3.62733,-3.75338 7.15814,-7.59315 3.53081,-3.8398 6.96509,-7.76144 3.43274,-3.92316 6.76582,-7.92666 c 45.37429,-54.75142 72.24144,-114.93887 83.66674,-184.24298 1.5677,-9.50775 5.66829,-27.11346 3.74097,-36.2589 -0.0716,-0.34259 -0.20082,-0.67307 -0.30201,-1.00809 z M 438.66061,111.96752 c -24.17855,1.6387 -47.90252,3.84888 -71.66386,8.6452 q -4.3917,0.92016 -8.76162,1.92672 -4.37148,1.00656 -8.71962,2.09952 -4.34966,1.09297 -8.67444,2.27235 -4.32477,1.17785 -8.62463,2.44212 -4.29987,1.26577 -8.57171,2.61493 -4.27184,1.34916 -8.51565,2.78321 -4.24382,1.43252 -8.45494,2.95145 -4.21269,1.51742 -8.39268,3.11822 -4.17999,1.59927 -8.32574,3.28344 -4.14573,1.68266 -8.2541,3.44716 -4.10995,1.76603 -8.18095,3.61241 -4.07258,1.84486 -8.10467,3.77156 -4.0321,1.92672 -8.02372,3.93226 -3.99007,2.00555 -7.93963,4.08992 -3.94804,2.08588 -7.85248,4.24756 -3.90288,2.1632 -7.76217,4.40217 -3.85773,2.239 -7.6672,4.55379 -3.81103,2.31629 -7.57223,4.70537 -3.76122,2.39057 -7.47105,4.85544 -3.71141,2.46334 -7.36987,5.00096 -3.65691,2.53763 -7.26243,5.14649 -3.60398,2.6104 -7.15348,5.29052 -3.54948,2.68012 -7.04137,5.42996 -3.49189,2.74985 -6.92617,5.56791 -3.4343,2.81959 -6.80941,5.70586 -3.37513,2.88629 -6.68798,5.83775 -3.31286,2.95298 -6.56501,5.96963 -3.25058,3.01817 -6.43888,6.09848 -3.18675,3.08183 -6.30969,6.22582 -3.12137,3.14398 -6.17735,6.34862 -3.05599,3.20461 -6.04503,6.46987 -2.98905,3.26526 -5.90804,6.58812 C 73.394913,318.63526 38.346828,394.02118 30.853983,469.72391 l 0.516854,0.41686 c 2.392791,-6.12576 3.61176,-12.85789 5.344471,-19.20346 3.438957,-12.58352 7.002457,-25.08821 11.465784,-37.36855 C 70.061819,353.36614 112.86273,287.8806 161.29767,244.68643 q 3.9636,-3.69729 8.0206,-7.29755 4.05857,-3.60028 8.20741,-7.1005 4.14731,-3.50022 8.38489,-6.89889 4.2376,-3.39865 8.55924,-6.69272 4.32323,-3.29405 8.72895,-6.48351 4.40572,-3.18795 8.8924,-6.26827 4.48668,-3.08031 9.04963,-6.04997 4.56453,-2.96965 9.20377,-5.82864 4.63769,-2.85749 9.34856,-5.60279 4.71084,-2.74529 9.49018,-5.37388 4.77937,-2.63009 9.62413,-5.14195 4.84472,-2.51185 9.75329,-4.90545 4.90856,-2.39362 9.87629,-4.66749 4.96774,-2.27385 9.99306,-4.42642 5.02378,-2.15259 10.10203,-4.18088 5.07826,-2.02979 10.20791,-3.93528 5.12806,-1.90548 10.3044,-3.68517 5.17634,-1.77967 10.39626,-3.43351 5.21994,-1.65385 10.48033,-3.18037 5.2604,-1.525 10.55974,-2.92419 5.29777,-1.39765 10.62977,-2.66646 5.33358,-1.26882 10.69673,-2.40725 5.36315,-1.13845 10.75433,-2.14653 5.39118,-1.00656 10.8057,-1.88427 5.41453,-0.87619 10.85086,-1.62049 5.43631,-0.74432 10.88976,-1.35674 5.45189,-0.61243 10.91934,-1.09145 5.46746,-0.48054 10.94582,-0.82617 5.4768,-0.34714 10.96294,-0.55937 5.48458,-0.21374 10.97382,-0.29408 5.4877,-0.0788 10.97696,-0.0258 5.48924,0.0546 10.9754,0.24103 c 71.81174,2.17229 138.49853,22.85528 199.78793,59.06113 12.62247,7.45673 23.70373,17.04484 36.1643,24.4849 -15.69091,-15.69569 -34.64176,-28.41563 -53.87439,-39.64394 q -5.86443,-3.45019 -11.84252,-6.70939 -5.97808,-3.25919 -12.06359,-6.32586 -6.0855,-3.06516 -12.27064,-5.93477 -6.1867,-2.86809 -12.4668,-5.53759 -6.27855,-2.66799 -12.64582,-5.13286 -6.36574,-2.46485 -12.81398,-4.72506 -6.44667,-2.26022 -12.96497,-4.31123 -6.51984,-2.05102 -13.10663,-3.89133 -6.58525,-1.84031 -13.22963,-3.46839 -6.64439,-1.62808 -13.34018,-3.04242 -6.69576,-1.41434 -13.43667,-2.6119 -6.74091,-1.19757 -13.51764,-2.17836 -6.77673,-0.98079 -13.58301,-1.7448 -6.80787,-0.7625 -13.63595,-1.30519 -6.82967,-0.54422 -13.67331,-0.86862 -6.84212,-0.32289 -13.69357,-0.42748 c -5.167,-0.0682 -10.89755,-0.36534 -15.99449,0.30924 z M 30.631361,502.49017 c 1.172266,17.87554 2.0394,35.26448 5.079816,52.98237 q 0.723909,4.11416 1.536554,8.21165 0.814204,4.099 1.717144,8.1783 0.90294,4.08081 1.894618,8.1404 0.991676,4.06111 2.072092,8.10099 1.08197,4.03837 2.249566,8.054 1.16915,4.01563 2.425484,8.007 1.256331,3.98986 2.599844,7.95396 1.343513,3.96408 2.77265,7.89785 1.43069,3.9353 2.945452,7.84026 1.514759,3.90346 3.116699,7.77508 1.600384,3.87312 3.284833,7.71139 1.684451,3.83676 3.452969,7.63865 1.768518,3.8034 3.619543,7.5674 1.851028,3.76398 3.784563,7.49007 1.933539,3.72457 3.948029,7.40974 2.01449,3.68365 4.108377,7.32636 2.093888,3.6412 4.26717,7.23844 2.174841,3.59725 4.425963,7.14901 2.251123,3.55177 4.580086,7.05653 2.328959,3.50325 4.734209,6.95801 2.405238,3.45626 4.885208,6.85945 2.47998,3.40474 5.03467,6.7564 2.55314,3.35317 5.18101,6.65027 2.62631,3.29859 5.32423,6.54264 2.69948,3.24252 5.46745,6.42894 2.768,3.18643 5.60602,6.31527 2.83804,3.12729 5.74301,6.19701 2.90653,3.06819 5.87846,6.07574 2.97191,3.00755 6.00921,5.95296 3.0373,2.9454 6.13688,5.82714 3.10113,2.88173 6.26453,5.69827 3.1634,2.81807 6.38754,5.56792 c 4.9397,4.26424 12.24418,11.01607 18.60833,12.9822 q -5.39739,-5.03431 -10.6469,-10.21415 -5.24795,-5.17985 -10.34489,-10.50219 -5.09851,-5.32386 -10.03821,-10.78263 -4.94126,-5.46029 -9.72216,-11.05398 -4.78091,-5.59367 -9.39836,-11.31773 -4.6159,-5.72254 -9.0652,-11.56937 -4.45089,-5.84685 -8.72894,-11.81497 -4.27807,-5.9666 -8.38178,-12.0484 -4.10371,-6.08181 -8.02994,-12.27428 -3.926228,-6.19247 -7.671876,-12.49105 -3.744089,-6.29706 -7.306031,-12.6957 -3.560386,-6.39862 -6.935512,-12.89124 -3.375131,-6.49414 -6.560328,-13.07619 -3.185199,-6.58358 -6.178912,-13.25203 -2.992156,-6.66847 -5.791269,-13.41575 -2.799116,-6.74881 -5.402073,-13.57038 -9.33609,-25.15794 -15.146042,-51.30273 c -1.676668,-7.59924 -7.189271,-47.71158 -9.793786,-50.2689 z M 817.77088,207.69382 c 12.81241,14.8498 26.93408,28.66576 39.51141,43.65957 q 7.29201,8.5709 14.16371,17.4632 6.87325,8.8923 13.31214,18.08778 6.44045,9.19395 12.43099,18.67137 5.99209,9.47744 11.52338,19.21712 5.53285,9.73817 10.59087,19.71889 5.05957,9.9792 9.635,20.1782 4.5754,10.199 8.65732,20.59355 4.0819,10.39607 7.66098,20.96495 5.19656,15.7457 9.05274,31.85218 c 2.41304,10.45671 4.10372,31.8734 8.89085,39.96075 -6.44044,-93.56009 -43.89845,-172.89796 -111.11611,-239.84331 -8.28837,-8.25561 -16.55961,-16.59157 -25.4956,-24.19079 -2.58739,-2.19958 -5.53285,-5.2329 -8.81768,-6.33346 z"
     id="path1"
     style="stroke-width:1.53621" />
  <path
     fill="currentColor"
     d="m 485.90772,246.96939 c 65.25145,-4.48405 131.71716,20.90734 180.63782,62.26879 49.89991,42.19064 83.09696,104.78534 87.62256,169.12335 q 0.23664,3.17127 0.39231,6.34709 0.15718,3.17581 0.23197,6.35467 0.0763,3.17884 0.0716,6.35921 -0.003,3.17886 -0.0887,6.3577 -0.0841,3.17886 -0.24909,6.35467 -0.16501,3.1743 -0.41099,6.34559 -0.24442,3.17126 -0.56979,6.33496 -0.32537,3.16369 -0.73013,6.31828 -0.40633,3.1546 -0.89048,6.30009 -0.48418,3.14399 -1.04929,6.27584 -0.56355,3.13187 -1.20651,6.24856 -0.64296,3.11822 -1.36375,6.21825 -0.72236,3.10154 -1.52255,6.18488 -0.79863,3.08183 -1.67665,6.14548 -0.87804,3.06213 -1.83236,6.10302 -0.95431,3.04091 -1.98491,6.05756 -1.03059,3.01665 -2.13904,6.00904 -1.10687,2.99088 -2.28848,5.95447 -1.18315,2.9636 -2.43949,5.89839 -1.25633,2.93479 -2.58739,5.83926 -1.3295,2.90296 -2.73374,5.77408 -1.40421,2.87112 -2.88006,5.70738 -1.47429,2.83625 -3.02174,5.63613 -1.54745,2.80138 -3.16495,5.56336 -1.61595,2.76198 -3.30352,5.48455 -1.686,2.72257 -3.44053,5.4042 -1.75449,2.68163 -3.5775,5.32082 -1.82145,2.63768 -3.70983,5.2329 -1.8884,2.59371 -3.84218,5.14195 -1.95219,2.54823 -3.96982,5.04796 -2.01604,2.50123 -4.09591,4.95246 -2.07988,2.45121 -4.22048,4.8524 c -45.20304,50.29315 -107.73007,79.56981 -176.03905,84.05082 -66.82378,0.68822 -130.07473,-16.96599 -181.34616,-60.06163 q -2.42392,-2.01464 -4.79647,-4.08839 -2.37256,-2.07377 -4.69064,-4.2036 -2.31805,-2.12985 -4.58163,-4.31579 -2.26358,-2.18593 -4.47111,-4.42492 -2.20597,-2.24051 -4.35591,-4.53255 -2.14837,-2.29205 -4.23915,-4.63565 -2.08921,-2.34358 -4.11926,-4.73719 -2.03007,-2.39362 -3.99785,-4.83573 -1.9678,-2.44213 -3.87175,-4.93123 -1.9055,-2.48761 -3.74564,-5.02219 -1.84168,-2.5346 -3.61643,-5.11165 -1.77631,-2.57855 -3.48567,-5.19802 -1.70935,-2.61948 -3.35176,-5.27989 -1.64087,-2.66042 -3.21479,-5.36024 -1.57393,-2.69983 -3.07778,-5.43604 -1.50387,-2.73621 -2.93767,-5.5088 -1.4338,-2.77258 -2.79601,-5.57852 -1.36373,-2.80594 -2.65432,-5.64371 -1.29059,-2.83929 -2.50799,-5.70738 -1.21741,-2.86809 -2.36166,-5.76498 -1.14425,-2.8969 -2.21532,-5.82108 -1.06952,-2.92417 -2.06431,-5.8726 -0.99479,-2.94844 -1.91484,-5.92113 -0.92007,-2.97117 -1.7623,-5.96508 -0.84378,-2.9939 -1.61128,-6.00601 -0.76595,-3.0121 -1.45561,-6.04391 -0.68966,-3.03029 -1.30147,-6.07574 -0.61182,-3.04698 -1.14737,-6.10607 -0.53396,-3.0606 -0.98854,-6.13183 -0.45616,-3.07273 -0.83446,-6.15456 -0.37674,-3.08184 -0.67565,-6.17277 -0.2989,-3.08941 -0.5184,-6.1864 -0.25064,-3.11064 -0.4219,-6.2243 -0.17125,-3.11519 -0.2631,-6.23341 -0.0919,-3.11821 -0.10589,-6.23793 -0.0144,-3.11974 0.0528,-6.23795 0.0654,-3.11822 0.20859,-6.23492 0.14472,-3.11669 0.36741,-6.22733 0.22262,-3.11215 0.52463,-6.21825 0.30203,-3.10455 0.68188,-6.20307 0.37987,-3.09699 0.83912,-6.18489 0.45769,-3.08637 0.99478,-6.16215 0.53554,-3.07577 1.15048,-6.13637 0.61337,-3.06213 1.30458,-6.10758 0.69123,-3.04698 1.45873,-6.07423 0.76905,-3.02878 1.61282,-6.03785 0.84379,-3.00907 1.76542,-5.99691 0.92005,-2.98786 1.91486,-5.95296 0.99634,-2.96511 2.06586,-5.90444 1.0695,-2.94085 2.21375,-5.85442 1.14425,-2.91357 2.36322,-5.79986 1.21741,-2.88476 2.50643,-5.73921 1.29058,-2.85596 2.65278,-5.67857 1.36219,-2.82413 2.796,-5.6134 1.43226,-2.79077 2.93611,-5.54517 1.5023,-2.7544 3.07467,-5.47242 1.57236,-2.71801 3.21322,-5.39662 1.64085,-2.68011 3.34866,-5.3193 1.70781,-2.63919 3.48255,-5.23594 1.77318,-2.59673 3.61331,-5.15104 1.83858,-2.5543 3.74254,-5.06311 1.9024,-2.50883 3.86863,-4.97217 1.96622,-2.46334 3.99473,-4.87818 2.02849,-2.41483 4.11616,-4.77964 c 46.21652,-52.05615 110.80475,-80.969 180.70786,-85.85929 z m 5.36938,132.52488 c -36.16274,4.05655 -68.2716,18.22267 -91.32771,46.35027 q -1.87437,2.24657 -3.632,4.58107 -1.75916,2.33298 -3.39691,4.74932 -1.63775,2.41483 -3.15096,4.90698 -1.51319,2.49063 -2.8972,5.05251 -1.38553,2.56188 -2.63875,5.18591 -1.25321,2.62403 -2.37255,5.30566 -1.11777,2.68316 -2.10013,5.41482 -0.98078,2.73165 -1.823,5.50878 -0.84067,2.77563 -1.54122,5.58915 -0.699,2.81351 -1.25633,5.65583 -0.55578,2.84384 -0.96677,5.71042 -0.41256,2.86657 -0.6772,5.74983 -0.26621,2.88323 -0.38454,5.77559 -0.11836,2.89234 -0.0902,5.7862 0.0265,2.89386 0.20236,5.78469 0.17437,2.88931 0.49507,5.7665 0.17437,1.50833 0.3892,3.0121 0.21328,1.5053 0.46393,3.00301 0.25219,1.49771 0.54176,2.99087 0.28957,1.49166 0.61806,2.97573 0.32692,1.48406 0.69276,2.96055 0.36585,1.47499 0.76906,2.94238 0.40166,1.46739 0.84222,2.92265 0.44058,1.45679 0.91696,2.90297 0.47793,1.44465 0.99166,2.87869 0.51375,1.43405 1.0633,2.85445 0.54955,1.42041 1.13645,2.82717 0.58538,1.40675 1.20808,2.79987 0.62116,1.3916 1.27812,2.76956 0.65698,1.37644 1.3482,2.73773 0.69277,1.35976 1.41823,2.70284 0.72704,1.34461 1.48675,2.66952 0.76125,1.32641 1.55523,2.63313 0.79395,1.3067 1.62062,2.5937 0.82666,1.287 1.686,2.5543 0.85934,1.26579 1.7514,2.51185 0.89048,1.24607 1.81367,2.46941 0.92317,1.22333 1.87592,2.42545 0.95431,1.2006 1.93821,2.37845 0.9839,1.17786 1.99737,2.33147 1.01346,1.15359 2.05653,2.28295 1.04305,1.12934 2.11412,2.2314 1.07107,1.10358 2.17016,2.1814 1.09911,1.07628 2.22467,2.1268 1.12712,1.05053 2.27915,2.07224 1.15202,1.02323 2.33051,2.01768 1.17849,0.99442 2.38189,1.96006 1.2034,0.96562 2.43016,1.90245 c 24.11005,18.53496 52.85624,27.29992 83.38184,26.73601 35.66769,-4.05505 67.27059,-18.1105 89.94373,-45.97131 q 0.96519,-1.18695 1.90084,-2.39665 0.93408,-1.20969 1.83858,-2.44212 0.90448,-1.23091 1.7763,-2.48456 0.87335,-1.25215 1.71402,-2.5255 0.84222,-1.27336 1.65021,-2.56642 0.80952,-1.29307 1.58482,-2.60433 0.77684,-1.31277 1.51943,-2.64222 0.74257,-1.33096 1.45092,-2.67861 0.70834,-1.34762 1.38399,-2.71043 0.67408,-1.36432 1.31394,-2.74378 0.6414,-1.37947 1.24698,-2.7741 0.60404,-1.39463 1.17383,-2.80443 0.56978,-1.40827 1.10532,-2.8302 0.53398,-1.42191 1.03215,-2.85596 0.49818,-1.43404 0.96054,-2.8787 0.46237,-1.44617 0.88738,-2.90296 0.42499,-1.45526 0.8142,-2.92114 0.3892,-1.46589 0.74103,-2.94085 0.35028,-1.47499 0.66475,-2.95753 0.31448,-1.48256 0.59159,-2.97269 0.27711,-1.49013 0.51685,-2.98633 0.23975,-1.49469 0.44057,-2.99694 0.20239,-1.50076 0.36586,-3.00604 0.16345,-1.5053 0.28955,-3.01514 0.12459,-1.50833 0.21329,-3.0212 0.0871,-1.51135 0.13705,-3.02422 0.0498,-1.51287 0.0607,-3.02727 0.0127,-1.51438 -0.016,-3.02725 -0.0265,-1.51439 -0.0902,-3.02726 -0.0654,-1.51136 -0.16815,-3.02271 -0.10271,-1.51136 -0.24441,-3.01817 -0.14009,-1.50833 -0.31916,-3.0121 -0.34559,-2.88931 -0.83755,-5.75893 -0.49195,-2.86959 -1.12867,-5.71191 -0.63673,-2.84384 -1.41512,-5.6513 -0.77997,-2.80897 -1.70002,-5.577 -0.92007,-2.76805 -1.97869,-5.48759 -1.06017,-2.72104 -2.25422,-5.38752 -1.19562,-2.66648 -2.52513,-5.27231 -1.32794,-2.60584 -2.78666,-5.14347 -1.46026,-2.53914 -3.04509,-5.00551 -1.58481,-2.46637 -3.29418,-4.85241 -1.70779,-2.38755 -3.53548,-4.6887 -1.82611,-2.30265 -3.76743,-4.51435 -1.94132,-2.21171 -3.99162,-4.32791 -2.0503,-2.11619 -4.2049,-4.13084 -2.15616,-2.01462 -4.41039,-3.92467 -2.25424,-1.90852 -4.60189,-3.70791 c -22.77743,-17.42531 -54.97036,-29.16751 -84.21783,-26.30092 z"
     id="path2"
     style="stroke-width:1.53621" />
</svg>
