<?xml version="1.0" encoding="UTF-8"?>
<svg width="2658" height="772" version="1.1" xmlns="http://www.w3.org/2000/svg">
 <g fill="#333">
  <path d="m860.26 551.17v-312.74a23.06 23.06 135 0 1 23.062-23.062h202.27a13.14 13.14 45 0 1 13.139 13.139v65.542h-152.07v-7.063h7.063v67.425h-7.063v-7.062h125.42a12.3 12.3 45 0 1 12.298 12.298v51.617a14.876 14.876 135 0 1-14.876 14.876h-122.84v-7.063h7.063v121.52a17.63 17.63 135 0 1-17.632 17.632h-75.835zm14.125 0h-7.062v-7.062h79.342v7.062h-7.062v-139.15h137.72v7.062h-7.06v-64.666h7.06v7.063h-137.72v-81.55h152.07v7.062h-7.07v-64.555h7.07v7.062h-224.35v-7.062h7.062zm-7.062 0v-328.74h224.35v64.555h-145.01v67.425h130.66v64.666h-130.66v132.09zm400.64-106.49v-132.1a14.994 14.994 135 0 1 14.994-14.994h59.815a17.77 17.77 45 0 1 17.771 17.77v232.26a10.62 10.62 135 0 1-10.618 10.618h-67.704a10.62 10.62 45 0 1-10.618-10.618v-42.24h7.06v7.063h-2.54v-7.063l6.65 2.398q-8.96 24.801-30.63 39.333-21.43 14.328-51.28 14.328-27.23 0-48-12.486-20.83-12.644-32.33-35.175-11.36-22.365-11.48-51.959v-148.75a15.48 15.48 135 0 1 15.478-15.478h58.413a18.7 18.7 45 0 1 18.699 18.7v130.05q0.09 17.368 8.68 26.96 8.34 9.125 23.21 9.125 9.87 0 17.66-4.305 7.72-4.223 12.25-12.367 4.71-8.405 4.52-20.96zm14.12-0.108q0.25 16.357-6.29 28.036-6.51 11.718-17.77 17.869-10.97 6.068-24.49 6.068-21.1 0-33.73-13.828-12.16-13.582-12.29-36.382v-141.69h7.06v7.062h-78.46v-7.062h7.07v157.11q0.1 26.243 9.93 45.592 9.68 18.96 27.03 29.492 17.41 10.467 40.72 10.467 25.56 0 43.41-11.936 17.83-11.952 25.21-32.396l1.68-4.664h14.56v52.858h-7.06v-7.062h74.82v7.062h-7.06v-246.52h7.06v7.062h-78.46v-7.062h7.06v140.04zm-7.06 0.108v-140.04h78.46v246.52h-74.82v-45.796h-2.54q-8.16 22.622-27.91 35.864-19.65 13.132-47.35 13.132-25.27 0-44.36-11.476-19.09-11.587-29.68-32.333-10.6-20.857-10.71-48.776v-157.14h78.46v141.69q0.11 20.084 10.49 31.671 10.48 11.475 28.47 11.476 11.69 0 21.07-5.186 9.49-5.187 15.01-15.118 5.63-10.042 5.41-24.498m213.93-34.099v137.43a10.22 10.22 135 0 1-10.218 10.218h-68.776a13.587 13.587 45 0 1-13.586-13.587v-234.35a12.71 12.71 135 0 1 12.712-12.712h65.989a10.02 10.02 45 0 1 10.019 10.019v42.177h-7.06v-7.062h2.65v7.062l-6.64-2.408q8.97-24.726 30.69-38.926 21.63-14.062 50.98-14.062 27.9 0 48.79 12.603 20.93 12.632 32.44 35.291 11.48 22.243 11.36 51.781v150.12a14.06 14.06 135 0 1-14.058 14.058h-63.646a14.886 14.886 45 0 1-14.886-14.886v-133.98q0.1-17.689-8.63-27.236-8.4-9.29-23.92-9.29-10.47 0-18.21 4.463-7.45 4.258-11.57 12.407-4.33 8.47-4.43 20.925zm-14.12-0.055q0.12-15.795 5.94-27.188 6.04-11.935 17.12-18.271 11.02-6.351 25.27-6.351 21.78 0 34.35 13.884 12.45 13.627 12.33 36.767v141.8h-7.06v-7.062h78.46v7.062h-7.07v-157.17q0.11-26.079-9.82-45.328-9.68-19.053-27.15-29.595-17.52-10.57-41.49-10.571-25.16 0-43.25 11.76-17.78 11.622-25.15 31.92l-1.68 4.654h-14.67v-52.196h7.07v7.062h-74.6v-7.062h7.06v246.52h-7.06v-7.062h78.46v7.062h-7.06v-140.59zm7.06 0.055v140.59h-78.46v-246.52h74.6v45.133h2.65q8.16-22.511 27.91-35.422 19.87-12.912 47.12-12.912 25.94 0 45.14 11.587t29.79 32.444q10.71 20.745 10.6 48.554v157.14h-78.46v-141.8q0.11-20.415-10.49-32.002-10.48-11.587-29.13-11.587-12.36 0-21.74 5.408-9.27 5.295-14.35 15.338-5.07 9.931-5.18 24.057m201.15 116.23v-214.66a14.57 14.57 135 0 1 14.568-14.568h59.381a18.63 18.63 45 0 1 18.631 18.63v228.75a13.273 13.273 135 0 1-13.273 13.273h-79.307zm14.12 24.355h-7.06v-7.062h78.46v7.062h-7.06v-246.52h7.06v7.062h-78.46a7.06 7.06 134.99 0 1 7.06-7.062zm32.23-268.26q-19.41 0-33.36-12.781-14.09-13.175-14.09-31.801 0-18.555 14.2-31.58 13.93-12.891 33.25-12.891 19.45 0 33.29 12.937 14.05 12.998 14.05 31.534 0 18.625-14.05 31.755-13.86 12.827-33.29 12.827m0-14.125q13.89 0 23.65-9.022 9.56-8.94 9.56-21.435 0-12.362-9.56-21.214-9.78-9.132-23.65-9.132-13.79 0-23.7 9.178-9.63 8.826-9.63 21.168 0 12.495 9.52 21.389 9.89 9.068 23.81 9.068m-39.29 282.39v-227.89a18.63 18.63 135 0 1 18.63-18.631h59.83v246.52zm39.29-275.33q-16.67 0-28.58-10.925-11.81-11.036-11.81-26.595 0-15.449 11.92-26.374 11.91-11.035 28.47-11.035 16.66 0 28.47 11.035 11.81 10.925 11.81 26.374 0 15.56-11.81 26.595-11.81 10.925-28.47 10.925m242.9 367.8v-132.42h7.06v7.062h-1.65v-7.062l6.47 2.827q-5.44 12.455-15.41 23.259-10.14 10.995-25.25 17.768-15.05 6.797-35.23 6.797-29.18 0-53.31-15.213-24.15-15.348-38.26-45.342-13.92-29.684-13.92-73.301 0-45.122 14.52-74.627 14.71-29.893 38.89-44.427 24.07-14.582 51.75-14.582 21.03 0 36.28 7.317 15.24 7.26 25.16 18.889 9.65 11.197 14.82 23.6l-6.51 2.721v-7.062h2.42v7.062h-7.06v-34.31a15.02 15.02 135 0 1 15.018-15.017h57.193a19.6 19.6 45 0 1 19.599 19.599v317.98a15.543 15.543 135 0 1-15.543 15.543h-77.037zm14.12 0h-7.06v-7.063h78.46v7.063h-7.06v-339h7.06v7.062h-77.69v-7.062h7.07v49.327h-14.2l-1.81-4.342q-4.31-10.329-12.54-19.878-7.96-9.337-20.53-15.319-12.34-5.925-30.16-5.926-23.74 0-44.47 12.564-20.62 12.393-33.5 38.557-13.06 26.555-13.06 68.39 0 40.47 12.57 67.286 12.36 26.286 33.01 39.409 20.68 13.035 45.78 13.036 17.13 0 29.45-5.562 12.47-5.587 20.65-14.454 8.35-9.06 12.84-19.338l1.85-4.235h13.34zm-50.87-157.14q11.89 0 20.11-6.526 8.59-6.91 13.32-19.751 4.97-13.597 4.97-32.32 0-18.925-4.96-32.303-4.71-12.785-13.26-19.378-8.27-6.474-20.18-6.474-12.08 0-20.19 6.502-8.49 6.813-13.11 19.621-4.77 13.389-4.77 32.032 0 18.66 4.79 32.313 4.62 12.888 13.13 19.811 8.16 6.473 20.15 6.473m0 14.125q-16.92 0-29.06-9.639-11.57-9.41-17.55-26.095-5.58-15.922-5.58-36.988 0-21.083 5.6-36.827 5.97-16.545 17.56-25.844 11.98-9.609 29.03-9.609 16.78 0 28.81 9.417 11.77 9.077 17.87 25.645 5.85 15.755 5.85 37.218 0 21.225-5.84 37.203-6.09 16.512-17.8 25.933-12.08 9.586-28.89 9.586m43.81 143.02v-132.42h-1.65q-4.97 11.366-14.13 21.298-9.16 9.93-22.95 16.111-13.69 6.18-32.34 6.18-27.14 0-49.54-14.125-22.4-14.236-35.65-42.375-13.24-28.25-13.24-70.294 0-43.479 13.8-71.508 13.79-28.03 36.19-41.492 22.4-13.575 48.11-13.574 19.43 0 33.22 6.622 13.9 6.62 22.84 17.104 8.94 10.373 13.69 21.739h2.42v-42.264h77.69v339zm-43.81-150.08q14.35 0 24.5-8.055 10.15-8.166 15.56-22.843 5.41-14.787 5.41-34.761 0-20.195-5.41-34.76-5.41-14.678-15.56-22.512-10.15-7.945-24.5-7.945-14.56 0-24.61 8.055-10.04 8.055-15.34 22.733-5.18 14.566-5.18 34.429 0 19.864 5.18 34.651 5.3 14.787 15.34 22.953 10.16 8.055 24.61 8.055m340.28 64.666h-83.499a8.442 8.442 54.33 0 1-7.998-11.143l106.79-316.22a22.795 22.795 144.33 0 1 21.597-15.501h84.99a20.36 20.36 35.68 0 1 19.29 13.851l107.27 317.99a8.352 8.352 125.68 0 1-7.913 11.021h-88.799l-78.69-250.81 6.74-2.114v7.062h-2.54v-7.062l6.74 2.117-78.8 250.81zm0-14.124v7.062l-6.74-2.117 78.8-250.81h12.91l78.68 250.81-6.73 2.114v-7.062h85.41v7.062l-6.69 2.258-110.91-328.74 6.69-2.257v7.062h-105.82v-7.062l6.69 2.259-111.02 328.74-6.69-2.26v-7.062zm-11.26-129.44h185.5v74.598h-192.56v-74.598zm0 14.125v-7.062h7.06v60.472h-7.06v-7.062h178.44v7.062h-7.06v-60.472h7.06v7.062zm11.26 122.38h-85.42l111.02-328.74h105.82l110.91 328.74h-85.41l-77.14-245.86h-2.54zm-11.26-129.44h178.44v60.472h-178.44zm301.7-206.36h55.434a18.366 18.366 45 0 1 18.366 18.366v308.12a16.38 16.38 135 0 1-16.38 16.38h-60.71a16.38 16.38 45 0 1-16.38-16.38v-306.81a19.67 19.67 135 0 1 19.67-19.67"/>
  <path d="m615.904 620.617.394.269c-1.126 2.981-9.919 8.152-12.71 10.041-54.077 36.593-118.672 56.219-185.021 53.226-17.265-.778-33.843-3.386-50.838-6.143-1.128-.179-1.613-.343-2.479-1.062 1.991-.558 4.755.145 6.816.407 14.1 1.78 27.819 3.42 42.063 3.728 74.616 1.614 139.157-23.535 201.775-60.466M344.186 94.07c15.757-.323 30.686 1.386 46.111 4.3-18.376.52-36.662-.39-55.049.877-57.788 3.976-117.231 22.44-166.628 51.383-10.113 6.139-19.722 13.019-29.875 19.134.163-.177.32-.359.49-.532 8.622-8.775 20.778-16.382 31.274-23.06 52.21-33.213 111.315-49.2 173.677-52.102"/>
  <path d="M390.895 19.076c33.081-2.636 86.377 9.401 117.776 19.124q4.107 1.306 8.178 2.706t8.106 2.892 8.031 3.077q3.996 1.584 7.949 3.26 3.954 1.677 7.865 3.442t7.774 3.62 7.679 3.798 7.58 3.973q3.764 2.03 7.477 4.144 3.711 2.115 7.369 4.315 3.656 2.2 7.257 4.482 3.6 2.284 7.14 4.648 3.541 2.365 7.019 4.81 3.48 2.444 6.895 4.97 3.416 2.522 6.766 5.125 3.351 2.601 6.634 5.278 3.283 2.678 6.498 5.43 3.213 2.751 6.356 5.576 3.143 2.826 6.213 5.72 3.069 2.897 6.065 5.862 2.995 2.966 5.914 5.998t5.759 6.133q2.841 3.099 5.6 6.262 2.76 3.163 5.44 6.389t5.275 6.512q2.596 3.286 5.109 6.63t4.937 6.746q2.426 3.401 4.762 6.857 2.339 3.455 4.588 6.963t4.41 7.067q2.158 3.559 4.227 7.166 2.067 3.607 4.042 7.26 1.972 3.706 3.849 7.455 1.874 3.75 3.652 7.541 1.778 3.793 3.456 7.625 1.678 3.833 3.256 7.703 1.58 3.87 3.058 7.776t2.852 7.845q1.375 3.941 2.649 7.911 1.273 3.971 2.443 7.969t2.234 8.023q1.067 4.026 2.027 8.074t1.815 8.118 1.605 8.158 1.393 8.193 1.18 8.223q.535 4.118.965 8.248t.751 8.268q.322 4.139.537 8.283.211 4.144.324 8.293.105 4.148.105 8.298t-.113 8.298-.326 8.292q-.216 4.145-.539 8.284-.324 4.138-.755 8.268-.433 4.129-.97 8.247-.538 4.118-1.184 8.222-.644 4.104-1.396 8.192t-1.609 8.158-1.82 8.117-2.03 8.072-2.239 8.023-2.447 7.968-2.652 7.908c-5.111 14.723-11.328 29.248-19.303 42.799-31.408 53.371-85.233 98.473-142.492 125.774-77.576 36.988-163.172 46.386-247.381 25.781-20.993-5.137-41.005-13.23-61.577-19.656 16.521 9.972 33.649 18.049 51.892 24.814q3.52 1.324 7.075 2.562 3.554 1.24 7.14 2.396t7.201 2.226 7.256 2.057q3.643.985 7.31 1.883 3.668.9 7.356 1.712 3.689.813 7.398 1.538 3.71.725 7.437 1.362t7.469 1.187q3.744.549 7.5 1.01t7.523.834 7.542.655q3.776.284 7.559.479 3.78.194 7.566.3t7.573.121q3.789.015 7.575-.057 3.787-.074 7.571-.236 3.782-.163 7.561-.414 3.777-.251 7.548-.592t7.531-.77 7.507-.946q3.749-.519 7.481-1.124 3.734-.607 7.45-1.301 3.716-.692 7.412-1.475 3.698-.78 7.372-1.648 3.676-.868 7.326-1.822 3.652-.955 7.277-1.995 3.625-1.039 7.221-2.165 3.597-1.125 7.162-2.334 3.567-1.21 7.1-2.503t7.032-2.67q3.498-1.375 6.958-2.834c77.297-32.063 138.898-85.004 169.999-160.247-1.223 7.416-3.678 14.969-5.872 22.185q-1.208 3.924-2.525 7.815-1.32 3.892-2.746 7.749-1.428 3.857-2.963 7.677t-3.176 7.6q-1.643 3.78-3.39 7.516t-3.6 7.428q-1.852 3.693-3.806 7.335-1.956 3.644-4.013 7.238-2.057 3.592-4.213 7.132-2.158 3.538-4.413 7.023-2.256 3.483-4.609 6.91-2.352 3.425-4.8 6.791-2.449 3.365-4.991 6.666t-5.176 6.538q-2.634 3.238-5.357 6.405-2.724 3.17-5.537 6.269-2.826 3.129-5.735 6.192-2.907 3.062-5.894 6.055-2.987 2.994-6.05 5.916-3.065 2.922-6.203 5.772t-6.351 5.626-6.497 5.474q-3.282 2.701-6.635 5.322-3.353 2.623-6.773 5.164-3.419 2.544-6.905 5.006t-7.034 4.841q-3.548 2.381-7.157 4.676-3.609 2.297-7.276 4.507-3.67 2.21-7.393 4.334-3.724 2.126-7.502 4.162-3.779 2.036-7.609 3.985-3.831 1.947-7.711 3.804-3.879 1.857-7.807 3.624-3.926 1.767-7.898 3.44t-7.987 3.254q-4.013 1.58-8.067 3.067-4.054 1.485-8.147 2.876-4.09 1.389-8.218 2.685-4.126 1.294-8.285 2.491-4.159 1.199-8.347 2.298-4.19 1.101-8.406 2.102t-8.457 1.904-8.505 1.706q-4.263.804-8.546 1.506-4.283.704-8.582 1.306-4.301.604-8.615 1.106t-8.641.903q-4.325.4-8.66.7c-9.972.263-19.894 1.104-29.885 1.009q-7.341-.116-14.673-.492-7.332-.377-14.643-1.013-7.313-.635-14.594-1.53-7.28-.894-14.522-2.047-7.241-1.151-14.432-2.558-7.191-1.408-14.321-3.069t-14.189-3.575q-7.06-1.913-14.039-4.074c-92.628-28.378-166.091-93.432-209.913-174.983-41.362-76.975-45.963-168.3-17.777-250.097 6.614-19.192 15.394-37.942 26.965-54.925 9.459-13.885 20.74-26.05 32.779-37.95 31.342-30.983 66.717-56.944 107.236-76.308 72.66-34.725 160.325-45.453 239.567-27.27 18.896 4.337 36.303 11.786 54.674 17.507-5.684-3.417-11.359-6.864-17.257-9.945-65.76-34.346-147.253-39.523-218.731-19.965q-3.424.929-6.828 1.924-3.404.997-6.785 2.061-3.38 1.063-6.736 2.193-3.356 1.129-6.688 2.326-3.331 1.196-6.635 2.459-3.304 1.262-6.579 2.588t-6.522 2.718q-3.245 1.392-6.459 2.847t-6.396 2.974q-3.181 1.518-6.328 3.099t-6.259 3.224q-3.112 1.644-6.187 3.348t-6.111 3.469q-3.038 1.765-6.035 3.589t-5.954 3.708q-2.956 1.883-5.87 3.824t-5.785 3.941q-2.871 1.997-5.697 4.052-2.827 2.056-5.608 4.166t-5.513 4.276q-2.734 2.163-5.418 4.383-2.686 2.218-5.321 4.489-2.636 2.272-5.221 4.594t-5.119 4.696-5.013 4.797q-2.481 2.423-4.908 4.894-2.426 2.471-4.798 4.991t-4.688 5.084q-2.315 2.565-4.574 5.176-2.259 2.61-4.46 5.264-2.2 2.656-4.341 5.353-2.143 2.698-4.225 5.438c-9.626 12.932-17.289 27.121-25.361 40.947 13.7-49.533 43.025-95.466 79.019-133.279 68.516-71.98 159.733-104.46 260.35-109.398m-10.677 103.21c-14.276.754-28.281 1.671-42.361 4.113q-2.736.484-5.461 1.021-2.726.539-5.437 1.128-2.714.591-5.412 1.234-2.7.642-5.384 1.338-2.686.694-5.355 1.442-2.669.746-5.322 1.545t-5.288 1.648q-2.635.851-5.25 1.752-2.616.9-5.212 1.852t-5.17 1.953-5.127 2.053q-2.553 1.051-5.082 2.153-2.531 1.1-5.035 2.251-2.505 1.148-4.985 2.347-2.479 1.199-4.932 2.444-2.453 1.246-4.88 2.54-2.426 1.293-4.822 2.633-2.398 1.341-4.765 2.727-2.369 1.386-4.705 2.819-2.338 1.431-4.643 2.909-2.307 1.477-4.58 2.999-2.274 1.52-4.515 3.086-2.239 1.566-4.446 3.174-2.205 1.609-4.376 3.26-2.171 1.652-4.306 3.344-2.134 1.694-4.231 3.427-2.097 1.735-4.158 3.509-2.059 1.774-4.08 3.588-2.021 1.813-4.001 3.666-1.982 1.854-3.923 3.744t-3.839 3.819q-1.901 1.928-3.758 3.893-2.312 2.431-4.559 4.916t-4.429 5.022q-2.181 2.538-4.295 5.126t-4.159 5.226q-2.044 2.638-4.019 5.323t-3.878 5.416-3.735 5.507q-1.831 2.774-3.589 5.592-1.757 2.817-3.44 5.676t-3.289 5.755q-1.607 2.897-3.137 5.832t-2.981 5.904q-1.454 2.969-2.828 5.972-1.372 3.003-2.667 6.037-1.294 3.035-2.509 6.099-1.213 3.064-2.346 6.156t-2.184 6.21-2.018 6.26q-.97 3.142-1.856 6.305-.885 3.163-1.687 6.347t-1.52 6.385-1.351 6.419q-.634 3.218-1.182 6.449-.549 3.232-1.012 6.476-.464 3.243-.841 6.496-.377 3.255-.668 6.516-.293 3.261-.499 6.528-.205 3.268-.326 6.538-.12 3.271-.154 6.544-.033 3.273.02 6.547.053 3.271.191 6.542.139 3.271.363 6.537.208 3.185.498 6.366.289 3.179.661 6.352t.827 6.335q.455 3.163.992 6.313.537 3.152 1.155 6.289.618 3.138 1.318 6.259.7 3.123 1.481 6.228.78 3.106 1.641 6.191.862 3.085 1.803 6.151.94 3.064 1.961 6.107 1.021 3.041 2.12 6.058 1.098 3.017 2.276 6.008t2.432 5.952q1.254 2.963 2.585 5.895t2.738 5.831q1.407 2.901 2.889 5.766 1.481 2.867 3.037 5.698 1.556 2.83 3.185 5.623 1.628 2.794 3.33 5.549 1.701 2.755 3.473 5.469t3.615 5.386 3.752 5.301q1.911 2.628 3.891 5.21 1.978 2.584 4.023 5.12t4.155 5.023q2.112 2.487 4.285 4.924t4.412 4.824q2.237 2.384 4.535 4.718t4.658 4.612q2.358 2.278 4.774 4.501 2.417 2.222 4.891 4.388t5.004 4.273c51.501 43.251 112.877 64.694 181.416 65.629 75.105-2.654 141.998-30.839 193.21-83.248q2.283-2.342 4.505-4.737 2.222-2.393 4.38-4.837 2.16-2.446 4.255-4.939 2.095-2.495 4.125-5.036 2.03-2.543 3.994-5.131t3.86-5.221 3.724-5.311 3.587-5.395q1.757-2.717 3.444-5.474 1.687-2.759 3.302-5.556 1.616-2.797 3.159-5.629 1.542-2.834 3.012-5.702 1.468-2.868 2.863-5.769 1.394-2.901 2.713-5.835 1.319-2.933 2.563-5.894 1.241-2.963 2.407-5.954t2.254-6.007q1.089-3.017 2.098-6.058 1.01-3.041 1.941-6.104.932-3.065 1.783-6.149.852-3.084 1.623-6.187.772-3.103 1.463-6.223t1.302-6.255q.61-3.135 1.138-6.285.53-3.148.977-6.307t.813-6.329.649-6.347.487-6.359q.201-3.183.32-6.368.119-3.187.155-6.374.038-3.188-.009-6.377-.044-3.187-.173-6.373-.112-3.3-.312-6.597-.2-3.296-.486-6.587-.287-3.291-.661-6.573-.373-3.282-.833-6.556-.461-3.272-1.008-6.533t-1.178-6.509q-.634-3.245-1.352-6.477-.717-3.231-1.521-6.443-.803-3.214-1.692-6.406t-1.861-6.364q-.972-3.17-2.028-6.316-1.055-3.146-2.194-6.267t-2.36-6.213-2.522-6.154q-1.302-3.063-2.685-6.093-1.383-3.032-2.844-6.028-1.462-2.997-3.004-5.959-1.541-2.961-3.16-5.884-1.618-2.924-3.314-5.807-1.695-2.885-3.467-5.728t-3.618-5.643-3.764-5.556q-1.92-2.756-3.912-5.465t-4.054-5.369q-2.063-2.661-4.194-5.272-2.133-2.61-4.333-5.17t-4.469-5.067q-2.267-2.505-4.601-4.958-2.333-2.451-4.73-4.847-2.396-2.396-4.856-4.734t-4.981-4.617-5.101-4.498c-48.206-42.147-116.604-68.202-182.582-65.986q-.317.013-.634.028zM23.23 410.519c-1.24 8.699-.402 18.135.298 26.877 4.588 57.358 34.087 115.403 70.435 160.691 20.458 25.489 62.899 67.454 92.554 82.132-.217-.29-.428-.586-.651-.871-4.8-6.13-13.963-10.972-20.333-15.679-5.094-3.764-9.746-7.729-14.329-12.034-40.985-38.496-77.465-83.757-99.11-134.804-7.18-16.933-13.31-34.684-17.406-52.523-1.614-7.032-9.082-51.444-10.963-53.404-.144-.15-.33-.256-.495-.385M566.688 84.297c12.127 8.626 24.581 16.76 36.335 25.858q3.964 3.019 7.841 6.136 3.88 3.115 7.672 6.326 3.792 3.209 7.496 6.512 3.702 3.303 7.315 6.694 3.611 3.392 7.128 6.872t6.94 7.044q3.421 3.565 6.744 7.213 3.324 3.647 6.545 7.376 3.222 3.727 6.341 7.533t6.133 7.687 5.921 7.836 5.705 7.978q2.796 4.023 5.484 8.115 2.687 4.091 5.261 8.248 2.573 4.156 5.034 8.374 2.459 4.217 4.802 8.494c16.218 29.85 28.668 63.892 34.827 96.963.734 3.942 3.839 26.882 6.467 28.695-1.114-14.719-1.96-29.384-4.803-43.92-14.329-73.221-58.079-139.356-117.199-187.772-11.675-9.562-44.593-34.527-57.989-38.262M74.004 523.862c26.839 77.184 97.126 145.309 172.751 181.428 11.347 5.418 37.289 18.183 49.469 18.317l-.694-.421c-15.472-9.221-33.154-15.041-49.092-23.599-53.713-28.838-102.284-68.428-137.605-116.647-9.394-12.823-17.19-26.137-24.32-40.19-2.397-4.724-6.745-15.967-10.509-18.888M468.992 50.65c14.119 6.688 28.878 12.038 42.963 18.853q7.151 3.528 14.156 7.311t13.855 7.814q6.849 4.032 13.532 8.306 6.683 4.275 13.19 8.785 6.507 4.513 12.83 9.254 6.322 4.741 12.452 9.708 6.127 4.965 12.053 10.146t11.64 10.573c24.686 23.306 47.505 49.761 64.798 78.484 3.003 4.988 16.206 32.126 18.634 33.417-6.53-18.46-16.284-35.117-27.045-51.629-35.957-55.176-86.69-102.498-148.314-131.569-13.46-6.35-40.336-18.82-54.744-19.453"/>
  <path d="M376.977 195.382c48.002-2.761 96.692 15.769 133.145 45.064 41.549 33.391 65.97 81.785 70.504 133.179 4.443 50.381-14.684 99.475-48.473 137.729q-2.562 2.909-5.248 5.715-2.685 2.807-5.488 5.505t-5.72 5.285q-2.917 2.586-5.941 5.055-3.025 2.471-6.154 4.821-3.127 2.349-6.353 4.573t-6.544 4.321q-3.319 2.096-6.724 4.061-3.407 1.965-6.894 3.793-3.486 1.83-7.048 3.521t-7.195 3.24q-3.631 1.551-7.326 2.957t-7.447 2.667q-3.752 1.26-7.556 2.372-3.802 1.112-7.651 2.073-3.846.963-7.732 1.773c-10.554 2.162-21.168 3.066-31.899 3.928-50.438 1.319-94.989-12.189-133.845-43.489q-1.917-1.548-3.793-3.14-1.874-1.592-3.71-3.227-1.834-1.636-3.626-3.313-1.791-1.679-3.54-3.398t-3.453-3.48q-1.703-1.76-3.362-3.559-1.658-1.8-3.27-3.637-1.612-1.838-3.176-3.713t-3.079-3.787q-1.516-1.91-2.982-3.857-1.467-1.946-2.882-3.926-1.416-1.979-2.781-3.993t-2.678-4.055q-1.312-2.045-2.573-4.12-1.259-2.074-2.466-4.176-1.206-2.104-2.358-4.234t-2.251-4.288q-1.097-2.157-2.139-4.34-1.041-2.181-2.027-4.387-.985-2.206-1.914-4.435t-1.799-4.478q-.872-2.249-1.685-4.518-.814-2.27-1.569-4.557t-1.452-4.593q-.695-2.305-1.332-4.625t-1.215-4.655q-.577-2.335-1.093-4.681-.519-2.348-.975-4.707-.457-2.359-.855-4.727-.396-2.37-.731-4.746-.336-2.378-.61-4.763-.276-2.385-.488-4.775c-4.461-52.551 15.173-103.579 50.676-143.328q2.357-2.635 4.821-5.18t5.029-4.994 5.232-4.799 5.425-4.599q2.761-2.248 5.612-4.39t5.788-4.175q2.936-2.032 5.955-3.953t6.114-3.725q3.096-1.805 6.265-3.492 3.167-1.686 6.401-3.251 3.236-1.566 6.532-3.009 3.296-1.441 6.65-2.758t6.759-2.505q3.407-1.19 6.858-2.248t6.945-1.988q3.492-.929 7.02-1.724c13.672-2.961 27.428-4.079 41.371-5.135m2.483 103.793c-25.624 2.285-49.264 11.527-65.892 30.889-16.684 19.428-23.212 42.483-20.569 67.38q.219 2.124.548 4.238.33 2.112.769 4.206.438 2.094.985 4.165t1.201 4.113 1.414 4.051q.759 2.008 1.622 3.978.863 1.969 1.826 3.896t2.028 3.804q1.063 1.879 2.223 3.704 1.158 1.825 2.411 3.593 1.253 1.767 2.595 3.474 1.344 1.705 2.775 3.346 1.429 1.64 2.943 3.21 1.513 1.57 3.106 3.067 1.594 1.495 3.263 2.913 1.67 1.419 3.41 2.756c17.038 13.278 38.051 21.038 60.179 20.13q2.298-.104 4.588-.314 2.291-.209 4.566-.526 2.278-.317 4.535-.74 2.259-.423 4.493-.952 2.233-.528 4.437-1.16t4.374-1.364q2.169-.734 4.298-1.569 2.129-.833 4.213-1.766 2.084-.932 4.118-1.961t4.015-2.151q1.978-1.123 3.897-2.336 1.92-1.214 3.775-2.515 1.856-1.303 3.643-2.689 1.787-1.388 3.5-2.856 1.715-1.468 3.352-3.015t3.193-3.168q.78-.81 1.539-1.64t1.495-1.676q.737-.848 1.45-1.713.714-.864 1.406-1.746.691-.882 1.359-1.779.667-.899 1.31-1.813.644-.913 1.263-1.843.621-.929 1.215-1.872.595-.945 1.165-1.902.569-.958 1.114-1.929t1.062-1.956q.519-.985 1.012-1.979.492-.997.958-2.006.466-1.006.905-2.025.441-1.02.853-2.048.412-1.03.797-2.068t.743-2.086.687-2.104q.331-1.055.632-2.118.303-1.065.577-2.136.274-1.069.519-2.146.246-1.077.462-2.16.219-1.082.407-2.169t.348-2.179q.16-1.09.291-2.185.131-1.096.234-2.193.102-1.097.175-2.197.072-1.101.118-2.201.043-1.102.058-2.203.017-1.103.002-2.205t-.057-2.203q-.042-1.102-.115-2.201-.121-2.221-.354-4.433-.235-2.212-.582-4.41-.348-2.199-.807-4.378t-1.032-4.334q-.571-2.156-1.252-4.282-.68-2.125-1.47-4.217t-1.684-4.143q-.896-2.051-1.895-4.058-1.001-2.008-2.101-3.966-1.102-1.958-2.302-3.861t-2.496-3.75q-1.297-1.845-2.688-3.627-1.388-1.782-2.868-3.497t-3.045-3.357-3.213-3.211-3.375-3.057c-16.635-14.144-38.841-22.205-61.167-20.828q-1.746.11-3.488.259z"/>
 </g>
</svg>
