<?xml version="1.0" encoding="UTF-8" standalone="no"?>
<svg
   width="2043"
   height="615"
   version="1.1"
   id="svg3"
   xmlns="http://www.w3.org/2000/svg"
   xmlns:svg="http://www.w3.org/2000/svg">
  <defs
     id="defs3" />
  <path
     transform="matrix(1 0 0 1 -3.8147e-06 0)"
     d="M300.18 15.2693Q303.593 15.2394 307.005 15.2861Q310.418 15.3328 313.828 15.4569Q317.238 15.5803 320.645 15.781Q324.051 15.9817 327.451 16.259Q330.853 16.5364 334.245 16.8903Q337.639 17.2442 341.023 17.6746Q344.407 18.105 347.779 18.6121Q351.152 19.1182 354.512 19.7008Q357.872 20.2835 361.217 20.9408Q364.562 21.5991 367.89 22.3321Q371.218 23.066 374.528 23.8737Q377.839 24.6814 381.129 25.5647Q384.419 26.4471 387.688 27.4032Q390.956 28.3593 394.2 29.3893Q397.445 30.4192 400.664 31.5219Q403.883 32.6247 407.075 33.8002Q410.268 34.9749 413.431 36.2214Q416.595 37.468 419.728 38.7855Q422.86 40.1029 425.961 41.4914Q429.061 42.8789 432.129 44.3365Q435.196 45.7941 438.227 47.3207Q441.258 48.8465 444.253 50.4403Q447.246 52.0352 450.203 53.6963Q453.158 55.3574 456.073 57.0848Q458.989 58.8122 461.862 60.6048Q464.736 62.3968 467.566 64.2542Q470.396 66.1115 473.181 68.0308Q475.966 69.9518 478.705 71.9341Q481.444 73.9163 484.134 75.9604Q486.826 78.0045 489.467 80.108Q492.109 82.2116 494.7 84.3745Q497.29 86.5375 499.829 88.7581C558.288 139.443 591.613 211.572 595.996 287.26C600.609 366.907 579.469 441.671 524.284 501.785Q522.389 503.837 520.455 505.853Q518.519 507.868 516.545 509.847Q514.571 511.826 512.558 513.767Q510.544 515.709 508.493 517.612Q506.442 519.515 504.354 521.379Q502.265 523.244 500.14 525.07Q498.015 526.894 495.854 528.678Q493.694 530.463 491.498 532.207Q489.303 533.951 487.073 535.653Q484.843 537.355 482.58 539.016Q480.317 540.675 478.021 542.293Q475.727 543.91 473.399 545.483Q471.072 547.058 468.714 548.588Q466.357 550.118 463.97 551.603Q461.582 553.089 459.165 554.529Q456.749 555.969 454.304 557.364Q451.859 558.758 449.387 560.108Q446.916 561.456 444.418 562.758Q441.92 564.06 439.396 565.315Q436.873 566.57 434.325 567.778Q431.777 568.984 429.207 570.143Q426.636 571.302 424.042 572.413Q421.448 573.524 418.833 574.586Q416.218 575.648 413.583 576.66Q410.947 577.673 408.292 578.636Q405.636 579.599 402.962 580.512Q400.289 581.425 397.597 582.288Q394.907 583.151 392.199 583.962Q389.491 584.774 386.768 585.535Q384.044 586.296 381.306 587.006Q378.568 587.715 375.817 588.374Q373.065 589.032 370.301 589.638C351.69 593.567 332.732 595.286 313.746 596.322Q310.316 596.374 306.887 596.349Q303.457 596.323 300.029 596.222Q296.601 596.119 293.176 595.939Q289.752 595.76 286.332 595.503Q282.912 595.245 279.499 594.912Q276.086 594.578 272.683 594.167Q269.279 593.756 265.886 593.268Q262.494 592.78 259.113 592.216Q255.733 591.652 252.367 591.012Q249 590.372 245.65 589.656Q242.3 588.94 238.969 588.149Q235.636 587.358 232.324 586.491Q229.011 585.625 225.72 584.684Q222.43 583.744 219.162 582.729Q215.895 581.713 212.652 580.626Q209.41 579.538 206.193 578.376Q202.978 577.216 199.791 575.982Q196.603 574.749 193.447 573.444Q190.289 572.139 187.164 570.764Q184.039 569.387 180.947 567.942Q177.855 566.495 174.798 564.981Q171.742 563.466 168.723 561.882Q165.703 560.297 162.723 558.647Q159.741 556.995 156.8 555.276Q153.859 553.558 150.96 551.774Q148.061 549.99 145.205 548.141Q142.349 546.292 139.538 544.379Q136.726 542.466 133.962 540.49Q131.196 538.513 128.479 536.476Q125.762 534.438 123.094 532.339Q120.426 530.241 117.809 528.083Q115.191 525.924 112.626 523.708Q109.932 521.324 107.3 518.877Q104.667 516.429 102.097 513.92Q99.5266 511.41 97.0215 508.839Q94.5157 506.269 92.076 503.639Q89.6363 501.009 87.2639 498.32Q84.892 495.633 82.5874 492.889Q80.2839 490.146 78.0501 487.347Q75.8163 484.549 73.654 481.698Q71.4916 478.847 69.4025 475.945Q67.314 473.043 65.2981 470.092Q63.2822 467.14 61.3426 464.142Q59.4026 461.143 57.5394 458.099Q55.6753 455.054 53.8898 451.966Q52.1033 448.878 50.3964 445.749Q48.6886 442.618 47.0613 439.448Q45.434 436.278 43.8872 433.07Q42.3396 429.862 40.8743 426.618Q39.4091 423.373 38.0263 420.095Q36.6435 416.817 35.3442 413.505Q34.0449 410.195 32.8299 406.854Q31.6149 403.514 30.4844 400.145Q29.3547 396.776 28.3095 393.381Q27.2653 389.985 26.3064 386.566Q25.3474 383.148 24.4757 379.707Q23.6041 376.265 22.8197 372.805Q22.0363 369.343 21.3391 365.865Q20.6429 362.387 20.034 358.892Q19.4261 355.398 18.9063 351.89Q18.3866 348.383 17.956 344.863Q17.5245 341.344 17.1832 337.816Q16.8418 334.287 16.5896 330.751Q16.3374 327.216 16.1744 323.675C12.1025 245.849 40.6362 164.785 94.4557 106.97Q96.2693 105.021 98.1201 103.106Q99.9709 101.191 101.858 99.3093Q103.745 97.4291 105.669 95.5831Q107.592 93.7371 109.551 91.9266Q111.509 90.116 113.503 88.3414Q115.496 86.5687 117.525 84.8308Q119.552 83.094 121.612 81.3939Q123.673 79.6944 125.767 78.0333Q127.86 76.371 129.985 74.7484Q132.11 73.1257 134.265 71.5421Q136.422 69.9584 138.609 68.415Q140.795 66.8704 143.01 65.3671Q145.226 63.8639 147.471 62.4016Q149.715 60.9392 151.987 59.5182Q154.26 58.097 156.56 56.7179Q158.859 55.3388 161.184 54.0026Q163.51 52.6655 165.861 51.3713Q168.212 50.0781 170.588 48.8278Q172.964 47.5775 175.364 46.3702Q177.763 45.1638 180.186 44.0013Q182.609 42.8397 185.053 41.7221Q187.497 40.6044 189.964 39.5315Q192.429 38.4587 194.915 37.4316Q197.401 36.4044 199.907 35.4231Q202.412 34.4417 204.936 33.5061Q207.46 32.5705 210.002 31.6816Q212.543 30.7927 215.102 29.9514Q217.66 29.1091 220.235 28.3136Q222.81 27.519 225.399 26.7711Q227.988 26.0241 230.59 25.3238Q233.193 24.6244 235.811 23.9717Q238.426 23.3199 241.055 22.7158C260.621 18.3282 280.162 16.2376 300.18 15.2693L300.18 15.2693ZM296.644 107.249Q294.088 107.411 291.537 107.636Q288.986 107.858 286.442 108.142Q283.897 108.426 281.36 108.771Q278.824 109.116 276.297 109.521Q273.769 109.925 271.253 110.39Q268.736 110.855 266.233 111.38Q263.729 111.903 261.239 112.488Q258.748 113.072 256.274 113.715Q253.799 114.358 251.341 115.06Q248.883 115.762 246.444 116.521Q244.005 117.281 241.585 118.099Q239.166 118.917 236.767 119.792Q234.368 120.668 231.993 121.6Q229.617 122.532 227.266 123.519Q224.914 124.507 222.588 125.551Q220.262 126.595 217.963 127.694Q215.664 128.793 213.393 129.946Q211.121 131.099 208.88 132.307Q206.639 133.513 204.429 134.774Q202.219 136.033 200.04 137.345Q197.862 138.657 195.717 140.021Q193.573 141.385 191.463 142.799Q189.354 144.213 187.28 145.677Q185.206 147.141 183.171 148.654Q181.134 150.166 179.136 151.728Q177.139 153.289 175.181 154.897Q173.224 156.504 171.307 158.158Q169.39 159.812 167.514 161.511Q165.639 163.21 163.808 164.954Q161.976 166.697 160.189 168.484Q158.401 170.27 156.66 172.098Q154.918 173.926 153.222 175.796C116.56 216.678 99.6725 269.745 103.434 323.682Q103.62 326.082 103.868 328.478Q104.114 330.874 104.422 333.264Q104.728 335.653 105.096 338.034Q105.462 340.416 105.889 342.788Q106.316 345.159 106.802 347.521Q107.288 349.881 107.834 352.231Q108.378 354.579 108.982 356.914Q109.587 359.249 110.248 361.569Q110.911 363.889 111.631 366.193Q112.351 368.496 113.13 370.782Q113.907 373.068 114.743 375.335Q115.578 377.6 116.469 379.847Q117.36 382.092 118.309 384.316Q119.256 386.541 120.259 388.741Q121.264 390.943 122.321 393.119Q123.38 395.296 124.492 397.446Q125.605 399.596 126.77 401.72Q127.937 403.843 129.156 405.938Q130.375 408.034 131.647 410.099Q132.918 412.165 134.241 414.199Q135.563 416.233 136.937 418.236Q138.31 420.238 139.733 422.208Q141.156 424.176 142.629 426.112Q144.101 428.046 145.621 429.944Q147.142 431.844 148.71 433.707Q150.277 435.569 151.89 437.394Q153.504 439.218 155.163 441.004Q156.822 442.79 158.526 444.535Q160.229 446.28 161.976 447.985Q163.723 449.69 165.512 451.353Q167.301 453.015 169.131 454.634Q170.962 456.254 172.831 457.829C211.788 490.496 266.361 510.801 318.138 506.811L318.613 506.772Q321.184 506.605 323.749 506.377Q326.315 506.148 328.873 505.857Q331.432 505.566 333.983 505.213Q336.534 504.86 339.075 504.446Q341.616 504.03 344.145 503.554Q346.674 503.077 349.191 502.539Q351.707 502.002 354.209 501.403Q356.711 500.805 359.196 500.144Q361.682 499.485 364.15 498.765Q366.618 498.046 369.067 497.266Q371.516 496.486 373.944 495.648Q376.372 494.81 378.777 493.912Q381.183 493.014 383.566 492.059Q385.948 491.103 388.304 490.089Q390.661 489.077 392.992 488.006Q395.321 486.937 397.623 485.81Q399.925 484.684 402.197 483.502Q404.47 482.319 406.711 481.082Q408.953 479.845 411.161 478.554Q413.371 477.263 415.546 475.918Q417.721 474.575 419.861 473.178Q422.001 471.781 424.105 470.333Q426.207 468.884 428.274 467.385Q430.34 465.886 432.367 464.337Q434.393 462.789 436.38 461.191Q438.366 459.594 440.311 457.949Q442.255 456.303 444.158 454.612Q446.06 452.919 447.918 451.181Q449.776 449.443 451.588 447.661Q453.402 445.879 455.168 444.053Q456.936 442.227 458.655 440.359Q460.374 438.491 462.045 436.581Q463.684 434.737 465.277 432.855Q466.87 430.974 468.415 429.054Q469.959 427.133 471.455 425.177Q472.95 423.221 474.395 421.228Q475.84 419.237 477.233 417.21Q478.628 415.184 479.969 413.125Q481.31 411.066 482.6 408.975Q483.889 406.883 485.124 404.762Q486.36 402.641 487.542 400.49Q488.723 398.339 489.849 396.161Q490.974 393.983 492.045 391.778Q493.116 389.574 494.13 387.344Q495.144 385.113 496.101 382.86Q497.058 380.606 497.957 378.329Q498.857 376.054 499.698 373.757Q500.54 371.46 501.322 369.143Q502.105 366.826 502.828 364.492Q503.552 362.156 504.215 359.805Q504.88 357.454 505.483 355.087Q506.087 352.72 506.631 350.339Q507.175 347.959 507.657 345.566Q508.14 343.173 508.562 340.768Q508.984 338.365 509.345 335.951Q509.705 333.538 510.003 331.116Q510.302 328.695 510.541 326.267Q510.778 323.84 510.954 321.407Q511.129 318.974 511.242 316.538Q511.356 314.102 511.408 311.664Q511.46 309.225 511.449 306.786Q511.439 304.348 511.367 301.91Q511.295 299.472 511.161 297.036Q511.026 294.602 510.83 292.17Q510.652 289.71 510.409 287.254Q510.168 284.797 509.863 282.349Q509.56 279.9 509.193 277.458Q508.827 275.017 508.397 272.586Q507.969 270.155 507.478 267.734Q506.987 265.314 506.435 262.907Q505.883 260.499 505.269 258.106Q504.656 255.712 503.982 253.333Q503.307 250.956 502.573 248.594Q501.837 246.234 501.042 243.891Q500.247 241.548 499.393 239.226Q498.538 236.904 497.626 234.602Q496.712 232.301 495.74 230.023Q494.768 227.745 493.738 225.491Q492.708 223.237 491.622 221.009Q490.534 218.78 489.391 216.578Q488.247 214.378 487.049 212.204Q485.849 210.031 484.595 207.888Q483.341 205.744 482.031 203.632Q480.724 201.519 479.361 199.44Q478 197.359 476.584 195.313Q475.17 193.266 473.703 191.254Q472.236 189.243 470.719 187.268Q469.201 185.291 467.634 183.353Q466.066 181.416 464.451 179.516Q462.834 177.616 461.169 175.757Q459.505 173.896 457.794 172.077Q456.082 170.258 454.325 168.481Q452.568 166.703 450.766 164.969Q448.964 163.235 447.118 161.545Q445.273 159.855 443.384 158.21Q441.496 156.566 439.566 154.967C400.666 122.611 348.06 103.887 296.644 107.249L296.644 107.249ZM285.909 24.2154C283.63 24.2602 277.3 23.855 275.553 25.1753C289.562 25.814 303.951 26.6226 317.781 28.9467C378.944 39.229 433.991 70.9171 475.545 115.386C522.926 166.09 543.854 229.799 540.474 297.784C537.985 347.841 520.155 398.216 488.59 437.967C481.495 446.904 473.449 455.076 465.267 463.065C470.554 462.519 493.641 436.378 497.954 431.175Q505.156 422.599 511.428 413.357Q517.699 404.115 522.979 394.302C545.287 352.124 554.85 298.588 549.643 251.517Q549.264 248.384 548.808 245.262Q548.352 242.139 547.819 239.029Q547.286 235.918 546.676 232.821Q546.066 229.724 545.379 226.641Q544.692 223.559 543.928 220.494Q543.165 217.429 542.326 214.383Q541.486 211.336 540.571 208.311Q539.656 205.286 538.667 202.283Q537.678 199.28 536.614 196.3Q535.55 193.322 534.412 190.368Q533.275 187.416 532.063 184.491Q530.853 181.565 529.57 178.669Q528.287 175.773 526.933 172.909Q525.578 170.044 524.154 167.212Q522.728 164.38 521.234 161.581Q519.739 158.784 518.174 156.022Q516.609 153.261 514.978 150.536Q513.345 147.812 511.645 145.127Q509.946 142.442 508.181 139.798Q506.415 137.155 504.584 134.552Q502.753 131.951 500.858 129.393Q498.963 126.835 497.005 124.323Q495.047 121.811 493.027 119.344Q491.008 116.88 488.927 114.462Q486.847 112.045 484.708 109.677Q482.567 107.31 480.37 104.993Q478.172 102.676 475.916 100.412Q473.662 98.1489 471.352 95.9379Q469.041 93.7275 466.676 91.5724Q464.312 89.4172 461.894 87.3185Q459.477 85.2192 457.008 83.1781Q454.54 81.1358 452.02 79.1535C408.358 45.0677 342.377 20.5991 285.909 24.2154ZM145.313 155.623Q143.046 157.508 140.827 159.446Q138.609 161.385 136.44 163.377Q134.271 165.369 132.154 167.412Q130.036 169.454 127.971 171.548Q125.905 173.642 123.894 175.784Q121.883 177.926 119.926 180.116Q117.97 182.307 116.069 184.543Q114.168 186.779 112.325 189.061Q110.482 191.342 108.698 193.667Q106.913 195.992 105.188 198.36Q103.463 200.728 101.798 203.135Q100.134 205.543 98.5301 207.991Q96.9266 210.438 95.3868 212.923Q93.8458 215.408 92.369 217.93Q90.8922 220.45 89.479 223.007Q88.0665 225.563 86.7194 228.153Q85.3717 230.742 84.0906 233.363Q82.8095 235.984 81.5944 238.635Q80.3806 241.286 79.2328 243.965Q78.0862 246.645 77.008 249.351Q75.9292 252.057 74.9195 254.788Q73.9097 257.519 72.9702 260.273Q72.0295 263.029 71.1597 265.805Q70.2898 268.581 69.4902 271.378Q68.6911 274.174 67.9635 276.989Q67.2347 279.804 66.5792 282.635Q65.9218 285.466 65.3371 288.314Q64.753 291.16 64.241 294.02Q63.7289 296.879 63.2888 299.75Q62.8494 302.621 62.4832 305.502Q62.1158 308.382 61.8229 311.271Q61.5293 314.161 61.3096 317.055C56.7174 381.164 78.4511 447.519 121.98 496.121C167.279 546.702 231.331 582.507 300.871 587.257Q309.512 587.793 318.165 587.466C321.425 587.33 324.645 587.174 327.883 586.77C308.038 585.381 288.449 582.76 269.192 577.781Q266.735 577.123 264.292 576.42Q261.848 575.718 259.419 574.972Q256.988 574.225 254.573 573.435Q252.158 572.645 249.757 571.812Q247.358 570.979 244.974 570.103Q242.59 569.227 240.224 568.307Q237.857 567.388 235.508 566.427Q233.159 565.466 230.829 564.461Q228.499 563.459 226.188 562.413Q223.877 561.368 221.587 560.281Q219.296 559.195 217.026 558.067Q214.758 556.941 212.509 555.771Q210.261 554.604 208.036 553.395Q205.81 552.187 203.609 550.939Q201.407 549.69 199.229 548.402Q197.051 547.115 194.898 545.789Q192.744 544.462 190.618 543.097Q188.49 541.731 186.389 540.329Q184.287 538.926 182.212 537.485Q180.138 536.045 178.092 534.567Q176.045 533.089 174.026 531.575Q172.009 530.061 170.019 528.511Q168.03 526.96 166.07 525.375Q164.111 523.789 162.182 522.168Q160.252 520.547 158.354 518.892Q156.457 517.237 154.59 515.548Q152.724 513.859 150.89 512.137Q149.056 510.414 147.255 508.66Q145.454 506.904 143.687 505.117Q141.919 503.33 140.186 501.512Q138.453 499.693 136.754 497.844Q135.055 495.994 133.393 494.115Q131.338 491.838 129.342 489.513Q127.346 487.188 125.409 484.815Q123.473 482.442 121.597 480.023Q119.723 477.603 117.909 475.14Q116.096 472.677 114.346 470.17Q112.596 467.664 110.91 465.116Q109.225 462.568 107.605 459.98Q105.985 457.392 104.431 454.767Q102.877 452.14 101.391 449.477Q99.9042 446.814 98.4863 444.116Q97.0689 441.418 95.7194 438.686Q94.3705 435.955 93.0912 433.192Q91.8131 430.428 90.6046 427.636Q89.3968 424.843 88.2592 422.021Q87.1228 419.199 86.0584 416.351Q84.994 413.504 84.0023 410.63Q83.0112 407.757 82.0927 404.862Q81.1748 401.965 80.3308 399.048Q79.4861 396.131 78.7171 393.194Q77.9469 390.257 77.2529 387.303Q76.5583 384.348 75.9388 381.379Q75.3205 378.408 74.7766 375.424Q74.2339 372.44 73.7668 369.443Q73.2998 366.447 72.909 363.439Q72.5188 360.433 72.2048 357.418Q71.8914 354.402 71.6537 351.38Q71.4166 348.358 71.2563 345.332Q71.0972 342.304 71.0138 339.274Q70.9315 336.245 70.9255 333.214Q70.9201 330.183 70.9922 327.153Q71.063 324.124 71.2113 321.096Q71.3614 318.068 71.5865 315.045Q71.877 311.154 72.2924 307.273Q72.7067 303.391 73.2446 299.525Q73.7824 295.659 74.4428 291.811Q75.105 287.961 75.8872 284.135Q76.6706 280.308 77.5747 276.507Q78.4794 272.706 79.5041 268.934Q80.5295 265.162 81.6731 261.422Q82.8185 257.684 84.081 253.98Q85.344 250.277 86.7248 246.614Q88.1049 242.951 89.6015 239.331Q91.0975 235.711 92.7088 232.138Q94.3188 228.566 96.043 225.044Q97.7671 221.521 99.6017 218.052Q101.437 214.583 103.381 211.171Q105.325 207.76 107.378 204.408Q109.43 201.057 111.588 197.769Q117.535 188.815 124.178 180.337Q130.821 171.861 138.121 163.911C139.163 162.771 145.694 156.458 145.313 155.623L145.313 155.623ZM594.842 311.855L594.686 312.359C592.328 320.159 590.934 328.342 589.105 336.274Q585.824 350.12 581.066 363.554C559.452 423.705 512.83 473.449 455.811 503.951Q452.964 505.447 450.081 506.874Q447.198 508.301 444.28 509.66Q441.361 511.017 438.41 512.306Q435.458 513.594 432.475 514.811Q429.492 516.028 426.479 517.174Q423.466 518.319 420.425 519.393Q417.385 520.466 414.317 521.467Q411.251 522.467 408.159 523.394Q405.068 524.32 401.955 525.174Q398.841 526.026 395.708 526.805Q392.573 527.583 389.42 528.286Q386.267 528.989 383.097 529.618Q379.928 530.245 376.743 530.797Q373.559 531.348 370.362 531.824Q367.165 532.3 363.957 532.699Q360.748 533.098 357.531 533.421Q354.312 533.744 351.089 533.989Q347.864 534.235 344.634 534.403Q341.404 534.572 338.171 534.663Q334.938 534.754 331.704 534.769Q328.469 534.783 325.235 534.72Q322.001 534.657 318.77 534.517Q315.54 534.376 312.313 534.159Q309.086 533.942 305.865 533.648Q302.645 533.353 299.434 532.982Q296.221 532.611 293.019 532.163Q289.818 531.716 286.629 531.192Q283.44 530.668 280.263 530.068Q277.088 529.468 273.93 528.792Q270.77 528.117 267.629 527.366Q264.488 526.615 261.367 525.79Q258.245 524.965 255.145 524.065C228.719 516.526 204.15 505.35 180.77 491.229C173.142 486.623 165.988 480.987 158.271 476.619C160.442 478.524 162.586 480.463 164.857 482.255C172.847 488.551 180.817 494.824 189.411 500.331C239.781 532.607 302.187 548.703 362.386 542.503Q365.629 542.179 368.863 541.776Q372.097 541.375 375.319 540.896Q378.543 540.416 381.752 539.86Q384.962 539.304 388.157 538.671Q391.352 538.038 394.53 537.328Q397.708 536.619 400.866 535.833Q404.025 535.048 407.164 534.188Q410.301 533.327 413.416 532.392Q416.532 531.456 419.624 530.445Q422.714 529.436 425.779 528.352Q428.843 527.268 431.879 526.112Q434.916 524.956 437.921 523.727Q440.927 522.497 443.901 521.196Q446.875 519.895 449.815 518.524Q452.755 517.152 455.66 515.711Q458.565 514.269 461.433 512.758Q464.3 511.247 467.129 509.668Q469.956 508.089 472.744 506.443Q475.532 504.797 478.277 503.085Q481.023 501.372 483.724 499.594Q486.424 497.816 489.08 495.974Q491.736 494.133 494.343 492.227Q496.951 490.322 499.511 488.356Q502.07 486.388 504.579 484.361Q507.087 482.333 509.544 480.246Q512.001 478.159 514.404 476.014Q516.807 473.869 519.155 471.666Q521.504 469.464 523.796 467.206Q526.087 464.949 528.321 462.637Q530.556 460.325 532.731 457.96Q534.906 455.594 537.021 453.179Q539.135 450.762 541.188 448.296C569.137 414.572 585.686 377.499 592.724 334.81C593.689 328.954 596.215 318.109 595.028 312.476C594.984 312.265 594.904 312.061 594.842 311.855L594.842 311.855ZM270.198 68.9679C255.305 69.977 240.691 71.3385 226.056 74.2927Q223.351 74.8594 220.659 75.4796Q217.966 76.0997 215.288 76.7727Q212.608 77.4462 209.945 78.1726Q207.281 78.8978 204.632 79.6764Q201.983 80.4562 199.352 81.2871Q196.721 82.1185 194.107 83.0016Q191.493 83.884 188.899 84.8194Q186.304 85.7541 183.729 86.7404Q181.155 87.7255 178.602 88.7629Q176.048 89.799 173.517 90.8862Q170.986 91.974 168.478 93.111Q165.97 94.2474 163.486 95.4342Q161.002 96.6211 158.544 97.8565Q156.086 99.092 153.653 100.375Q151.221 101.661 148.816 102.992Q146.412 104.324 144.035 105.703Q141.659 107.083 139.312 108.509Q136.965 109.936 134.648 111.407Q132.331 112.88 130.046 114.398Q127.76 115.915 125.507 117.478Q123.254 119.041 121.033 120.648Q118.813 122.256 116.627 123.907Q114.441 125.558 112.29 127.251Q110.139 128.945 108.024 130.681Q105.908 132.418 103.829 134.196Q101.75 135.973 99.7097 137.792Q97.6692 139.611 95.666 141.469Q93.6639 143.328 91.6996 145.225Q89.7372 147.123 87.8131 149.06Q85.8909 150.996 84.0083 152.97Q82.1257 154.944 80.2851 156.956Q78.4439 158.967 76.646 161.013C45.2084 196.267 23.6201 242.701 19.0048 289.331L19.3232 289.588C20.797 285.815 21.5479 281.668 22.6152 277.76C24.7335 270.009 26.9284 262.306 29.6776 254.742C43.1553 217.66 69.519 177.323 99.3531 150.717Q101.795 148.44 104.293 146.222Q106.794 144.004 109.349 141.849Q111.903 139.692 114.514 137.599Q117.124 135.506 119.786 133.477Q122.449 131.447 125.163 129.483Q127.876 127.52 130.64 125.622Q133.403 123.725 136.214 121.896Q139.025 120.067 141.883 118.305Q144.74 116.545 147.642 114.854Q150.543 113.164 153.487 111.544Q156.431 109.924 159.415 108.377Q162.399 106.83 165.423 105.355Q168.446 103.881 171.506 102.48Q174.566 101.08 177.661 99.7535Q180.756 98.428 183.884 97.1788Q187.012 95.9283 190.171 94.7547Q193.33 93.581 196.519 92.4849Q199.707 91.3887 202.922 90.3699Q206.138 89.3512 209.378 88.4111Q212.618 87.4716 215.883 86.6095Q219.145 85.7486 222.43 84.967Q225.715 84.1854 229.019 83.4842Q232.322 82.7831 235.643 82.1623Q238.964 81.5422 242.299 81.0013Q245.634 80.4616 248.983 80.0036Q252.331 79.5449 255.69 79.1679Q259.048 78.7903 262.416 78.4956Q265.784 78.1996 269.158 77.9865Q272.532 77.7728 275.911 77.6419Q279.289 77.5105 282.67 77.4606Q286.051 77.4126 289.432 77.445Q292.813 77.4786 296.192 77.5933C340.425 78.9314 381.502 91.6714 419.254 113.973C427.029 118.566 433.854 124.472 441.53 129.055C431.864 119.386 420.192 111.552 408.345 104.635Q404.733 102.51 401.05 100.503Q397.368 98.4953 393.62 96.6061Q389.871 94.718 386.062 92.9507Q382.251 91.184 378.382 89.5397Q374.515 87.896 370.593 86.3778Q366.672 84.8596 362.7 83.4674Q358.73 82.0753 354.714 80.8122Q350.699 79.5485 346.641 78.4151Q342.585 77.2817 338.492 76.2786Q334.4 75.276 330.275 74.405Q326.151 73.5333 321.999 72.7961Q317.847 72.0583 313.673 71.4538Q309.498 70.8499 305.306 70.3792Q301.113 69.9098 296.907 69.5754Q292.7 69.2404 288.484 69.0405Q284.27 68.8412 280.05 68.777C276.867 68.735 273.337 68.5519 270.198 68.9673L270.198 68.9679ZM18.8677 309.514C19.5898 320.525 20.1239 331.236 21.9967 342.149Q22.4426 344.683 22.9431 347.207Q23.4446 349.732 24.0008 352.245Q24.557 354.758 25.1679 357.259Q25.7787 359.76 26.4441 362.249Q27.1106 364.736 27.8298 367.21Q28.5499 369.683 29.3238 372.142Q30.0977 374.6 30.9252 377.041Q31.7528 379.483 32.6331 381.906Q33.5143 384.33 34.4473 386.735Q35.3804 389.139 36.3671 391.525Q37.3529 393.91 38.3904 396.274Q39.428 398.638 40.5173 400.98Q41.6067 403.322 42.7468 405.641Q43.887 407.959 45.078 410.254Q46.269 412.548 47.5098 414.818Q48.7506 417.087 50.0404 419.331Q51.3301 421.574 52.6688 423.789Q54.0084 426.005 55.395 428.193Q56.7816 430.381 58.2162 432.54Q59.6507 434.697 61.1325 436.825Q62.6141 438.954 64.1413 441.05Q65.6691 443.148 67.2426 445.212Q68.8154 447.278 70.4339 449.308Q72.0517 451.341 73.7134 453.338Q75.3763 455.336 77.0812 457.299Q78.7861 459.261 80.5343 461.189Q82.2824 463.115 84.0714 465.006Q85.8621 466.895 87.6925 468.748Q89.5229 470.601 91.3941 472.415Q93.2647 474.229 95.1743 476.004Q97.0845 477.779 99.0326 479.514Q100.981 481.25 102.967 482.944C106.01 485.57 110.509 489.729 114.429 490.94Q111.104 487.839 107.871 484.649Q104.638 481.458 101.499 478.18Q98.3584 474.901 95.316 471.538Q92.2723 468.175 89.3278 464.729Q86.3826 461.284 83.5383 457.758Q80.6951 454.233 77.9547 450.632Q75.213 447.03 72.5782 443.354Q69.9428 439.679 67.4148 435.933Q64.8875 432.187 62.4688 428.372Q60.0507 424.558 57.7434 420.679Q55.4372 416.8 53.2432 412.858Q51.0502 408.917 48.9712 404.918Q46.8923 400.918 44.9303 396.863Q42.9683 392.808 41.1243 388.701Q39.2813 384.593 37.5572 380.437Q35.833 376.28 34.2297 372.078Q28.479 356.582 24.9003 340.478C23.8676 335.797 20.472 311.089 18.8677 309.514L18.8677 309.514ZM503.715 127.931C511.607 137.078 520.305 145.588 528.052 154.824Q532.544 160.103 536.776 165.581Q541.01 171.058 544.976 176.722Q548.943 182.385 552.633 188.223Q556.324 194.06 559.731 200.059Q563.139 206.058 566.255 212.206Q569.371 218.352 572.189 224.635Q575.008 230.917 577.522 237.32Q580.036 243.723 582.241 250.233Q585.442 259.932 587.817 269.853C589.303 276.294 590.345 289.486 593.294 294.467C589.326 236.837 566.254 187.969 524.85 146.733C519.745 141.648 514.65 136.513 509.146 131.832C507.552 130.477 505.738 128.609 503.715 127.931L503.715 127.931Z"
     id="path1"
     style="fill:#ffffff" />
  <path
     transform="matrix(1 0 0 1 -3.8147e-06 0)"
     d="M299.3 152.123C339.492 149.362 380.432 165.001 410.566 190.478C441.302 216.466 461.75 255.022 464.538 294.652Q464.684 296.605 464.779 298.561Q464.877 300.518 464.922 302.476Q464.97 304.434 464.967 306.392Q464.965 308.351 464.912 310.309Q464.86 312.267 464.758 314.223Q464.657 316.178 464.506 318.132Q464.355 320.085 464.154 322.034Q463.954 323.982 463.705 325.926Q463.454 327.869 463.156 329.806Q462.858 331.743 462.51 333.672Q462.163 335.601 461.767 337.521Q461.371 339.441 460.926 341.351Q460.482 343.261 459.989 345.161Q459.497 347.059 458.956 348.946Q458.415 350.832 457.828 352.705Q457.24 354.578 456.605 356.436Q455.97 358.294 455.287 360.138Q454.606 361.98 453.877 363.805Q453.149 365.631 452.375 367.438Q451.601 369.246 450.781 371.036Q449.962 372.823 449.097 374.592Q448.232 376.36 447.323 378.107Q446.415 379.854 445.462 381.579Q444.509 383.304 443.512 385.006Q442.517 386.707 441.478 388.384Q440.439 390.061 439.359 391.713Q438.278 393.365 437.155 394.99Q436.033 396.615 434.87 398.213Q433.707 399.811 432.503 401.381Q431.301 402.95 430.058 404.49Q428.816 406.031 427.535 407.54Q426.254 409.05 424.935 410.53C397.092 441.508 358.578 459.542 316.502 462.302C275.341 462.726 236.381 451.851 204.8 425.306Q203.307 424.065 201.846 422.787Q200.384 421.511 198.957 420.198Q197.528 418.887 196.134 417.54Q194.74 416.194 193.38 414.815Q192.022 413.434 190.697 412.022Q189.374 410.611 188.086 409.167Q186.799 407.724 185.549 406.249Q184.299 404.775 183.086 403.271Q181.874 401.767 180.701 400.233Q179.528 398.701 178.394 397.14Q177.26 395.579 176.167 393.991Q175.073 392.403 174.02 390.79Q172.967 389.176 171.955 387.537Q170.944 385.898 169.975 384.235Q169.005 382.573 168.079 380.887Q167.153 379.202 166.27 377.494Q165.387 375.786 164.547 374.058Q163.708 372.329 162.912 370.582Q162.117 368.832 161.367 367.066Q160.618 365.3 159.913 363.515Q159.208 361.731 158.548 359.93Q157.89 358.128 157.277 356.312Q156.664 354.496 156.097 352.665Q155.531 350.835 155.012 348.991Q154.492 347.146 154.02 345.291Q153.548 343.436 153.123 341.568Q152.698 339.702 152.321 337.826Q151.944 335.949 151.614 334.065Q151.286 332.18 151.005 330.288Q150.724 328.395 150.491 326.497Q150.259 324.599 150.075 322.695Q149.891 320.792 149.756 318.885Q149.602 316.968 149.496 315.05Q149.39 313.132 149.334 311.211Q149.278 309.29 149.269 307.369Q149.26 305.447 149.301 303.526Q149.342 301.605 149.43 299.686Q149.519 297.766 149.656 295.85Q149.793 293.933 149.979 292.02Q150.165 290.108 150.399 288.199Q150.633 286.291 150.916 284.389Q151.198 282.488 151.529 280.594Q151.859 278.699 152.238 276.814Q152.615 274.928 153.041 273.052Q153.467 271.175 153.94 269.311Q154.413 267.445 154.933 265.591Q155.453 263.738 156.02 261.897Q156.587 260.057 157.2 258.23Q157.814 256.404 158.473 254.594Q159.131 252.782 159.836 250.988Q160.541 249.193 161.292 247.415Q162.042 245.638 162.835 243.88Q163.631 242.121 164.469 240.382Q165.309 238.643 166.192 236.924Q167.074 235.206 168 233.509Q168.926 231.812 169.894 230.138Q170.863 228.464 171.873 226.814Q172.884 225.163 173.936 223.537Q174.988 221.912 176.081 220.312Q177.173 218.713 178.307 217.14Q179.44 215.566 180.612 214.021Q181.784 212.476 182.995 210.958Q184.206 209.441 185.455 207.954Q186.705 206.466 187.991 205.01C216.458 172.945 256.242 155.136 299.3 152.124L299.3 152.123ZM302.607 233.754C280.332 236.252 260.555 244.978 246.353 262.304Q245.199 263.687 244.116 265.125Q243.032 266.562 242.024 268.051Q241.015 269.538 240.083 271.073Q239.15 272.607 238.298 274.185Q237.445 275.763 236.673 277.38Q235.901 278.996 235.211 280.648Q234.523 282.3 233.917 283.983Q233.314 285.666 232.795 287.376Q232.277 289.086 231.846 290.819Q231.415 292.552 231.072 294.303Q230.729 296.054 230.476 297.82Q230.222 299.586 230.059 301.362Q229.895 303.138 229.822 304.919Q229.749 306.701 229.767 308.483Q229.783 310.266 229.891 312.046Q229.999 313.826 230.196 315.598Q230.304 316.528 230.436 317.454Q230.567 318.381 230.722 319.304Q230.877 320.226 231.055 321.146Q231.234 322.064 231.436 322.979Q231.637 323.893 231.863 324.802Q232.088 325.711 232.337 326.615Q232.584 327.518 232.856 328.415Q233.127 329.312 233.42 330.203Q233.715 331.093 234.031 331.976Q234.347 332.859 234.686 333.734Q235.024 334.609 235.386 335.476Q235.747 336.342 236.13 337.2Q236.513 338.058 236.917 338.906Q237.322 339.754 237.748 340.593Q238.174 341.43 238.622 342.257Q239.069 343.086 239.537 343.902Q240.006 344.719 240.495 345.524Q240.984 346.329 241.494 347.121Q242.003 347.914 242.532 348.695Q243.061 349.474 243.611 350.242Q244.159 351.009 244.727 351.763Q245.297 352.516 245.883 353.257Q246.471 353.996 247.077 354.722Q247.683 355.448 248.307 356.158Q248.932 356.869 249.574 357.564Q250.217 358.26 250.877 358.939Q251.536 359.619 252.213 360.282Q252.89 360.945 253.583 361.593Q254.277 362.239 254.987 362.869Q255.697 363.499 256.423 364.112Q257.149 364.724 257.89 365.319Q258.631 365.914 259.387 366.491C274.237 377.907 291.944 383.306 310.747 382.959C332.717 380.461 352.182 371.804 366.148 354.643Q366.743 353.911 367.32 353.166Q367.895 352.421 368.452 351.662Q369.009 350.904 369.546 350.132Q370.084 349.36 370.602 348.576Q371.12 347.792 371.619 346.995Q372.117 346.199 372.595 345.391Q373.073 344.582 373.531 343.764Q373.988 342.944 374.424 342.114Q374.86 341.284 375.276 340.444Q375.692 339.604 376.086 338.754Q376.481 337.904 376.854 337.045Q377.226 336.186 377.577 335.318Q377.928 334.45 378.258 333.574Q378.587 332.698 378.894 331.815Q379.201 330.932 379.485 330.042Q379.77 329.152 380.032 328.254Q380.294 327.358 380.533 326.455Q380.773 325.552 380.99 324.643Q381.206 323.735 381.4 322.821Q381.593 321.908 381.764 320.99Q381.934 320.073 382.082 319.151Q382.23 318.231 382.353 317.305Q382.478 316.381 382.579 315.454Q382.679 314.526 382.757 313.596Q382.834 312.667 382.888 311.735Q382.942 310.804 382.973 309.872Q383.004 308.941 383.01 308.008Q383.018 307.075 383.001 306.143Q382.984 305.21 382.945 304.279Q382.905 303.348 382.842 302.417Q382.778 301.486 382.691 300.558Q382.604 299.629 382.494 298.702Q382.281 296.922 381.978 295.155Q381.675 293.388 381.283 291.637Q380.891 289.885 380.411 288.156Q379.931 286.426 379.364 284.721Q378.798 283.015 378.146 281.34Q377.493 279.664 376.757 278.022Q376.021 276.379 375.202 274.774Q374.384 273.169 373.485 271.606Q372.586 270.042 371.609 268.523Q370.633 267.004 369.58 265.534Q368.529 264.063 367.402 262.646Q366.278 261.228 365.082 259.865Q363.886 258.503 362.623 257.2Q361.36 255.896 360.034 254.655Q358.705 253.414 357.316 252.237Q355.928 251.062 354.482 249.954C340.452 239.221 320.622 231.987 302.607 233.754L302.607 233.754Z"
     id="path2"
     style="fill:#ffffff" />
  <path
     transform="matrix(1 0 0 1 -3.8147e-06 0)"
     d="M697.026 432.772L697.026 177.207L873.309 177.207L873.309 231.545L755.227 231.545L755.227 226.17L760.602 226.17L760.602 285.799L755.227 285.799L755.227 280.424L862.307 280.424L862.307 334.762L755.227 334.762L755.227 329.387L760.602 329.387L760.602 438.147L697.026 438.147L697.026 432.772ZM707.776 432.772L702.401 432.772L702.401 427.397L755.227 427.397L755.227 432.772L749.852 432.772L749.852 324.012L856.932 324.012L856.932 329.387L851.557 329.387L851.557 285.799L856.932 285.799L856.932 291.174L749.852 291.174L749.852 220.795L867.934 220.795L867.934 226.17L862.559 226.17L862.559 182.582L867.934 182.582L867.934 187.957L702.401 187.957L702.401 182.582L707.776 182.582L707.776 432.772ZM702.401 432.772L702.401 182.582L867.934 182.582L867.934 226.17L755.227 226.17L755.227 285.799L856.932 285.799L856.932 329.387L755.227 329.387L755.227 432.772L702.401 432.772ZM1005.75 352.819L1005.75 239.776L1068.49 239.776L1068.49 438.147L1007.85 438.147L1007.85 398.674L1013.23 398.674L1013.23 404.049L1011.21 404.049L1011.21 398.674L1016.23 400.595Q1009.33 418.621 993.255 429.646Q977.172 440.583 954.354 440.583Q934.073 440.583 918.447 431.353Q902.806 421.969 894.127 404.794Q885.576 387.871 885.487 364.681L885.487 239.776L948.223 239.776L948.223 355.338Q948.296 369.871 955.72 378.001Q962.926 385.825 975.35 385.825Q983.429 385.825 990.401 382.159Q997.181 378.525 1001.46 371.258Q1005.83 363.948 1005.75 352.855L1005.75 352.819ZM1016.5 352.783Q1016.6 366.885 1010.72 376.708Q1004.92 386.574 995.404 391.674Q986.083 396.575 975.35 396.575Q958.212 396.575 947.781 385.25Q937.568 374.064 937.473 355.338L937.473 245.151L942.848 245.151L942.848 250.526L890.862 250.526L890.862 245.151L896.237 245.151L896.237 364.64Q896.316 385.29 903.721 399.945Q911 414.349 923.914 422.097Q937.01 429.833 954.354 429.833Q973.864 429.833 987.175 420.78Q1000.49 411.65 1006.19 396.753L1007.51 393.299L1018.6 393.299L1018.6 432.772L1013.23 432.772L1013.23 427.397L1063.11 427.397L1063.11 432.772L1057.74 432.772L1057.74 245.151L1063.11 245.151L1063.11 250.526L1011.13 250.526L1011.13 245.151L1016.5 245.151L1016.5 352.819L1016.5 352.783ZM1011.13 352.819L1011.13 245.151L1063.11 245.151L1063.11 432.772L1013.23 432.772L1013.23 398.674L1011.21 398.674Q1004.91 415.135 990.215 425.213Q975.518 435.208 954.354 435.208Q935.541 435.208 921.18 426.725Q906.903 418.159 898.924 402.37Q890.946 386.581 890.862 364.661L890.862 245.151L942.848 245.151L942.848 355.338Q942.932 371.967 951.75 381.626Q960.569 391.2 975.35 391.2Q984.756 391.2 992.903 386.917Q1001.05 382.549 1006.09 373.983Q1011.21 365.417 1011.13 352.819ZM1162.12 324.264L1162.12 438.147L1099.39 438.147L1099.39 239.776L1159.69 239.776L1159.69 278.241L1154.31 278.241L1154.31 272.866L1156.41 272.866L1156.41 278.241L1151.4 276.311Q1158.32 258.317 1174.38 247.794Q1190.43 237.34 1212.93 237.34Q1233.97 237.34 1249.76 246.652Q1265.73 256.012 1274.42 273.213Q1283.07 290.143 1282.98 313.283L1282.98 438.147L1220.24 438.147L1220.24 322.501Q1220.31 307.442 1212.83 299.251Q1205.59 291.258 1192.27 291.258Q1183.21 291.258 1176.39 295.166Q1169.77 298.926 1166.05 306.082Q1162.2 313.501 1162.12 324.302L1162.12 324.264ZM1151.37 324.227Q1151.47 310.84 1156.51 301.126Q1161.7 291.15 1171.04 285.839Q1180.34 280.508 1192.27 280.508Q1210.36 280.508 1220.77 292Q1231.08 303.293 1230.99 322.501L1230.99 432.772L1225.61 432.772L1225.61 427.397L1277.6 427.397L1277.6 432.772L1272.23 432.772L1272.23 313.242Q1272.31 292.71 1264.83 278.061Q1257.56 263.685 1244.3 255.912Q1231.04 248.09 1212.93 248.09Q1193.62 248.09 1180.27 256.786Q1167.11 265.41 1161.43 280.17L1160.1 283.616L1148.94 283.616L1148.94 245.151L1154.31 245.151L1154.31 250.526L1104.76 250.526L1104.76 245.151L1110.14 245.151L1110.14 432.772L1104.76 432.772L1104.76 427.397L1156.75 427.397L1156.75 432.772L1151.37 432.772L1151.37 324.264L1151.37 324.227ZM1156.75 324.264L1156.75 432.772L1104.76 432.772L1104.76 245.151L1154.31 245.151L1154.31 278.241L1156.41 278.241Q1162.71 261.864 1177.32 252.29Q1192.02 242.715 1212.93 242.715Q1232.5 242.715 1247.03 251.282Q1261.65 259.848 1269.62 275.637Q1277.69 291.426 1277.6 313.262L1277.6 432.772L1225.61 432.772L1225.61 322.501Q1225.7 305.368 1216.8 295.626Q1207.98 285.883 1192.27 285.883Q1181.78 285.883 1173.71 290.502Q1165.73 295.038 1161.28 303.604Q1156.83 312.17 1156.75 324.264ZM1313.29 432.772L1313.29 239.776L1376.02 239.776L1376.02 438.147L1313.29 438.147L1313.29 432.772ZM1324.04 432.772L1318.66 432.772L1318.66 427.397L1370.65 427.397L1370.65 432.772L1365.27 432.772L1365.27 245.151L1370.65 245.151L1370.65 250.526L1318.66 250.526L1318.66 245.151L1324.04 245.151L1324.04 432.772ZM1344.78 226.254Q1331.08 226.254 1321.22 217.09Q1311.19 207.769 1311.19 194.592Q1311.19 181.415 1321.22 172.094Q1331.08 162.93 1344.78 162.93Q1358.5 162.93 1368.28 172.113Q1378.29 181.415 1378.29 194.592Q1378.29 207.769 1368.26 217.09Q1358.5 226.254 1344.78 226.254ZM1344.78 215.504Q1354.24 215.504 1360.94 209.216Q1367.54 203.084 1367.54 194.592Q1367.54 186.1 1360.92 179.95Q1354.24 173.68 1344.78 173.68Q1335.3 173.68 1328.54 179.969Q1321.94 186.101 1321.94 194.592Q1321.94 203.084 1328.54 209.216Q1335.3 215.504 1344.78 215.504ZM1318.66 432.772L1318.66 245.151L1370.65 245.151L1370.65 432.772L1318.66 432.772ZM1344.78 220.879Q1333.19 220.879 1324.88 213.153Q1316.56 205.426 1316.56 194.592Q1316.56 183.758 1324.88 176.031Q1333.19 168.305 1344.78 168.305Q1356.37 168.305 1364.6 176.031Q1372.92 183.758 1372.92 194.592Q1372.92 205.426 1364.6 213.153Q1356.37 220.879 1344.78 220.879ZM1530.74 503.151L1530.74 402.79L1536.11 402.79L1536.11 408.165L1534.6 408.165L1534.6 402.79L1539.47 405.065Q1535.53 413.488 1528.31 421.708Q1520.85 430.102 1509.28 435.609Q1497.7 441.17 1481.35 441.17Q1458.36 441.17 1439.74 429.235Q1421.22 417.31 1410.4 394.42Q1399.81 371.733 1399.81 339.129Q1399.81 305.726 1410.76 283.197Q1421.85 260.294 1440.49 248.806Q1459.09 237.34 1481.19 237.34Q1498.16 237.34 1509.88 243.199Q1521.49 249.003 1528.68 257.786Q1535.66 266.107 1539.49 274.497L1534.6 276.729L1534.6 271.354L1536.87 271.354L1536.87 276.729L1531.49 276.729L1531.49 239.776L1593.47 239.776L1593.47 508.526L1530.74 508.526L1530.74 503.151ZM1541.49 503.151L1536.11 503.151L1536.11 497.776L1588.1 497.776L1588.1 503.151L1582.72 503.151L1582.72 245.151L1588.1 245.151L1588.1 250.526L1536.87 250.526L1536.87 245.151L1542.24 245.151L1542.24 282.104L1531.15 282.104L1529.71 278.961Q1526.49 271.898 1520.36 264.598Q1514.63 257.592 1505.07 252.814Q1495.62 248.09 1481.19 248.09Q1462.14 248.09 1446.13 257.957Q1430.16 267.8 1420.43 287.898Q1410.56 308.201 1410.56 339.129Q1410.56 369.347 1420.12 389.827Q1429.62 409.937 1445.54 420.184Q1461.51 430.42 1481.35 430.42Q1495.25 430.42 1504.66 425.904Q1514.26 421.333 1520.23 414.61Q1526.45 407.544 1529.73 400.514L1531.18 397.415L1541.49 397.415L1541.49 503.151ZM1497.82 389.016Q1508.47 389.016 1515.74 383.284Q1523.37 377.25 1527.46 366.232Q1531.83 354.691 1531.83 338.961Q1531.83 323.143 1527.56 311.798Q1523.48 300.893 1515.89 295.114Q1508.59 289.495 1497.82 289.495Q1486.83 289.495 1479.48 295.307Q1471.85 301.27 1467.84 312.176Q1463.72 323.608 1463.72 338.961Q1463.72 354.394 1467.93 366.021Q1472.02 377.027 1479.61 383.155Q1486.94 389.016 1497.82 389.016ZM1497.82 399.766Q1483.17 399.766 1472.85 391.518Q1462.97 383.537 1457.82 369.683Q1452.97 356.282 1452.97 338.961Q1452.97 321.729 1457.75 308.469Q1462.81 294.685 1472.81 286.874Q1483.1 278.745 1497.82 278.745Q1512.24 278.745 1522.41 286.563Q1532.46 294.221 1537.62 308.008Q1542.58 321.186 1542.58 338.961Q1542.58 356.657 1537.54 369.976Q1532.4 383.817 1522.39 391.725Q1512.19 399.766 1497.82 399.766ZM1536.11 503.151L1536.11 402.79L1534.6 402.79Q1530.99 410.516 1524.27 418.159Q1517.55 425.717 1506.97 430.756Q1496.47 435.795 1481.35 435.795Q1459.94 435.795 1442.64 424.71Q1425.42 413.624 1415.26 392.124Q1405.18 370.54 1405.18 339.129Q1405.18 306.963 1415.59 285.547Q1426.01 264.047 1443.31 253.381Q1460.61 242.715 1481.19 242.715Q1496.89 242.715 1507.47 248.006Q1518.06 253.297 1524.52 261.192Q1531.07 269.002 1534.6 276.729L1536.87 276.729L1536.87 245.151L1588.1 245.151L1588.1 503.151L1536.11 503.151ZM1497.82 394.391Q1510.33 394.391 1519.06 387.504Q1527.88 380.534 1532.5 368.104Q1537.21 355.674 1537.21 338.961Q1537.21 322.165 1532.59 309.903Q1527.97 297.557 1519.15 290.838Q1510.41 284.12 1497.82 284.12Q1484.97 284.12 1476.15 291.09Q1467.33 297.977 1462.79 310.323Q1458.34 322.668 1458.34 338.961Q1458.34 355.338 1462.88 367.852Q1467.5 380.282 1476.23 387.336Q1485.05 394.391 1497.82 394.391ZM1753.67 438.147L1689.44 438.147L1779.4 177.207L1855.25 177.207L1945.29 438.147L1877.17 438.147L1813.22 241.438L1818.33 239.776L1818.33 245.151L1816.4 245.151L1816.4 239.776L1821.51 241.438L1757.56 438.147L1753.67 438.147ZM1753.67 427.397L1753.67 432.772L1748.55 431.11L1812.5 234.401L1822.24 234.401L1886.18 431.11L1881.06 432.772L1881.06 427.397L1937.75 427.397L1937.75 432.772L1932.68 434.525L1846.33 184.336L1851.43 182.582L1851.43 187.957L1783.23 187.957L1783.23 182.582L1788.3 184.334L1702.05 434.524L1696.97 432.772L1696.97 427.397L1753.67 427.397ZM1750.14 329.051L1889.39 329.051L1889.39 381.038L1744.76 381.038L1744.76 329.051L1750.14 329.051ZM1750.14 339.801L1750.14 334.426L1755.51 334.426L1755.51 375.663L1750.14 375.663L1750.14 370.288L1884 370.288L1884 375.663L1878.64 375.663L1878.64 334.426L1884 334.426L1884 339.801L1750.14 339.801ZM1753.67 432.772L1696.97 432.772L1783.23 182.582L1851.43 182.582L1937.75 432.772L1881.06 432.772L1818.33 239.776L1816.4 239.776L1753.67 432.772ZM1750.14 334.426L1884 334.426L1884 375.663L1750.14 375.663L1750.14 334.426ZM1962.48 177.207L2026.04 177.207L2026.04 438.147L1962.48 438.147L1962.48 177.207Z"
     id="path3"
     style="fill:#ffffff" />
</svg>
