<?xml version="1.0" encoding="UTF-8"?>
<svg width="1028" height="1028" version="1.1" xmlns="http://www.w3.org/2000/svg">
 <g fill="#333">
  <path d="m819.785 826.058.524.358c-1.499 3.968-13.202 10.85-16.918 13.364-71.978 48.706-157.955 74.83-246.267 70.846-22.98-1.036-45.046-4.507-67.667-8.177-1.502-.238-2.147-.457-3.3-1.413 2.65-.743 6.33.193 9.072.54 18.767 2.37 37.029 4.554 55.988 4.963 99.316 2.148 185.22-31.326 268.568-80.481M458.121 125.21c20.973-.43 40.844 1.844 61.374 5.724-24.458.692-48.798-.519-73.271 1.166-76.917 5.292-156.038 29.87-221.786 68.393-13.461 8.171-26.25 17.328-39.765 25.468.217-.236.426-.479.652-.709 11.476-11.68 27.656-21.805 41.626-30.693 69.494-44.207 148.164-65.488 231.17-69.349" stroke-width="1.6219"/>
  <path d="M520.29 25.39c44.033-3.508 114.971 12.514 156.766 25.455q5.465 1.738 10.884 3.602 5.42 1.862 10.79 3.849 5.37 1.986 10.688 4.096 5.32 2.109 10.58 4.339 5.264 2.232 10.469 4.581t10.347 4.819 10.22 5.054q5.08 2.587 10.09 5.289 5.011 2.702 9.953 5.516 4.94 2.815 9.808 5.743t9.659 5.966q4.792 3.04 9.504 6.186 4.713 3.148 9.342 6.403 4.632 3.253 9.178 6.614 4.547 3.358 9.006 6.822 4.46 3.462 8.83 7.025 4.37 3.565 8.649 7.228 4.276 3.662 8.46 7.422 4.183 3.76 8.269 7.614 4.085 3.856 8.073 7.802 3.987 3.948 7.872 7.984 3.883 4.037 7.665 8.163 3.781 4.124 7.454 8.334 3.674 4.21 7.241 8.505 3.567 4.293 7.02 8.667 3.456 4.374 6.8 8.825t6.572 8.979q3.229 4.526 6.34 9.126 3.112 4.599 6.106 9.268t5.869 9.407 5.626 9.538q2.75 4.801 5.38 9.664 2.625 4.932 5.123 9.922 2.495 4.991 4.861 10.038 2.367 5.048 4.6 10.148 2.234 5.102 4.335 10.254t4.069 10.35q1.966 5.2 3.797 10.442 1.83 5.245 3.525 10.529 1.695 5.285 3.252 10.607 1.557 5.323 2.974 10.68 1.42 5.357 2.698 10.746 1.279 5.388 2.416 10.805 1.14 5.416 2.136 10.859.998 5.44 1.854 10.904t1.57 10.946q.713 5.48 1.285 10.978.57 5.496 1 11.005.428 5.509.713 11.025.285 5.517.428 11.038.14 5.52.14 11.045 0 5.523-.147 11.044-.144 5.521-.433 11.038-.287 5.516-.718 11.025-.43 5.509-1.005 11.005t-1.291 10.978q-.716 5.48-1.575 10.943-.858 5.463-1.86 10.904-1 5.441-2.14 10.859-1.14 5.415-2.423 10.803-1.281 5.39-2.7 10.745-1.422 5.357-2.982 10.678-1.559 5.322-3.257 10.606-1.696 5.283-3.53 10.526c-6.803 19.597-15.078 38.929-25.693 56.966-41.804 71.039-113.447 131.071-189.66 167.409-103.255 49.232-217.186 61.74-329.27 34.315-27.943-6.838-54.58-17.61-81.961-26.163 21.99 13.273 44.787 24.024 69.07 33.028q4.685 1.762 9.416 3.41 4.73 1.651 9.504 3.19t9.585 2.962q4.812 1.426 9.658 2.738 4.849 1.31 9.729 2.507 4.881 1.197 9.791 2.279 4.91 1.08 9.848 2.046 4.937.965 9.898 1.814 4.961.848 9.942 1.58 4.983.73 9.982 1.344 5 .613 10.014 1.11 5.013.495 10.038.872t10.06.637q5.033.26 10.072.399 5.04.14 10.08.162 5.043.02 10.082-.077 5.04-.098 10.077-.313 5.035-.217 10.065-.552 5.027-.334 10.046-.787 5.018-.454 10.024-1.025 5.004-.572 9.992-1.26 4.99-.69 9.957-1.496 4.97-.807 9.916-1.73t9.866-1.964q4.922-1.039 9.813-2.194t9.75-2.425 9.686-2.656q4.825-1.383 9.612-2.88 4.787-1.498 9.533-3.108 4.747-1.61 9.45-3.332 4.702-1.72 9.358-3.553 4.657-1.831 9.263-3.772c102.884-42.677 184.877-113.143 226.273-213.293-1.628 9.87-4.896 19.924-7.815 29.528q-1.608 5.223-3.362 10.403-1.756 5.18-3.655 10.315-1.9 5.133-3.943 10.217t-4.228 10.117q-2.186 5.03-4.512 10.003-2.327 4.974-4.79 9.887-2.467 4.915-5.068 9.763-2.603 4.85-5.341 9.633-2.738 4.78-5.608 9.493-2.872 4.71-5.873 9.348-3.003 4.636-6.135 9.197t-6.39 9.039q-3.26 4.479-6.642 8.873-3.383 4.395-6.89 8.702-3.505 4.31-7.13 8.527-3.626 4.218-7.369 8.343-3.762 4.165-7.634 8.242-3.87 4.075-7.845 8.06-3.976 3.984-8.053 7.873-4.08 3.89-8.256 7.683-4.179 3.794-8.454 7.489-4.276 3.693-8.647 7.286-4.37 3.594-8.831 7.083-4.464 3.49-9.016 6.875t-9.191 6.662-9.362 6.443q-4.722 3.169-9.526 6.224-4.804 3.057-9.686 6-4.883 2.941-9.84 5.769-4.955 2.829-9.985 5.538-5.029 2.711-10.128 5.304-5.098 2.592-10.262 5.064t-10.392 4.824q-5.226 2.35-10.513 4.578-5.286 2.229-10.63 4.331-5.343 2.103-10.738 4.082-5.396 1.977-10.843 3.828-5.445 1.85-10.939 3.574-5.492 1.723-11.027 3.316-5.536 1.596-11.111 3.059-5.577 1.465-11.188 2.798-5.613 1.332-11.257 2.535-5.644 1.2-11.32 2.27-5.675 1.07-11.375 2.004-5.701.937-11.423 1.739-5.724.803-11.467 1.47-5.742.669-11.5 1.203-5.758.533-11.528.932c-13.272.35-26.48 1.47-39.778 1.344q-9.772-.156-19.53-.656t-19.49-1.348q-9.733-.846-19.425-2.037-9.69-1.19-19.33-2.724-9.637-1.532-19.208-3.405-9.57-1.874-19.062-4.085-9.49-2.211-18.887-4.757t-18.685-5.424c-123.29-37.772-221.072-124.36-279.4-232.907C14.815 640.009 8.692 518.453 46.207 409.579c8.804-25.544 20.49-50.501 35.891-73.106 12.59-18.481 27.607-34.673 43.63-50.512 41.718-41.24 88.803-75.794 142.735-101.569 96.713-46.22 213.396-60.499 318.869-36.297 25.152 5.773 48.32 15.688 72.773 23.303-7.566-4.549-15.12-9.136-22.97-13.237-87.528-45.716-195.997-52.607-291.136-26.575q-4.558 1.237-9.089 2.562-4.53 1.327-9.03 2.743-4.499 1.414-8.967 2.918-4.467 1.504-8.901 3.096t-8.832 3.273-8.757 3.445-8.68 3.618q-4.32 1.853-8.598 3.789-4.278 1.938-8.513 3.959t-8.423 4.125-8.33 4.291q-4.143 2.188-8.235 4.456-4.094 2.269-8.135 4.617-4.043 2.35-8.032 4.778-3.99 2.428-7.925 4.935t-7.813 5.09q-3.88 2.584-7.7 5.245-3.823 2.66-7.583 5.394-3.763 2.736-7.464 5.545-3.7 2.808-7.339 5.69-3.638 2.881-7.211 5.835-3.575 2.953-7.082 5.975-3.509 3.024-6.95 6.115-3.44 3.092-6.813 6.25-3.37 3.16-6.672 6.385-3.303 3.225-6.533 6.514-3.229 3.29-6.386 6.644-3.157 3.352-6.24 6.767-3.082 3.414-6.089 6.889-3.006 3.474-5.936 7.008-2.928 3.534-5.778 7.124-2.852 3.591-5.623 7.237c-12.813 17.213-23.012 36.1-33.757 54.502 18.235-65.93 57.268-127.068 105.177-177.398C264.955 75.194 386.368 31.963 520.291 25.39m-14.21 137.376c-19.002 1.003-37.642 2.224-56.384 5.474q-3.641.645-7.268 1.36-3.628.717-7.237 1.5-3.612.787-7.204 1.643-3.593.855-7.166 1.78-3.575.925-7.127 1.92-3.553.993-7.084 2.057-3.532 1.063-7.039 2.194t-6.987 2.33q-3.482 1.2-6.938 2.467t-6.881 2.6q-3.428 1.332-6.825 2.732t-6.764 2.865q-3.368 1.465-6.7 2.996-3.335 1.53-6.636 3.124-3.3 1.596-6.565 3.254t-6.495 3.38q-3.229 1.721-6.419 3.505-3.192 1.784-6.342 3.63-3.153 1.844-6.263 3.75-3.111 1.907-6.18 3.873-3.07 1.966-6.096 3.992-3.026 2.024-6.009 4.108-2.981 2.084-5.918 4.225-2.935 2.14-5.825 4.34-2.889 2.196-5.73 4.45t-5.633 4.561q-2.791 2.309-5.534 4.67-2.74 2.362-5.43 4.776t-5.326 4.88q-2.638 2.467-5.222 4.983-2.583 2.517-5.11 5.083-2.529 2.567-5.001 5.182-3.078 3.236-6.07 6.544-2.99 3.307-5.894 6.684t-5.716 6.823q-2.814 3.445-5.536 6.956t-5.35 7.085q-2.628 3.574-5.161 7.208-2.534 3.635-4.972 7.33-2.437 3.693-4.777 7.443-2.338 3.75-4.578 7.555t-4.377 7.66q-2.14 3.857-4.176 7.762-2.038 3.906-3.97 7.859t-3.762 7.95q-1.827 3.996-3.55 8.035t-3.34 8.117q-1.615 4.079-3.122 8.195-1.509 4.115-2.907 8.265t-2.687 8.332q-1.29 4.182-2.47 8.392-1.178 4.21-2.245 8.448t-2.023 8.5q-.956 4.26-1.799 8.543-.844 4.282-1.573 8.584-.73 4.302-1.347 8.619t-1.119 8.647q-.502 4.332-.89 8.673-.39 4.34-.664 8.69-.273 4.348-.432 8.701-.161 4.354-.206 8.71t.027 8.714q.07 4.355.253 8.708.186 4.354.484 8.7.276 4.241.662 8.473.385 4.233.88 8.456.496 4.223 1.102 8.432.605 4.21 1.32 8.403.714 4.195 1.537 8.371.822 4.176 1.754 8.331.932 4.157 1.971 8.29 1.038 4.133 2.184 8.24 1.148 4.106 2.4 8.186 1.252 4.078 2.61 8.129 1.36 4.048 2.822 8.064 1.462 4.015 3.03 7.996 1.566 3.98 3.236 7.923t3.44 7.846q1.773 3.902 3.645 7.762 1.874 3.86 3.846 7.674 1.971 3.816 4.042 7.583t4.24 7.486q2.167 3.719 4.432 7.385 2.264 3.667 4.623 7.28 2.358 3.613 4.81 7.168 2.453 3.557 4.995 7.056 2.544 3.498 5.179 6.935 2.633 3.44 5.355 6.815 2.722 3.374 5.53 6.686 2.811 3.31 5.705 6.554 2.893 3.243 5.871 6.42 2.978 3.174 6.037 6.28 3.06 3.106 6.199 6.139 3.139 3.032 6.355 5.99t6.51 5.841q3.294 2.883 6.66 5.688c68.55 57.568 150.243 86.11 241.47 87.354 99.967-3.533 189.003-41.047 257.168-110.806q3.038-3.117 5.996-6.304 2.957-3.186 5.83-6.439 2.874-3.255 5.663-6.574t5.49-6.703q2.703-3.384 5.316-6.83 2.615-3.444 5.139-6.949t4.956-7.068q2.434-3.563 4.774-7.18 2.34-3.618 4.585-7.288 2.245-3.672 4.395-7.395 2.151-3.721 4.204-7.492t4.01-7.59q1.954-3.817 3.81-7.678 1.855-3.862 3.611-7.766t3.411-7.846q1.653-3.944 3.205-7.924t3-7.996q1.45-4.016 2.792-8.063 1.345-4.048 2.584-8.125 1.24-4.079 2.373-8.184t2.16-8.235 1.947-8.284q.92-4.153 1.733-8.325.812-4.173 1.515-8.365.705-4.19 1.3-8.395.595-4.206 1.083-8.424.487-4.22.864-8.448.378-4.228.647-8.465.268-4.236.426-8.476.159-4.242.207-8.484.05-4.243-.012-8.486-.06-4.244-.23-8.484-.15-4.393-.416-8.781-.266-4.386-.647-8.767t-.879-8.749q-.497-4.37-1.11-8.726t-1.34-8.696q-.728-4.34-1.57-8.663-.842-4.32-1.798-8.622-.955-4.3-2.025-8.576t-2.252-8.526q-1.182-4.248-2.477-8.47-1.293-4.22-2.7-8.407-1.404-4.188-2.92-8.342-1.515-4.154-3.14-8.27t-3.358-8.191q-1.733-4.077-3.573-8.11-1.84-4.034-3.786-8.023-1.946-3.99-3.998-7.93-2.05-3.943-4.206-7.834-2.154-3.891-4.411-7.73t-4.615-7.623-4.815-7.511q-2.458-3.727-5.011-7.395-2.555-3.668-5.207-7.273-2.65-3.606-5.395-7.147-2.746-3.542-5.583-7.017-2.84-3.475-5.768-6.882-2.93-3.408-5.947-6.744t-6.124-6.6q-3.106-3.262-6.296-6.451-3.19-3.19-6.464-6.3-3.274-3.113-6.629-6.146-3.356-3.033-6.79-5.986c-64.163-56.1-155.203-90.78-243.02-87.83q-.425.017-.846.037M30.92 546.411c-1.652 11.579-.536 24.14.396 35.774 6.107 76.345 45.37 153.605 93.751 213.884 27.23 33.927 83.721 89.783 123.192 109.32-.289-.386-.569-.779-.866-1.16-6.39-8.158-18.586-14.603-27.064-20.868-6.78-5.01-12.972-10.288-19.072-16.018-54.552-51.239-103.108-111.483-131.92-179.428-9.555-22.538-17.715-46.164-23.167-69.909-2.147-9.359-12.088-68.473-14.592-71.082-.19-.2-.44-.341-.658-.513m723.356-434.21c16.143 11.482 32.718 22.309 48.364 34.418q5.275 4.019 10.436 8.167 5.164 4.147 10.211 8.42t9.978 8.668q4.928 4.396 9.736 8.91 4.807 4.515 9.488 9.147 4.683 4.631 9.238 9.376 4.553 4.745 8.976 9.6t8.712 9.818q4.288 4.961 8.44 10.027t8.163 10.231 7.881 10.43q3.869 5.263 7.593 10.62 3.722 5.354 7.3 10.8 3.576 5.445 7.002 10.978t6.7 11.146q3.273 5.614 6.392 11.306c21.586 39.731 38.158 85.042 46.356 129.06.977 5.247 5.11 35.78 8.608 38.195-1.483-19.592-2.609-39.112-6.394-58.46-19.072-97.458-77.304-185.486-155.994-249.929-15.54-12.727-59.355-45.956-77.186-50.927M98.502 697.275c35.723 102.734 129.277 193.41 229.936 241.485 15.102 7.212 49.632 24.203 65.844 24.38l-.924-.559c-20.594-12.274-44.128-20.021-65.343-31.41-71.493-38.385-136.142-91.08-183.156-155.262-12.503-17.067-22.881-34.788-32.37-53.494-3.191-6.287-8.978-21.252-13.987-25.14m525.74-629.858c18.791 8.902 38.436 16.023 57.183 25.095q9.52 4.696 18.843 9.731 9.324 5.034 18.44 10.4t18.012 11.056q8.896 5.69 17.556 11.693 8.663 6.006 17.078 12.317 8.415 6.31 16.573 12.92 8.157 6.61 16.044 13.506 7.887 6.898 15.493 14.073c32.858 31.02 63.23 66.233 86.248 104.465 3.997 6.639 21.57 42.76 24.802 44.478-8.692-24.571-21.675-46.74-35.998-68.719-47.86-73.441-115.385-136.428-197.41-175.122-17.915-8.452-53.688-25.05-72.865-25.893" stroke-width="1.6143"/>
  <path d="M501.766 260.058c63.892-3.674 128.7 20.989 177.22 59.982 55.303 44.444 87.808 108.858 93.842 177.265 5.914 67.058-19.545 132.403-64.518 183.32q-3.41 3.872-6.986 7.607-3.573 3.736-7.304 7.327-3.732 3.592-7.614 7.035t-7.908 6.73-8.19 6.415q-4.162 3.127-8.456 6.087-4.293 2.962-8.71 5.752t-8.951 5.405-9.175 5.048q-4.64 2.436-9.382 4.687-4.74 2.25-9.576 4.313-4.833 2.064-9.751 3.935-4.919 1.872-9.913 3.55t-10.057 3.157q-5.06 1.48-10.183 2.76-5.12 1.28-10.292 2.36c-14.048 2.877-28.175 4.081-42.459 5.228-67.134 1.755-126.433-16.224-178.151-57.885q-2.55-2.06-5.048-4.179-2.495-2.12-4.938-4.296t-4.827-4.41-4.712-4.523q-2.327-2.288-4.595-4.631t-4.475-4.737q-2.207-2.396-4.353-4.842t-4.227-4.942-4.099-5.04q-2.018-2.543-3.97-5.133-1.951-2.591-3.835-5.226-1.885-2.635-3.7-5.315-1.818-2.68-3.566-5.398-1.746-2.721-3.424-5.483-1.676-2.76-3.283-5.559-1.605-2.8-3.139-5.635t-2.995-5.708q-1.46-2.871-2.847-5.776-1.386-2.903-2.698-5.84-1.311-2.936-2.548-5.903-1.235-2.965-2.395-5.96t-2.243-6.014q-1.083-3.02-2.088-6.065t-1.931-6.113-1.775-6.157q-.847-3.087-1.616-6.195-.768-3.108-1.456-6.231-.69-3.125-1.297-6.265-.608-3.14-1.137-6.292-.528-3.154-.974-6.317-.447-3.165-.812-6.34-.367-3.174-.65-6.355c-5.937-69.947 20.196-137.867 67.452-190.773q3.137-3.507 6.416-6.895 3.278-3.387 6.694-6.647t6.964-6.388 7.221-6.12q3.675-2.994 7.47-5.845t7.704-5.557q3.908-2.705 7.926-5.261 4.02-2.556 8.138-4.96 4.121-2.401 8.338-4.646t8.521-4.328q4.306-2.084 8.694-4.004 4.387-1.92 8.851-3.67 4.464-1.754 8.997-3.335 4.534-1.584 9.127-2.992 4.595-1.41 9.244-2.647 4.65-1.235 9.346-2.294c18.196-3.942 36.506-5.43 55.064-6.836m3.305 138.152c-34.106 3.04-65.57 15.342-87.704 41.114-22.206 25.859-30.895 56.546-27.378 89.684q.292 2.829.73 5.641.439 2.811 1.023 5.599.583 2.787 1.311 5.543t1.599 5.475q.87 2.717 1.882 5.392 1.01 2.673 2.159 5.294 1.149 2.622 2.43 5.186 1.284 2.565 2.7 5.064 1.414 2.5 2.958 4.93 1.542 2.43 3.21 4.782t3.454 4.624q1.79 2.27 3.693 4.453 1.902 2.183 3.917 4.273t4.135 4.082q2.12 1.99 4.343 3.878t4.538 3.668c22.679 17.673 50.647 28.002 80.1 26.793q3.059-.137 6.107-.417t6.078-.701q3.032-.422 6.036-.985 3.006-.563 5.98-1.266 2.973-.703 5.906-1.544 2.933-.84 5.822-1.816 2.887-.977 5.72-2.088 2.834-1.109 5.608-2.351 2.774-1.24 5.482-2.61t5.343-2.863q2.633-1.495 5.188-3.11t5.024-3.347q2.471-1.734 4.849-3.579 2.378-1.847 4.66-3.801t4.46-4.014 4.25-4.217q1.038-1.078 2.048-2.182 1.01-1.105 1.991-2.231.98-1.128 1.93-2.28.95-1.15 1.87-2.324t1.81-2.368q.888-1.197 1.744-2.413.857-1.215 1.681-2.453.826-1.237 1.617-2.492.791-1.257 1.55-2.532.758-1.274 1.483-2.567.724-1.293 1.414-2.603t1.347-2.635q.655-1.327 1.275-2.669.62-1.34 1.205-2.697t1.134-2.725q.55-1.37 1.062-2.753.512-1.381.988-2.776t.915-2.8q.44-1.406.841-2.82.403-1.417.768-2.842t.691-2.857q.327-1.434.615-2.875.29-1.44.54-2.887t.465-2.9q.212-1.452.387-2.91.174-1.457.311-2.919.136-1.46.232-2.923.098-1.465.158-2.93.058-1.466.078-2.932.022-1.468.003-2.935-.02-1.466-.076-2.932-.057-1.466-.153-2.93-.16-2.956-.472-5.9t-.775-5.87q-.462-2.927-1.074-5.827t-1.373-5.77q-.76-2.868-1.667-5.698-.905-2.829-1.956-5.613t-2.242-5.514q-1.192-2.73-2.522-5.402-1.332-2.673-2.798-5.278-1.465-2.607-3.062-5.14-1.599-2.534-3.323-4.991-1.726-2.456-3.577-4.828-1.849-2.371-3.819-4.654-1.968-2.281-4.052-4.47-2.084-2.185-4.277-4.273-2.193-2.086-4.492-4.068c-22.141-18.826-51.698-29.556-81.415-27.723q-2.324.146-4.642.345z" stroke-width="1.6219"/>
 </g>
</svg>
